<svg xmlns="http://www.w3.org/2000/svg" width="84" height="84" fill="none" viewBox="0 0 84 84">
    <path fill="#CED4DE" d="M42.045 74.498c12.54 0 22.704-2.178 22.704-4.865 0-2.686-10.165-4.864-22.704-4.864-12.539 0-22.704 2.178-22.704 4.864 0 2.687 10.165 4.865 22.704 4.865z"/>
    <path fill="#FF1833" d="M42.045 9.629C29.25 9.629 18.878 20 18.878 32.794c0 4.586 1.333 8.861 3.632 12.459l16.286 25.48c1.517 2.372 4.982 2.372 6.498 0l16.286-25.48c2.3-3.598 3.633-7.873 3.633-12.459C65.213 20 54.84 9.63 42.045 9.63zm0 37.264c-7.93 0-14.357-6.428-14.357-14.358 0-7.929 6.428-14.357 14.357-14.357 7.93 0 14.358 6.428 14.358 14.357 0 7.93-6.428 14.358-14.358 14.358z"/>
    <path fill="#C3000C" d="M52.358 12.047c-1.048 1.72-.621 3.985 1.035 5.195 4.949 3.618 7.904 9.431 7.904 15.552 0 3.684-1.043 7.263-3.016 10.35l-16.286 25.48c-.774 1.21-.797 2.685-.193 3.88 1.325.082 2.685-.508 3.492-1.771l16.286-25.48c2.3-3.598 3.633-7.873 3.633-12.459 0-9.088-5.236-16.953-12.855-20.747zM27.688 32.535c0-3.913 1.566-7.46 4.105-10.05-1.607-1.575-4.28-1.259-5.437.671-1.684 2.807-2.584 6.028-2.584 9.38 0 8.59 5.959 15.814 13.96 17.758 2.197.534 4.313-1.14 4.313-3.401-7.93 0-14.357-6.428-14.357-14.358z"/>
</svg>
