<svg xmlns="http://www.w3.org/2000/svg" width="84" height="84" fill="none" viewBox="0 0 84 84">
    <path fill="#EB9C8D" d="M68.538 74.103c.666 0 1.206-.535 1.206-1.194v-26.22c0-.227.061-.449.177-.643l1.33-2.249c.744-1.258 1.137-2.69 1.137-4.148V18.14l-24.716-.112 1.223 28.904V72.91c0 .66.54 1.194 1.206 1.194"/>
    <path fill="#D78878" d="M48.163 29.619l.685 16.201h8.805c3.223 0 5.874-2.56 5.897-5.75v-5.065-.059c-.021-2.955-2.477-5.327-5.463-5.327h-9.925zM72.388 27.48v-9.34l-24.716-.112.297 7.015c.546.166 1.126.256 1.726.256.916 0 1.785-.209 2.56-.58 1.061 1.016 2.503 1.643 4.09 1.643.961 0 1.868-.23 2.67-.637 1.05.956 2.449 1.54 3.981 1.54.866 0 1.689-.188 2.43-.523.152-.068.33-.043.458.062 1.022.843 2.334 1.35 3.763 1.35.99 0 1.921-.244 2.741-.674z"/>
    <path fill="#EB9C8D" d="M53.02 19.43c0 1.817-1.488 3.29-3.325 3.29-1.837 0-3.325-1.473-3.325-3.29v-6.51c0-1.817 1.488-3.291 3.325-3.291.918 0 1.75.368 2.352.964.6.595.973 1.418.973 2.327v6.51z"/>
    <path fill="#D78878" d="M48.862 19.43v-6.51c0-1.381.861-2.564 2.08-3.052-.385-.154-.806-.239-1.247-.239-1.837 0-3.325 1.474-3.325 3.291v6.51c0 1.817 1.488 3.29 3.325 3.29.44 0 .861-.086 1.246-.24-1.22-.487-2.08-1.669-2.08-3.05z"/>
    <path fill="#EB9C8D" d="M59.67 20.493c0 1.817-1.488 3.29-3.324 3.29-1.837 0-3.325-1.473-3.325-3.29v-6.51c0-1.817 1.488-3.291 3.325-3.291.918 0 1.75.368 2.351.964.601.595.973 1.418.973 2.327v6.51z"/>
    <path fill="#D78878" d="M55.512 20.493v-6.51c0-1.381.862-2.564 2.08-3.052-.384-.154-.806-.239-1.246-.239-1.837 0-3.325 1.474-3.325 3.291v6.51c0 1.817 1.488 3.29 3.325 3.29.44 0 .86-.086 1.246-.24-1.22-.487-2.08-1.669-2.08-3.05zM53.796 45.984l-5.187-5.815.286 6.763V72.91c0 .66.54 1.194 1.206 1.194h3.704l-.009-28.119z"/>
    <path fill="#FFDFCF" d="M22.62 74.486h17.034c.45 0 .815-.365.815-.815V59.296c0-.199.054-.393.158-.563l1.19-1.964c.667-1.1 1.019-2.35 1.019-3.624V35.163c0-.449-.363-.813-.812-.815l-20.46-.09c-.465-.003-.837.384-.817.85l1.057 24.4V73.67c0 .45.365.815.815.815z"/>
    <path fill="#FFCEBF" d="M42.836 42.513v-8.161l-22.126-.098.265 6.129c.49.145 1.008.224 1.546.224.82 0 1.597-.183 2.291-.508.95.889 2.241 1.437 3.662 1.437.86 0 1.672-.202 2.39-.557.94.835 2.192 1.345 3.564 1.345.776 0 1.512-.164 2.176-.456.136-.06.294-.039.41.054.915.736 2.089 1.179 3.368 1.179.885 0 1.72-.213 2.454-.588z"/>
    <path fill="#FFDFCF" d="M43.358 32.471v5.502c0 1.587-1.332 2.874-2.976 2.874s-2.977-1.287-2.977-2.874V32.47c0-1.588 1.333-2.875 2.977-2.875.822 0 1.566.321 2.105.842.538.52.871 1.24.871 2.033z"/>
    <path fill="#FFCEBF" d="M39.635 37.973V32.47c0-1.207.772-2.24 1.863-2.666-.344-.135-.722-.21-1.116-.21-1.644 0-2.977 1.288-2.977 2.876v5.502c0 1.587 1.333 2.874 2.977 2.874.394 0 .772-.074 1.116-.209-1.091-.426-1.863-1.459-1.863-2.665z"/>
    <path fill="#EB9C8D" d="M57.559 28.421l2.209 2.632c.932 1.11 1.442 2.508 1.442 3.952v5c0 3.826-3.134 6.927-7 6.927h-5.315v-.207l-9.247-10.366c-2.674-2.998-3.272-7.29-1.517-10.891l2.524-5.182c1.263-2.592 4.455-3.619 7.017-2.258l10.53 5.593c.406.217.739.533.971.91.233.378.365.814.375 1.271.019.948-.5 1.827-1.346 2.276l-.643.343z"/>
    <path fill="#FFCEBF" d="M21.149 44.38l.613 14.156h7.883c2.885 0 5.258-2.237 5.278-5.023v-4.426-.052c-.018-2.581-2.217-4.654-4.89-4.654h-8.884z"/>
    <path fill="#FFDFCF" d="M25.497 35.478c0 1.588-1.332 2.875-2.976 2.875-1.645 0-2.977-1.287-2.977-2.875v-5.687c0-1.588 1.332-2.876 2.977-2.876.822 0 1.566.322 2.105.843.538.52.871 1.239.871 2.033v5.687z"/>
    <path fill="#FFCEBF" d="M21.774 35.478v-5.687c0-1.207.772-2.24 1.863-2.667-.344-.134-.722-.209-1.116-.209-1.645 0-2.977 1.288-2.977 2.876v5.687c0 1.588 1.332 2.875 2.977 2.875.394 0 .77-.075 1.115-.21-1.091-.425-1.861-1.458-1.861-2.665z"/>
    <path fill="#FFDFCF" d="M31.45 36.407c0 1.588-1.331 2.875-2.976 2.875-1.644 0-2.976-1.287-2.976-2.875V30.72c0-1.588 1.332-2.876 2.976-2.876.823 0 1.567.322 2.105.843.539.52.872 1.239.872 2.033v5.687z"/>
    <path fill="#FFCEBF" d="M27.728 36.407V30.72c0-1.207.771-2.24 1.863-2.667-.345-.135-.722-.209-1.117-.209-1.644 0-2.976 1.288-2.976 2.876v5.687c0 1.588 1.332 2.875 2.976 2.875.395 0 .771-.075 1.116-.21-1.092-.425-1.862-1.458-1.862-2.665zM22.606 74.498h3.591l-.005-15.818-4.644-5.081.256 5.909v14.188c0 .443.36.802.802.802z"/>
    <path fill="#FFDFCF" d="M37.404 37.196c0 1.588-1.332 2.875-2.976 2.875s-2.976-1.287-2.976-2.875v-5.688c0-1.587 1.332-2.875 2.976-2.875.822 0 1.567.321 2.105.842.538.52.871 1.24.871 2.033v5.688z"/>
    <path fill="#FFCEBF" d="M33.682 37.196v-5.688c0-1.207.771-2.24 1.863-2.666-.345-.135-.722-.21-1.117-.21-1.644 0-2.976 1.288-2.976 2.876v5.688c0 1.588 1.332 2.875 2.976 2.875.395 0 .772-.075 1.117-.21-1.092-.425-1.863-1.458-1.863-2.665z"/>
    <path fill="#FFDFCF" d="M29.56 43.334l1.978 2.3c.834.97 1.29 2.191 1.29 3.453v4.368c0 3.343-2.805 6.053-6.266 6.053h-4.758v-.181l-8.277-9.057c-2.395-2.62-2.93-6.37-1.359-9.516l2.26-4.527c1.13-2.265 3.988-3.162 6.282-1.974l9.425 4.888c.365.19.662.465.87.795.21.33.328.711.336 1.11.017.829-.448 1.597-1.204 1.99l-.577.298z"/>
    <path fill="#FFCEBF" d="M31.676 39.54c-.284-.448-.688-.818-1.17-1.067l-10.19-5.327c-.061-.032-.126-.054-.19-.07l-.322.615c-.054.104-.173.163-.29.138-2.012-.421-4.146.515-5.086 2.398l-2.26 4.527c-1.57 3.147-1.036 6.897 1.358 9.516l8.278 9.057v.181h4.388v-.03c0-.514-.194-1.01-.544-1.394l-7.726-8.452c-2.394-2.62-2.929-6.37-1.358-9.516l2.26-4.527c.143-.288.314-.552.509-.794.143-.178.397-.23.602-.123l9.829 5.137c.235.122.433.303.571.522.139.22.215.472.22.73.012.547-.292 1.047-.79 1.306l-1.236.642c-1.757.912-3.87.944-5.655.085l-2.858-1.377c-.388-.187-.86-.035-1.053.34-.194.375-.036.83.352 1.018l2.858 1.377c1.084.521 2.264.781 3.443.781 1.26 0 2.518-.296 3.657-.887l1.235-.643c1.02-.53 1.64-1.553 1.618-2.672-.011-.527-.167-1.042-.45-1.49z"/>
    <path fill="#D78878" d="M59.922 24.079c-.317-.514-.768-.937-1.306-1.223L47.232 16.76c-.068-.037-.14-.062-.213-.08l-.359.704c-.06.119-.193.186-.324.158-2.247-.482-4.631.589-5.68 2.744l-2.525 5.182c-1.755 3.602-1.157 7.893 1.517 10.891l9.247 10.366v.207h4.901v-.034c0-.588-.216-1.156-.608-1.595l-8.63-9.674c-2.674-2.999-3.272-7.29-1.517-10.892l2.525-5.181c.16-.329.351-.632.568-.908.16-.204.444-.264.673-.142l10.979 5.88c.263.14.483.347.638.598.155.251.24.54.246.836.013.625-.326 1.197-.884 1.494l-1.38.735c-1.962 1.043-4.323 1.08-6.316.097l-3.193-1.576c-.433-.214-.96-.04-1.176.39-.217.428-.04.95.393 1.164l3.193 1.576c1.21.597 2.529.894 3.846.894 1.407 0 2.812-.339 4.084-1.016l1.38-.735c1.14-.606 1.833-1.777 1.808-3.058-.012-.603-.186-1.193-.503-1.706z"/>
    <path fill="#EB9C8D" d="M66.321 21.395c0 1.818-1.488 3.29-3.325 3.29-1.836 0-3.324-1.472-3.324-3.29v-6.51c0-1.817 1.488-3.29 3.325-3.29.918 0 1.75.367 2.35.964.602.595.974 1.418.974 2.327v6.51z"/>
    <path fill="#D78878" d="M62.163 21.395v-6.51c0-1.38.861-2.563 2.08-3.051-.384-.154-.806-.24-1.246-.24-1.837 0-3.325 1.474-3.325 3.292v6.51c0 1.817 1.488 3.29 3.325 3.29.44 0 .862-.086 1.247-.24-1.22-.488-2.081-1.67-2.081-3.05z"/>
    <path fill="#EB9C8D" d="M72.972 15.988v6.296c0 1.817-1.488 3.29-3.325 3.29-1.837 0-3.326-1.474-3.326-3.29v-6.296c0-1.818 1.49-3.292 3.326-3.292.918 0 1.75.369 2.352.965.601.595.973 1.418.973 2.327z"/>
    <path fill="#D78878" d="M68.813 22.284v-6.296c0-1.382.862-2.564 2.081-3.052-.385-.155-.806-.24-1.247-.24-1.836 0-3.326 1.474-3.326 3.292v6.296c0 1.817 1.49 3.29 3.326 3.29.441 0 .862-.085 1.247-.239-1.22-.488-2.081-1.67-2.081-3.05z"/>
</svg>
