<svg xmlns="http://www.w3.org/2000/svg" width="35" height="35" fill="none" viewBox="0 0 35 35">
    <g filter="url(#prefix__filter0_i)">
        <g filter="url(#prefix__filter1_d)">
            <circle cx="16" cy="16" r="12.8" fill="#FFEAEA"/>
        </g>
        <path fill="#0094FF" fill-rule="evenodd" d="M32 16c0 4.244-1.686 8.313-4.686 11.314-3 3-7.07 4.686-11.314 4.686-4.243 0-8.313-1.686-11.314-4.686C1.686 24.314 0 20.244 0 16c0-4.243 1.686-8.313 4.686-11.314C7.686 1.686 11.756 0 16 0s8.313 1.686 11.314 4.686c3 3 4.686 7.07 4.686 11.314zm-18.86-3.934H10.5C10.44 8.294 13.36 7 16.012 7c2.794 0 5.346 1.46 5.346 4.48 0 2.16-1.27 3.188-2.488 4.114-1.474 1.118-2.02 1.536-2.02 2.972v.71h-2.616l-.014-.926c-.076-1.854.99-2.996 2.336-3.974 1.18-.888 1.93-1.472 1.93-2.742 0-1.65-1.256-2.336-2.628-2.336-1.802 0-2.716 1.206-2.716 2.768h-.002zm2.502 12.886c-1.168 0-2.018-.788-2.018-1.854 0-1.104.85-1.88 2.02-1.88 1.218 0 2.056.776 2.056 1.88 0 1.066-.84 1.854-2.058 1.854z" clip-rule="evenodd"/>
    </g>
    <defs>
        <filter id="prefix__filter0_i" width="36" height="36" x="0" y="0" color-interpolation-filters="sRGB" filterUnits="userSpaceOnUse">
            <feFlood flood-opacity="0" result="BackgroundImageFix"/>
            <feBlend in="SourceGraphic" in2="BackgroundImageFix" result="shape"/>
            <feColorMatrix in="SourceAlpha" result="hardAlpha" values="0 0 0 0 0 0 0 0 0 0 0 0 0 0 0 0 0 0 127 0"/>
            <feOffset dx="4" dy="4"/>
            <feGaussianBlur stdDeviation="2"/>
            <feComposite in2="hardAlpha" k2="-1" k3="1" operator="arithmetic"/>
            <feColorMatrix values="0 0 0 0 0 0 0 0 0 0 0 0 0 0 0 0 0 0 0.6 0"/>
            <feBlend in2="shape" result="effect1_innerShadow"/>
        </filter>
        <filter id="prefix__filter1_d" width="33.6" height="33.6" x="1.2" y="1.2" color-interpolation-filters="sRGB" filterUnits="userSpaceOnUse">
            <feFlood flood-opacity="0" result="BackgroundImageFix"/>
            <feColorMatrix in="SourceAlpha" values="0 0 0 0 0 0 0 0 0 0 0 0 0 0 0 0 0 0 127 0"/>
            <feOffset dx="2" dy="2"/>
            <feGaussianBlur stdDeviation="2"/>
            <feColorMatrix values="0 0 0 0 0 0 0 0 0 0 0 0 0 0 0 0 0 0 0.25 0"/>
            <feBlend in2="BackgroundImageFix" result="effect1_dropShadow"/>
            <feBlend in="SourceGraphic" in2="effect1_dropShadow" result="shape"/>
        </filter>
    </defs>
</svg>
