<svg xmlns="http://www.w3.org/2000/svg" width="76" height="76" fill="none" viewBox="0 0 76 76">
    <path fill="#3F5959" d="M31.25 29.37c3.918 0 7.094-3.599 7.094-8.037 0-4.439-3.176-8.037-7.094-8.037s-7.093 3.598-7.093 8.037c0 4.438 3.175 8.036 7.093 8.036z"/>
    <path fill="#FCB44D" d="M55.246 58.51v7.712c0 .652-.529 1.18-1.181 1.18H22.158c-.652 0-1.18-.528-1.18-1.18V58.51c0-7.134 5.08-13.08 11.82-14.418-.184.549-.284 1.136-.287 1.747-.014 2.971 2.342 5.47 5.31 5.621 3.225.164 5.892-2.404 5.892-5.593 0-.622-.1-1.218-.287-1.775 6.74 1.338 11.82 7.284 11.82 14.417z"/>
    <path fill="#FB9927" d="M55.247 58.51v7.712c0 .652-.529 1.18-1.181 1.18h-2.544V58.51c0-8.118-6.58-14.7-14.698-14.7h3.723c8.119 0 14.7 6.582 14.7 14.7z"/>
    <path fill="#FB9927" d="M50.194 58.908v8.495h-1.771v-8.495c0-.488.396-.885.885-.885.49 0 .886.397.886.885z"/>
    <path fill="#FB9927" d="M50.194 58.908v8.495h-1.771v-8.495c0-.488.396-.885.885-.885.49 0 .886.397.886.885zM27.802 58.908v8.495H26.03v-8.495c0-.488.397-.885.886-.885s.886.397.886.885z"/>
    <path fill="#FB9927" d="M27.802 58.908v8.495H26.03v-8.495c0-.488.397-.885.886-.885s.886.397.886.885z"/>
    <path fill="#D78878" d="M44.599 45.868c0 3.583-2.905 6.486-6.487 6.486-3.581 0-6.487-2.903-6.487-6.486 0-.532.064-1.049.186-1.544 1.232-.335 2.528-.513 3.866-.513h4.87c1.338 0 2.635.178 3.867.513.121.495.185 1.012.185 1.544z"/>
    <path fill="#D78878" d="M40.965 39.829v5.076c0 1.576-1.277 2.853-2.853 2.853-1.576 0-2.854-1.277-2.854-2.853V39.83h5.707z"/>
    <path fill="#F9A08F" d="M40.965 39.829v6.158c-.863.39-1.83.608-2.853.608-1.022 0-1.99-.218-2.854-.608V39.83h5.707z"/>
    <path fill="#F9A08F" d="M42.737 43.972v2.114c0 .49-.397.886-.886.886s-.886-.397-.886-.886v-2.27c.6.017 1.192.07 1.772.156zM35.258 43.817v2.27c0 .488-.397.885-.886.885s-.885-.397-.885-.886v-2.114c.58-.086 1.171-.139 1.771-.155z"/>
    <path fill="#D78878" d="M49.417 32.77c1.973 0 3.572-1.598 3.572-3.57 0-1.973-1.6-3.572-3.572-3.572s-3.57 1.6-3.57 3.571c0 1.973 1.598 3.571 3.57 3.571zM26.806 32.77c1.973 0 3.572-1.598 3.572-3.57 0-1.973-1.6-3.572-3.572-3.572s-3.57 1.6-3.57 3.571c0 1.973 1.598 3.571 3.57 3.571z"/>
    <path fill="#EB9C8D" d="M48.408 23.928v7.437c0 5.678-4.54 10.382-10.219 10.424-5.722.041-10.374-4.583-10.374-10.295v-7.566c0-5.686 4.611-10.296 10.297-10.296 2.844 0 5.417 1.153 7.28 3.016 1.863 1.864 3.016 4.438 3.016 7.28z"/>
    <path fill="#EB9C8D" d="M48.407 23.928v7.437c0 5.678-4.54 10.381-10.218 10.424-5.721.041-10.374-4.583-10.374-10.295v-7.566c0-5.686 4.611-10.295 10.297-10.295 2.844 0 5.417 1.152 7.28 3.015 1.863 1.864 3.015 4.437 3.015 7.28z"/>
    <path fill="#D78878" d="M48.408 23.928v3.096c-1.438.534-3.066.823-4.808.823h-.001c-1.595 0-3.203-.24-4.78-.717-3.998-1.206-7.894-4.64-9.586-8.418 1.79-3.04 5.097-5.08 8.88-5.08 2.843 0 5.416 1.153 7.28 3.016 1.862 1.864 3.015 4.437 3.015 7.28z"/>
    <path fill="#557983" d="M49.92 14.361c1.177-1.077 1.736-2.235 1.406-3.237-.683-2.072-16.386-5.022-20.162 2.05-1.924 3.601 2.877 10.046 8.338 11.695 5.462 1.648 10.959-.123 12.278-3.956.756-2.198-.026-4.595-1.86-6.552z"/>
    <path fill="#3F5959" d="M51.78 20.913c-1.32 3.833-6.818 5.604-12.278 3.957-.376-.113-.748-.25-1.117-.407 4.184.22 7.837-1.523 8.881-4.554.633-1.84.187-3.82-1.05-5.564-.408-.574-.394-1.332.023-1.898.586-.797.812-1.602.573-2.325-.132-.401-.822-.832-1.88-1.22 3.398.407 6.117 1.388 6.394 2.222.33 1.002-.229 2.16-1.405 3.237 1.833 1.958 2.615 4.355 1.86 6.552z"/>
    <path fill="#694B44" d="M42.953 29.811h-.006c-.489-.003-.888-.401-.885-.89.003-.488.394-.881.88-.881h.016c.49.003.883.402.88.89-.002.488-.399.881-.885.881zM33.28 29.811h-.005c-.49-.002-.888-.401-.886-.89.003-.488.394-.88.881-.88h.015c.49.002.884.401.88.89-.002.488-.398.88-.885.88z"/>
    <path fill="#FEE7C9" d="M55.108 56.486H21.116c.082-.603.203-1.193.357-1.77h33.278c.155.577.274 1.167.357 1.77z"/>
    <path fill="#FFD597" d="M55.109 56.486h-3.725c-.082-.603-.203-1.193-.356-1.77h3.724c.154.577.274 1.167.357 1.77z"/>
    <path fill="#FEE7C9" d="M54.273 53.24H21.95c.235-.611.51-1.202.82-1.771h12.07c.961.563 2.08.885 3.272.885 1.193 0 2.311-.322 3.273-.885h12.068c.31.569.586 1.16.82 1.771z"/>
    <path fill="#FFD597" d="M54.275 53.24h-3.724c-.236-.611-.51-1.202-.821-1.771h3.725c.31.569.584 1.16.82 1.771z"/>
    <path fill="#FEE7C9" d="M20.977 63.4h34.269v1.772H20.977v-1.771z"/>
    <path fill="#FFD597" d="M26.03 63.4h1.772v1.772H26.03v-1.771zM48.423 63.4h1.771v1.772h-1.771v-1.771zM51.523 63.4h3.724v1.772h-3.724v-1.771z"/>
    <path fill="#FEE7C9" d="M20.977 60.156h34.269v1.771H20.977v-1.771z"/>
    <path fill="#FFD597" d="M26.03 60.156h1.772v1.771H26.03v-1.771zM48.423 60.156h1.771v1.771h-1.771v-1.771zM51.523 60.156h3.724v1.771h-3.724v-1.771z"/>
    <path fill="#9FF7D3" d="M48.407 25.704v3.415l-3.014 4.967c-.167.275-.459.426-.759.426-.156 0-.314-.041-.458-.128-.418-.254-.551-.799-.297-1.217l4.528-7.463zM31.922 34.388c-.142.084-.297.124-.45.124-.302 0-.598-.154-.763-.434l-2.894-4.883v-3.476l4.418 7.457c.249.42.11.963-.311 1.212zM45.492 36.097v3.395c0 .936-.397 1.827-1.096 2.448-1.026.912-2.924 1.928-6.284 1.928s-5.257-1.016-6.283-1.928c-.7-.621-1.096-1.512-1.096-2.448v-3.395c0-.56.393-1.043.941-1.157l5.732-1.188c.465-.096.947-.096 1.413 0l5.732 1.188c.547.114.94.596.94 1.157z"/>
    <path fill="#23F1A8" d="M45.492 36.097v3.395c0 .935-.397 1.827-1.096 2.448-.96.853-2.68 1.795-5.644 1.914 1.267-.38 2.14-.935 2.727-1.457.7-.621 1.096-1.513 1.096-2.448v-5.42l1.976.41c.547.115.94.597.94 1.158z"/>
    <path fill="#EAF6FF" d="M45.492 34.019v3.259c0-.561-.394-1.043-.941-1.157l-5.733-1.188c-.465-.096-.947-.096-1.412 0l-5.732 1.188c-.548.114-.941.596-.941 1.157v-3.26c0-.56.393-1.042.94-1.156l5.733-1.188c.465-.096.947-.096 1.412 0l5.733 1.188c.547.114.94.597.94 1.157z"/>
    <path fill="#CBE5E7" d="M45.492 34.019v3.259c0-.561-.394-1.043-.941-1.157l-1.976-.41v-2.415c0-.378-.18-.72-.466-.939l2.441.505c.548.114.942.597.942 1.157z"/>
    <path fill="#23F1A8" d="M45.492 37.408v1.771H41.68c-.489 0-.886-.395-.886-.885s.397-.886.886-.886h3.81z"/>
    <path fill="#27E19D" d="M42.575 37.408h2.917v1.771h-2.917v-1.771z"/>
    <path fill="#23F1A8" d="M38.324 38.294c0 .49-.397.885-.886.885h-6.705v-1.771h6.705c.489 0 .886.397.886.886zM45.398 40.268c-.154.641-.5 1.226-1.002 1.672l-.115.1H31.943c-.039-.034-.078-.067-.114-.1-.502-.446-.848-1.03-1.003-1.672h14.572z"/>
    <path fill="#27E19D" d="M45.398 40.268c-.154.641-.5 1.226-1.002 1.672l-.115.1h-2.458c.417-.502.673-1.12.735-1.772h2.84z"/>
</svg>
