<svg xmlns="http://www.w3.org/2000/svg" width="139" height="133" fill="none" viewBox="0 0 139 133">
    <g filter="url(#prefix__filter0_d)">
        <circle cx="62" cy="67" r="60" fill="#FFF9F9"/>
    </g>
    <path fill="#EB9C8D" d="M88.538 99.102c.666 0 1.206-.534 1.206-1.194V71.69c0-.227.061-.45.177-.643l1.33-2.249c.744-1.258 1.137-2.69 1.137-4.148V43.14l-24.716-.111 1.223 28.904V97.91c0 .659.54 1.194 1.206 1.194"/>
    <path fill="#D78878" d="M68.162 54.619l.686 16.201h8.805c3.223 0 5.874-2.56 5.897-5.75v-5.065-.059c-.021-2.955-2.477-5.327-5.463-5.327h-9.925zM92.388 52.48v-9.34l-24.716-.112.297 7.014c.546.167 1.126.257 1.726.257.917 0 1.785-.209 2.56-.58 1.062 1.016 2.503 1.643 4.09 1.643.961 0 1.868-.23 2.67-.637 1.05.956 2.449 1.54 3.981 1.54.866 0 1.689-.188 2.43-.523.152-.068.33-.044.458.062 1.022.843 2.334 1.35 3.763 1.35.99 0 1.921-.245 2.741-.674z"/>
    <path fill="#EB9C8D" d="M73.02 44.43c0 1.817-1.488 3.29-3.325 3.29-1.837 0-3.325-1.473-3.325-3.29v-6.51c0-1.817 1.488-3.291 3.325-3.291.918 0 1.75.368 2.352.964.6.595.973 1.418.973 2.327v6.51z"/>
    <path fill="#D78878" d="M68.862 44.43v-6.51c0-1.381.861-2.564 2.08-3.052-.385-.154-.806-.24-1.247-.24-1.837 0-3.325 1.475-3.325 3.292v6.51c0 1.817 1.488 3.29 3.325 3.29.44 0 .861-.086 1.246-.24-1.22-.487-2.08-1.669-2.08-3.05z"/>
    <path fill="#EB9C8D" d="M79.67 45.493c0 1.817-1.487 3.29-3.324 3.29-1.837 0-3.325-1.473-3.325-3.29v-6.51c0-1.817 1.488-3.291 3.325-3.291.918 0 1.75.368 2.351.964.602.595.974 1.418.974 2.327v6.51z"/>
    <path fill="#D78878" d="M75.512 45.493v-6.51c0-1.381.862-2.564 2.08-3.052-.384-.154-.805-.24-1.246-.24-1.837 0-3.325 1.475-3.325 3.292v6.51c0 1.817 1.488 3.29 3.325 3.29.44 0 .86-.086 1.246-.24-1.22-.487-2.08-1.669-2.08-3.05zM73.796 70.984l-5.187-5.815.286 6.763v25.977c0 .659.54 1.193 1.206 1.193h3.704l-.009-28.118z"/>
    <path fill="#FFDFCF" d="M42.62 99.486h17.034c.45 0 .815-.365.815-.815V84.295c0-.198.054-.392.158-.562l1.19-1.964c.667-1.1 1.019-2.35 1.019-3.624V60.163c0-.449-.363-.813-.812-.815l-20.46-.09c-.465-.003-.837.384-.817.85l1.057 24.4V98.67c0 .45.365.815.815.815z"/>
    <path fill="#FFCEBF" d="M62.836 67.512v-8.16l-22.126-.099.265 6.13c.49.145 1.008.224 1.546.224.82 0 1.597-.183 2.291-.508.95.888 2.242 1.436 3.663 1.436.86 0 1.671-.201 2.39-.556.94.835 2.191 1.345 3.563 1.345.776 0 1.512-.164 2.176-.457.136-.06.294-.038.41.054.915.737 2.089 1.18 3.368 1.18.885 0 1.72-.214 2.454-.589z"/>
    <path fill="#FFDFCF" d="M63.358 57.471v5.502c0 1.587-1.332 2.874-2.976 2.874s-2.977-1.287-2.977-2.874V57.47c0-1.588 1.333-2.875 2.977-2.875.822 0 1.566.321 2.105.842.538.52.871 1.24.871 2.033z"/>
    <path fill="#FFCEBF" d="M59.635 62.973V57.47c0-1.207.771-2.24 1.863-2.666-.344-.135-.722-.21-1.116-.21-1.644 0-2.977 1.288-2.977 2.876v5.502c0 1.587 1.333 2.874 2.977 2.874.394 0 .772-.074 1.116-.209-1.092-.426-1.863-1.46-1.863-2.665z"/>
    <path fill="#EB9C8D" d="M77.559 53.421l2.209 2.632c.932 1.11 1.442 2.508 1.442 3.952v5c0 3.826-3.134 6.927-7 6.927h-5.315v-.207l-9.247-10.366c-2.674-2.998-3.272-7.29-1.517-10.891l2.525-5.182c1.262-2.592 4.454-3.619 7.017-2.258L78.2 48.62c.408.217.74.533.973.91.232.378.364.814.374 1.271.019.949-.5 1.827-1.346 2.276l-.643.343z"/>
    <path fill="#FFCEBF" d="M41.149 69.38l.613 14.156h7.883c2.885 0 5.258-2.237 5.278-5.023v-4.426-.052c-.018-2.581-2.217-4.654-4.89-4.654h-8.884z"/>
    <path fill="#FFDFCF" d="M45.497 60.478c0 1.588-1.332 2.875-2.976 2.875-1.645 0-2.977-1.287-2.977-2.875v-5.687c0-1.588 1.333-2.876 2.977-2.876.822 0 1.566.322 2.105.843.538.52.871 1.239.871 2.033v5.687z"/>
    <path fill="#FFCEBF" d="M41.775 60.478v-5.687c0-1.207.77-2.24 1.862-2.667-.344-.134-.722-.209-1.116-.209-1.645 0-2.977 1.288-2.977 2.876v5.687c0 1.588 1.333 2.875 2.977 2.875.394 0 .77-.075 1.115-.21-1.092-.425-1.861-1.458-1.861-2.665z"/>
    <path fill="#FFDFCF" d="M51.45 61.407c0 1.588-1.331 2.875-2.976 2.875-1.644 0-2.976-1.287-2.976-2.875V55.72c0-1.588 1.332-2.876 2.976-2.876.823 0 1.567.322 2.105.843.539.52.872 1.239.872 2.033v5.687z"/>
    <path fill="#FFCEBF" d="M47.728 61.407V55.72c0-1.207.771-2.24 1.863-2.667-.345-.135-.722-.209-1.117-.209-1.644 0-2.976 1.288-2.976 2.876v5.687c0 1.588 1.332 2.875 2.976 2.875.395 0 .771-.075 1.116-.21-1.092-.425-1.862-1.458-1.862-2.665zM42.606 99.498h3.591l-.005-15.819-4.644-5.08.256 5.909v14.188c0 .442.36.802.802.802z"/>
    <path fill="#FFDFCF" d="M57.404 62.196c0 1.588-1.332 2.874-2.976 2.874s-2.976-1.286-2.976-2.874v-5.688c0-1.588 1.332-2.875 2.976-2.875.822 0 1.567.321 2.105.842.538.52.871 1.24.871 2.033v5.688z"/>
    <path fill="#FFCEBF" d="M53.682 62.196v-5.688c0-1.207.771-2.24 1.863-2.666-.345-.135-.722-.21-1.117-.21-1.644 0-2.976 1.288-2.976 2.876v5.688c0 1.588 1.332 2.874 2.976 2.874.395 0 .772-.074 1.117-.209-1.092-.426-1.863-1.458-1.863-2.665z"/>
    <path fill="#FFDFCF" d="M49.56 68.334l1.978 2.3c.834.97 1.29 2.191 1.29 3.453v4.368c0 3.343-2.805 6.053-6.266 6.053h-4.758v-.181l-8.278-9.057c-2.394-2.62-2.929-6.37-1.358-9.516l2.26-4.527c1.13-2.265 3.988-3.162 6.282-1.974l9.425 4.888c.365.189.662.465.87.795.21.33.328.71.336 1.11.017.829-.448 1.596-1.205 1.989l-.576.3z"/>
    <path fill="#FFCEBF" d="M51.676 64.54c-.284-.448-.688-.818-1.17-1.067l-10.19-5.327c-.062-.032-.126-.054-.19-.07l-.322.615c-.055.104-.173.163-.29.138-2.012-.421-4.146.515-5.086 2.398l-2.26 4.527c-1.57 3.147-1.036 6.897 1.358 9.516l8.278 9.057v.181h4.388v-.03c0-.514-.194-1.01-.544-1.394l-7.726-8.452c-2.394-2.62-2.929-6.37-1.358-9.516l2.26-4.527c.143-.288.315-.552.509-.794.143-.178.397-.23.602-.123l9.829 5.137c.235.122.432.303.571.522.139.22.215.472.22.73.011.547-.292 1.047-.79 1.306l-1.236.642c-1.757.912-3.87.944-5.655.085l-2.858-1.377c-.388-.187-.86-.035-1.053.34-.194.375-.036.83.352 1.018l2.858 1.376c1.084.522 2.264.782 3.443.782 1.26 0 2.518-.296 3.657-.888l1.235-.642c1.02-.53 1.64-1.553 1.618-2.672-.011-.527-.167-1.042-.45-1.49z"/>
    <path fill="#D78878" d="M79.922 49.079c-.317-.514-.769-.937-1.306-1.223L67.232 41.76c-.069-.037-.14-.062-.213-.08l-.359.704c-.06.119-.193.186-.324.158-2.247-.482-4.631.589-5.68 2.744l-2.525 5.182c-1.755 3.601-1.157 7.893 1.517 10.891l9.247 10.366v.207h4.901v-.034c0-.588-.216-1.156-.608-1.595l-8.63-9.674c-2.674-2.999-3.272-7.29-1.517-10.892l2.525-5.181c.16-.329.351-.632.568-.908.16-.204.444-.264.673-.142l10.979 5.88c.263.14.483.347.638.598.155.251.24.54.246.836.013.625-.326 1.197-.884 1.494l-1.38.735c-1.962 1.043-4.323 1.08-6.316.097l-3.193-1.576c-.433-.214-.96-.04-1.177.39-.216.428-.04.95.394 1.164l3.193 1.576c1.21.597 2.528.894 3.846.894 1.407 0 2.812-.339 4.084-1.016l1.38-.735c1.14-.606 1.833-1.777 1.808-3.058-.013-.603-.186-1.193-.503-1.706z"/>
    <path fill="#EB9C8D" d="M86.321 46.395c0 1.817-1.488 3.29-3.325 3.29-1.836 0-3.324-1.473-3.324-3.29v-6.51c0-1.817 1.488-3.29 3.325-3.29.918 0 1.75.367 2.35.964.602.595.974 1.418.974 2.326v6.51z"/>
    <path fill="#D78878" d="M82.163 46.395v-6.51c0-1.381.862-2.564 2.08-3.052-.384-.154-.806-.239-1.246-.239-1.837 0-3.325 1.474-3.325 3.291v6.51c0 1.817 1.488 3.29 3.325 3.29.44 0 .862-.085 1.247-.24-1.22-.487-2.081-1.669-2.081-3.05z"/>
    <path fill="#EB9C8D" d="M92.972 40.987v6.297c0 1.816-1.488 3.29-3.325 3.29-1.837 0-3.326-1.474-3.326-3.29v-6.297c0-1.817 1.49-3.291 3.326-3.291.918 0 1.75.368 2.352.964.6.595.973 1.418.973 2.327z"/>
    <path fill="#D78878" d="M88.813 47.284v-6.297c0-1.381.862-2.564 2.081-3.052-.385-.154-.806-.24-1.247-.24-1.836 0-3.326 1.475-3.326 3.292v6.297c0 1.816 1.49 3.29 3.326 3.29.441 0 .862-.085 1.247-.24-1.22-.487-2.081-1.67-2.081-3.05z"/>
    <path fill="#FF1833" stroke="#FF1833" stroke-linecap="round" stroke-linejoin="round" stroke-width="2" d="M114 43.75c10.355 0 18.75-8.395 18.75-18.75S124.355 6.25 114 6.25 95.25 14.645 95.25 25s8.395 18.75 18.75 18.75z"/>
    <path stroke="#fff" stroke-linecap="round" stroke-linejoin="round" stroke-width="2" d="M120.25 18.75l-12.5 12.5M107.75 18.75l12.5 12.5"/>
    <defs>
        <filter id="prefix__filter0_d" width="128" height="128" x="0" y="5" color-interpolation-filters="sRGB" filterUnits="userSpaceOnUse">
            <feFlood flood-opacity="0" result="BackgroundImageFix"/>
            <feColorMatrix in="SourceAlpha" values="0 0 0 0 0 0 0 0 0 0 0 0 0 0 0 0 0 0 127 0"/>
            <feOffset dx="2" dy="2"/>
            <feGaussianBlur stdDeviation="2"/>
            <feColorMatrix values="0 0 0 0 0.125903 0 0 0 0 0.136773 0 0 0 0 0.154167 0 0 0 0.25 0"/>
            <feBlend in2="BackgroundImageFix" result="effect1_dropShadow"/>
            <feBlend in="SourceGraphic" in2="effect1_dropShadow" result="shape"/>
        </filter>
    </defs>
</svg>
