<svg xmlns="http://www.w3.org/2000/svg" width="76" height="76" fill="none" viewBox="0 0 76 76">
    <path fill="#2C8DA8" d="M39.146 66.222v-7.863c0-1.386-.373-2.748-1.084-3.938-2.521-4.218-6.451-6.472-10.866-6.472s-8.344 2.254-10.866 6.472c-.71 1.19-1.084 2.552-1.084 3.938v7.863c0 .652.528 1.18 1.18 1.18h21.54c.651 0 1.18-.528 1.18-1.18z"/>
    <path fill="#125A6F" d="M39.146 58.36v7.862c0 .652-.528 1.18-1.18 1.18h-2.019V58.36c0-1.382-.37-2.742-1.079-3.929-2.212-3.706-5.51-5.898-9.27-6.378.524-.068 1.058-.102 1.598-.102 4.418 0 8.35 2.257 10.871 6.48.709 1.187 1.08 2.547 1.08 3.93z"/>
    <path fill="#D78878" d="M29.387 43.535v5.196c0 1.21-.98 2.191-2.19 2.191-1.212 0-2.193-.98-2.193-2.19v-5.197h4.383zM33.662 41.282c1.291 0 2.338-1.047 2.338-2.338 0-1.292-1.047-2.339-2.338-2.339-1.291 0-2.338 1.047-2.338 2.339 0 1.29 1.047 2.337 2.338 2.337zM20.73 41.282c1.291 0 2.338-1.047 2.338-2.338 0-1.292-1.047-2.339-2.338-2.339-1.291 0-2.338 1.047-2.338 2.339 0 1.29 1.047 2.337 2.338 2.337z"/>
    <path fill="#EB9C8D" d="M33.337 35.516v4.435c0 3.386-2.709 6.192-6.095 6.217-3.413.025-6.187-2.733-6.187-6.14v-4.512c0-3.392 2.75-6.14 6.141-6.14 1.696 0 3.23.687 4.342 1.798 1.111 1.112 1.799 2.646 1.799 4.342z"/>
    <path fill="#694B44" d="M30.009 39.524c-.49 0-.89-.397-.89-.886 0-.49.392-.886.881-.886h.009c.49 0 .886.397.886.886 0 .49-.397.886-.886.886zM24.393 39.524c-.49 0-.89-.397-.89-.886 0-.49.392-.886.881-.886h.009c.489 0 .885.397.885.886 0 .49-.396.886-.885.886z"/>
    <path fill="#125A6F" d="M21.054 60.459v6.944h-1.771v-6.944c0-.489.397-.886.886-.886s.885.397.885.886zM35.11 60.459v6.944h-1.772v-6.944c0-.489.397-.886.886-.886s.886.397.886.886z"/>
    <path fill="#FDE784" d="M36.012 31.814c-.481-2.834-2.067-4.224-3.66-4.897-.748-.317-1.557-.461-2.37-.461H24.41c-.812 0-1.621.144-2.37.46-1.592.674-3.178 2.064-3.659 4.898-.959 5.648 7.045 3.292 8.633 2.772.12-.04.247-.04.366 0 1.588.52 9.592 2.876 8.633-2.772z"/>
    <path fill="#FDD330" d="M36.012 31.814c-.481-2.834-2.067-4.224-3.659-4.898-.749-.316-1.558-.46-2.37-.46H26.35c.524 2.02 1.576 3.93 3.156 5.51.672.672 1.404 1.248 2.179 1.728.623.386.514 1.32-.18 1.556-.19.065-.391.117-.6.156 2.688.355 5.717.007 5.106-3.592z"/>
    <path fill="#F2B92C" d="M28.082 26.455v8.346c-.294-.084-.534-.16-.703-.215-.119-.04-.247-.04-.366 0-.169.055-.408.13-.703.215v-3.226c0-.735-.6-1.335-1.335-1.335-.489 0-.886-.396-.886-.886 0-.489.397-.885.886-.885.477 0 .93.108 1.335.302v-2.316h1.772z"/>
    <path fill="#FB4A59" d="M24.175 57.72V59.8c0 .327.265.592.592.592h4.858c.327 0 .592-.265.592-.592V57.72c0-.327-.265-.591-.592-.591h-4.858c-.327 0-.592.265-.592.591z"/>
    <path fill="#FF1833" d="M46.666 12.26c-4.731-4.73-12.428-4.73-17.159 0-4.73 4.73-4.73 12.427 0 17.158 2.366 2.365 5.473 3.548 8.58 3.548s6.213-1.183 8.579-3.548c4.73-4.73 4.73-12.428 0-17.158zm-13.712 3.446c1.414-1.416 3.274-2.123 5.133-2.123.76 0 1.519.122 2.248.361.414.136.533.667.224.976l-8.39 8.39c-.31.31-.843.187-.978-.23-.813-2.513-.23-5.382 1.762-7.374zm10.265 10.266c-1.992 1.992-4.86 2.576-7.373 1.762-.418-.135-.541-.668-.23-.978l8.387-8.388c.31-.31.843-.187.979.23.813 2.513.23 5.382-1.763 7.374z"/>
    <path fill="#C3000C" d="M46.666 29.418c-2.366 2.365-5.472 3.548-8.58 3.548-.635 0-1.27-.05-1.899-.15 2.447-.383 4.799-1.517 6.68-3.398 4.73-4.73 4.73-12.428 0-17.158-1.881-1.882-4.233-3.016-6.68-3.399 3.705-.583 7.63.55 10.479 3.399 4.73 4.73 4.73 12.428 0 17.158z"/>
    <path fill="#3F5959" d="M44.25 39.727c2.428 0 4.398-2.231 4.398-4.983s-1.97-4.983-4.399-4.983c-2.429 0-4.398 2.23-4.398 4.983 0 2.752 1.97 4.983 4.398 4.983z"/>
    <path fill="#FCB44D" d="M60.927 66.222v-7.863c0-1.386-.373-2.748-1.084-3.938-2.522-4.218-6.451-6.472-10.866-6.472s-8.344 2.254-10.866 6.472c-.711 1.19-1.084 2.552-1.084 3.938v7.863c0 .652.529 1.18 1.18 1.18h21.54c.652 0 1.18-.528 1.18-1.18z"/>
    <path fill="#FB9927" d="M60.927 58.359v7.863c0 .652-.528 1.18-1.18 1.18h-2.019V58.36c0-1.382-.37-2.742-1.079-3.929-2.212-3.706-5.51-5.898-9.27-6.378.524-.068 1.057-.102 1.598-.102 4.418 0 8.35 2.257 10.871 6.48.709 1.187 1.08 2.547 1.08 3.929zM42.86 60.459v6.944h-1.772v-6.944c0-.489.397-.886.886-.886s.886.397.886.886z"/>
    <path fill="#FB9927" d="M56.915 60.459v6.944h-1.772v-6.944c0-.489.397-.886.886-.886s.886.397.886.886z"/>
    <path fill="#D78878" d="M51.168 44.126v4.605c0 1.21-.98 2.191-2.19 2.191-1.212 0-2.193-.98-2.193-2.19v-4.606h4.383zM55.443 41.873c1.291 0 2.338-1.047 2.338-2.338 0-1.291-1.047-2.338-2.338-2.338-1.291 0-2.338 1.046-2.338 2.338 0 1.291 1.047 2.338 2.338 2.338zM42.51 41.873c1.292 0 2.339-1.047 2.339-2.338 0-1.291-1.047-2.338-2.338-2.338-1.291 0-2.338 1.046-2.338 2.338 0 1.291 1.047 2.338 2.338 2.338z"/>
    <path fill="#EB9C8D" d="M55.117 36.107v4.435c0 3.386-2.708 6.192-6.094 6.218-3.413.024-6.187-2.734-6.187-6.14v-4.513c0-3.391 2.75-6.14 6.141-6.14 1.696 0 3.23.687 4.342 1.798 1.111 1.112 1.798 2.647 1.798 4.342z"/>
    <path fill="#694B44" d="M51.79 40.115c-.49 0-.89-.397-.89-.886s.392-.885.881-.885h.009c.49 0 .886.396.886.885 0 .49-.397.886-.886.886zM46.174 40.115c-.49 0-.89-.397-.89-.886s.392-.885.881-.885h.009c.489 0 .885.396.885.885 0 .49-.396.886-.885.886z"/>
    <path fill="#FEE7C9" d="M60.306 55.33H37.647c.133-.309.285-.609.459-.9.179-.3.366-.591.56-.872h20.621c.195.28.382.571.561.873.174.29.326.59.458.898zM60.925 58.253H37.03c.007-.6.084-1.194.229-1.771h23.436c.146.577.223 1.171.23 1.771zM37.027 61.064h23.9v1.771h-23.9v-1.771zM37.027 63.988h23.9v1.771h-23.9v-1.771z"/>
    <path fill="#FFD597" d="M60.306 55.33h-3.199c-.132-.309-.284-.609-.458-.9-.18-.3-.366-.591-.56-.872h3.198c.195.28.382.571.561.873.174.29.326.59.458.898zM60.925 58.253h-3.199c-.007-.6-.085-1.194-.23-1.771h3.199c.146.577.223 1.171.23 1.771zM41.088 61.064h1.772v1.771h-1.772v-1.771zM55.143 61.064h1.772v1.771h-1.772v-1.771zM57.728 61.064h3.2v1.771h-3.2v-1.771zM41.088 63.988h1.772v1.771h-1.772v-1.771zM55.143 63.988h1.772v1.771h-1.772v-1.771zM57.728 63.988h3.2v1.771h-3.2v-1.771z"/>
    <path fill="#557983" d="M56.483 30.27c-.173-.22-.172-.534.012-.746.486-.561.692-1.14.524-1.652-.424-1.284-10.16-3.113-12.501 1.27-1.193 2.234 1.783 6.23 5.17 7.252 3.386 1.022 6.794-.076 7.612-2.453.42-1.22.075-2.538-.817-3.672z"/>
    <path fill="#3F5959" d="M57.3 33.942c-.819 2.376-4.227 3.474-7.613 2.453-.233-.07-.464-.155-.692-.252 2.594.136 4.86-.944 5.506-2.824.393-1.14.116-2.369-.651-3.45-.253-.355-.244-.825.014-1.176.364-.495.504-.994.356-1.442-.082-.249-.51-.516-1.166-.756 2.106.252 3.793.86 3.965 1.377.168.512-.038 1.09-.524 1.652-.184.212-.185.525-.012.745.892 1.134 1.237 2.453.817 3.673z"/>
</svg>
