<svg xmlns="http://www.w3.org/2000/svg" width="157" height="53" fill="none" viewBox="0 0 157 53">
    <path fill="#202327" d="M149.913 35.263c0 .942.33 1.766.992 2.473.709.66 1.559.99 2.551.99.945 0 1.749-.33 2.41-.99.709-.66 1.087-1.46 1.134-2.403v-21.2c0-.989-.354-1.813-1.063-2.473-.662-.707-1.488-1.06-2.481-1.06-.992 0-1.842.353-2.551 1.06-.662.66-.992 1.484-.992 2.473v21.13zM157 3.533c0-.989-.354-1.813-1.063-2.473-.662-.707-1.488-1.06-2.481-1.06-.992 0-1.819.353-2.48 1.06-.709.66-1.063 1.484-1.063 2.473 0 .99.354 1.814 1.063 2.474l2.48 2.544 2.481-2.544c.709-.66 1.063-1.484 1.063-2.474zM21.262 24.733v10.671c0 .99.331 1.837.992 2.544.71.707 1.56 1.06 2.552 1.06s1.819-.353 2.48-1.06c.71-.707 1.064-1.555 1.064-2.544V24.451c0-.33.07-.872.212-1.626.19-.753.52-1.507.992-2.261.52-.754 1.229-1.413 2.127-1.979.945-.612 2.197-.918 3.756-.918 1.748 0 3.095.353 4.04 1.06.992.706 1.7 1.507 2.126 2.402.473.848.733 1.65.78 2.403.094.754.142 1.154.142 1.201v10.6c0 .99.33 1.838.992 2.544.708.66 1.559.99 2.551.99.992 0 1.82-.33 2.48-.99.71-.706 1.064-1.554 1.064-2.544v-10.6c-.142-2.638-.733-4.993-1.772-7.066-.425-.895-.992-1.767-1.701-2.615-.661-.848-1.488-1.602-2.48-2.261-.993-.66-2.174-1.178-3.544-1.555-1.37-.424-2.93-.636-4.678-.636-2.646 0-4.82.448-6.52 1.343-1.701.848-3.072 1.884-4.111 3.109-1.087-1.225-2.48-2.261-4.182-3.11-1.653-.894-3.803-1.342-6.45-1.342-1.795 0-3.377.212-4.748.636-1.323.377-2.48.895-3.473 1.555-.992.66-1.842 1.413-2.551 2.261-.662.848-1.205 1.72-1.63 2.615C.732 19.74.142 22.095 0 24.733v10.6c0 .99.33 1.838.992 2.544.709.66 1.56.99 2.552.99s1.819-.33 2.48-.99c.709-.706 1.063-1.554 1.063-2.544v-10.6c.048-1.319.331-2.497.85-3.533.426-.895 1.111-1.696 2.056-2.403.992-.753 2.386-1.13 4.182-1.13 1.748 0 3.095.353 4.04 1.06.992.706 1.7 1.507 2.126 2.402.472.848.732 1.65.78 2.403.094.754.141 1.154.141 1.201z"/>
    <path fill="#202327" fill-rule="evenodd" d="M85.063 49.467c0 .989.33 1.813.992 2.473.709.707 1.56 1.06 2.551 1.06.993 0 1.82-.353 2.481-1.06.709-.66 1.063-1.484 1.063-2.473v-10.6h7.088c1.748 0 3.307-.189 4.677-.566 1.371-.424 2.552-.965 3.544-1.625s1.819-1.413 2.481-2.261c.708-.848 1.275-1.72 1.701-2.615 1.039-2.073 1.771-4.222 1.771-7.067 0-2.845-.732-4.993-1.771-7.066-.426-.895-.993-1.767-1.701-2.615-.662-.848-1.489-1.602-2.481-2.261-.992-.66-2.173-1.178-3.544-1.555-1.37-.424-2.929-.636-4.677-.636-1.796 0-3.379.212-4.749.636-1.323.377-2.48.895-3.473 1.555-.992.66-1.843 1.413-2.551 2.261-.662.848-1.205 1.72-1.63 2.615-1.04 2.073-1.63 4.428-1.772 7.066v24.734zm9.993-30.67c.992-.753 2.386-1.13 4.182-1.13 1.795 0 3.142.377 4.039 1.13.945.707 1.654 1.508 2.127 2.403.519 1.036.827 2.214.921 3.533-.094 1.32-.402 2.497-.921 3.534-.473.895-1.182 1.72-2.127 2.473-.897.707-2.244 1.06-4.04 1.06H92.15v-7.067c.047-1.319.33-2.497.85-3.533.426-.895 1.111-1.696 2.056-2.403zM116.97 49.467V24.733c.142-2.638.732-4.993 1.772-7.066.425-.895.968-1.767 1.63-2.615.709-.848 1.559-1.602 2.551-2.261.993-.66 2.15-1.178 3.473-1.555 1.37-.424 2.953-.636 4.749-.636 1.748 0 3.307.212 4.677.636 1.371.377 2.552.895 3.544 1.555.992.66 1.819 1.413 2.481 2.261.709.848 1.276 1.72 1.701 2.615 1.039 2.073 1.772 4.221 1.772 7.066 0 2.845-.733 4.994-1.772 7.067-.425.895-.992 1.767-1.701 2.615-.662.848-1.489 1.601-2.481 2.261-.992.66-2.173 1.201-3.544 1.625-1.37.377-2.929.566-4.677.566h-7.088v10.6c0 .989-.354 1.813-1.063 2.473-.661.707-1.488 1.06-2.48 1.06-.993 0-1.843-.353-2.552-1.06-.661-.66-.992-1.484-.992-2.473zm14.175-31.8c-1.796 0-3.19.377-4.182 1.13-.945.707-1.63 1.508-2.055 2.403-.52 1.036-.803 2.214-.851 3.533V31.8h7.088c1.795 0 3.142-.353 4.04-1.06.945-.754 1.653-1.578 2.126-2.473.52-1.037.827-2.215.921-3.534-.094-1.319-.401-2.497-.921-3.533-.473-.895-1.181-1.696-2.126-2.403-.898-.753-2.245-1.13-4.04-1.13z" clip-rule="evenodd"/>
</svg>
