<svg xmlns="http://www.w3.org/2000/svg" width="84" height="84" fill="none" viewBox="0 0 84 84">
    <path fill="#E4CE00" d="M33.147 33.334l-7.458-2.97-2.719-.42-5.683 4.14.589 1.909 7.51 2.9h.002l3.019-.33 5.035-3.77-.295-1.459z"/>
    <path fill="#636871" d="M25.689 30.363L22.9 32.396l-5.024 3.597-1.05-.405s-4.526-1.6-4.365-1.761c.162-.162 8.772-5.273 8.772-5.273l4.456 1.81z"/>
    <path fill="#91969F" d="M11.812 13.109h5.015v59.277h-5.015V13.11z"/>
    <path fill="#393E46" d="M11.812 13.109h3.014v59.277h-3.014V13.11z"/>
    <path fill="#E4CE00" d="M67.3 46.52l-7.535-2.91s-2.208-.039-2.278 0c-.07.04-5.178 3.656-5.178 3.656l-.304 1.904.311.12 14.596 5.524 4.528-6.511-4.14-1.783zM50.21 39.922l-7.51-2.9h-2.549l-6.107 4.12.897 1.439 7.509 2.9h.001l4.035-.935 4.233-3.655-.508-.969z"/>
    <path fill="#636871" d="M59.764 43.61l-7.759 5.56h-.001L42.45 45.48l7.76-5.559 9.553 3.689zM42.7 37.023l-7.76 5.558-9.552-3.687 7.759-5.56 9.553 3.689z"/>
    <path fill="#91969F" d="M18.53 74.31h-8.42c-.266 0-.481-.215-.481-.48v-2.993c0-.963.78-1.743 1.742-1.743h5.897c.962 0 1.742.78 1.742 1.743v2.993c0 .265-.215.48-.48.48z"/>
    <path fill="#FF1833" d="M14.32 18.288c2.356 0 4.266-1.91 4.266-4.266s-1.91-4.266-4.267-4.266c-2.356 0-4.266 1.91-4.266 4.266s1.91 4.266 4.266 4.266z"/>
    <path fill="#91969F" d="M67.3 13.34h5.014V72.3H67.3V13.339z"/>
    <path fill="#393E46" d="M67.3 13.34h3.014V72.3H67.3V13.34z"/>
    <path fill="#FF1833" d="M69.807 18.288c2.357 0 4.267-1.91 4.267-4.266s-1.91-4.266-4.267-4.266c-2.356 0-4.266 1.91-4.266 4.266s1.91 4.266 4.266 4.266z"/>
    <path fill="#C3000C" d="M13.963 14.022c0-1.651.941-3.083 2.313-3.792-.585-.303-1.252-.474-1.957-.474-2.356 0-4.266 1.91-4.266 4.266s1.91 4.266 4.266 4.266c.705 0 1.372-.171 1.958-.474-1.372-.71-2.314-2.14-2.314-3.792zM69.451 14.022c0-1.651.94-3.083 2.313-3.792-.586-.303-1.252-.474-1.957-.474-2.356 0-4.266 1.91-4.266 4.266s1.91 4.267 4.266 4.267c.705 0 1.371-.172 1.957-.475-1.372-.71-2.313-2.14-2.313-3.792z"/>
    <path fill="#91969F" d="M71.927 24.229h-5.015l-2.135 1.152-3.37 4.766.268 2.061h10.252c.7 0 1.267-.568 1.267-1.267v-5.446c0-.699-.566-1.266-1.267-1.266zM58.861 24.229H48.62l-1.534.606-4.018 5.954.316 1.42h10.24l3.805-2.313 2.51-4.98-1.078-.687zM40.57 24.229H30.33l-1.901.586-3.698 6.247.362 1.146h10.24l3.046-1.712 2.886-5.401-.695-.866zM22.28 24.229H12.2c-.7 0-1.267.567-1.267 1.266v5.446c0 .7.566 1.267 1.267 1.267h4.841l3.687-2.008 2.957-4.886-1.406-1.085z"/>
    <path fill="#FFE600" d="M66.912 24.229l-5.238 7.98h-8.05l5.237-7.98h8.051zM48.62 24.229l-5.236 7.98h-8.052l5.238-7.98h8.05zM30.33 24.229l-5.237 7.98H17.04l5.238-7.98h8.05zM22.28 49.29H12.2c-.7 0-1.267.567-1.267 1.267v5.445c0 .7.566 1.268 1.267 1.268h4.841l3.713-2.293 3.15-5.092-1.625-.595zM40.57 49.29H30.33l-2.36 1.25-3.737 5.801.86.93h10.24l3.849-1.388 3.163-5.984-1.775-.61zM58.861 49.29H48.62l-2.574 1.27-3.7 5.746 1.038.965h10.24l2.86-.764 3.136-5.094-.759-2.123zM71.927 49.29h-5.015l-3.611 2.19-2.185 4.495.559 1.295h10.252c.7 0 1.267-.567 1.267-1.268v-5.446c0-.699-.566-1.266-1.267-1.266z"/>
    <path fill="#91969F" d="M30.33 49.29l-5.237 7.98H17.04l5.238-7.98h8.05zM48.62 49.29l-5.236 7.98h-8.052l5.238-7.98h8.05zM66.912 49.29l-5.238 7.98h-8.05l5.237-7.98h8.051zM65.78 74.31h8.054c.366 0 .664-.297.664-.664v-2.81c0-.961-.78-1.742-1.743-1.742H66.86c-.962 0-1.742.78-1.742 1.743v2.81c0 .366.297.663.664.663z"/>
</svg>
