<svg width="1440" height="1024" viewBox="0 0 1440 1024" fill="none" xmlns="http://www.w3.org/2000/svg">
<rect width="1440" height="1024" fill="#FFF9F9"/>
<path opacity="0.1" d="M797.047 516.157C797.047 516.157 798.503 521.25 800.449 524.163C802.394 527.076 805.31 537.507 805.31 537.507" stroke="black" stroke-miterlimit="10"/>
<path opacity="0.1" d="M799.685 494.176C799.685 494.176 807.7 496.338 811.05 501.577C814.401 506.816 824.636 511.567 824.636 511.567" stroke="black" stroke-miterlimit="10"/>
<path opacity="0.1" d="M803.122 468.364C803.122 468.364 803.122 479.524 806.282 479.524C809.442 479.524 816.492 480.737 816.492 480.737" stroke="black" stroke-miterlimit="10"/>
<rect x="850" y="650" width="448" height="68" rx="16" fill="#FF1833"/>
<path d="M986.984 673.139L977.056 697.5H974.098L964.17 673.139H966.805C967.1 673.139 967.338 673.213 967.519 673.36C967.701 673.507 967.837 673.694 967.927 673.921L974.795 691.108C974.943 691.493 975.084 691.913 975.22 692.366C975.368 692.819 975.498 693.295 975.611 693.794C975.725 693.295 975.844 692.819 975.968 692.366C976.093 691.913 976.229 691.493 976.376 691.108L983.227 673.921C983.295 673.728 983.426 673.553 983.618 673.394C983.822 673.224 984.066 673.139 984.349 673.139H986.984ZM994.427 680.007C995.685 680.007 996.819 680.217 997.827 680.636C998.836 681.055 999.697 681.65 1000.41 682.421C1001.13 683.192 1001.67 684.127 1002.04 685.226C1002.43 686.314 1002.62 687.532 1002.62 688.881C1002.62 690.241 1002.43 691.465 1002.04 692.553C1001.67 693.641 1001.13 694.57 1000.41 695.341C999.697 696.112 998.836 696.707 997.827 697.126C996.819 697.534 995.685 697.738 994.427 697.738C993.158 697.738 992.013 697.534 990.993 697.126C989.985 696.707 989.123 696.112 988.409 695.341C987.695 694.57 987.146 693.641 986.76 692.553C986.386 691.465 986.199 690.241 986.199 688.881C986.199 687.532 986.386 686.314 986.76 685.226C987.146 684.127 987.695 683.192 988.409 682.421C989.123 681.65 989.985 681.055 990.993 680.636C992.013 680.217 993.158 680.007 994.427 680.007ZM994.427 695.375C996.127 695.375 997.397 694.808 998.235 693.675C999.074 692.53 999.493 690.938 999.493 688.898C999.493 686.847 999.074 685.249 998.235 684.104C997.397 682.959 996.127 682.387 994.427 682.387C993.566 682.387 992.812 682.534 992.166 682.829C991.532 683.124 990.999 683.549 990.568 684.104C990.149 684.659 989.832 685.345 989.616 686.161C989.412 686.966 989.31 687.878 989.31 688.898C989.31 690.938 989.73 692.53 990.568 693.675C991.418 694.808 992.705 695.375 994.427 695.375ZM1009.84 672.459V697.5H1006.81V672.459H1009.84ZM1029.75 680.279L1022.73 697.5H1020.01L1012.99 680.279H1015.45C1015.7 680.279 1015.91 680.341 1016.07 680.466C1016.22 680.591 1016.33 680.738 1016.39 680.908L1020.76 691.992C1020.89 692.411 1021.01 692.819 1021.11 693.216C1021.22 693.613 1021.31 694.009 1021.4 694.406C1021.49 694.009 1021.59 693.613 1021.69 693.216C1021.79 692.819 1021.92 692.411 1022.07 691.992L1026.49 680.908C1026.55 680.727 1026.67 680.579 1026.83 680.466C1026.99 680.341 1027.17 680.279 1027.39 680.279H1029.75ZM1043.84 687.011C1043.84 686.308 1043.74 685.668 1043.53 685.09C1043.34 684.501 1043.05 683.996 1042.66 683.577C1042.29 683.146 1041.83 682.818 1041.29 682.591C1040.74 682.353 1040.13 682.234 1039.43 682.234C1037.98 682.234 1036.83 682.659 1035.98 683.509C1035.14 684.348 1034.62 685.515 1034.42 687.011H1043.84ZM1046.29 695.086C1045.91 695.539 1045.46 695.936 1044.94 696.276C1044.42 696.605 1043.86 696.877 1043.26 697.092C1042.67 697.307 1042.06 697.466 1041.42 697.568C1040.79 697.681 1040.16 697.738 1039.54 697.738C1038.35 697.738 1037.25 697.54 1036.24 697.143C1035.24 696.735 1034.37 696.146 1033.64 695.375C1032.91 694.593 1032.35 693.63 1031.94 692.485C1031.53 691.34 1031.33 690.026 1031.33 688.541C1031.33 687.34 1031.51 686.218 1031.87 685.175C1032.24 684.132 1032.78 683.231 1033.47 682.472C1034.16 681.701 1035 681.101 1036 680.67C1037 680.228 1038.12 680.007 1039.37 680.007C1040.4 680.007 1041.35 680.183 1042.22 680.534C1043.11 680.874 1043.87 681.373 1044.5 682.03C1045.15 682.676 1045.65 683.481 1046.01 684.444C1046.38 685.396 1046.56 686.484 1046.56 687.708C1046.56 688.184 1046.51 688.501 1046.4 688.66C1046.3 688.819 1046.11 688.898 1045.83 688.898H1034.32C1034.35 689.986 1034.5 690.932 1034.76 691.737C1035.03 692.542 1035.41 693.216 1035.88 693.76C1036.36 694.293 1036.92 694.695 1037.58 694.967C1038.24 695.228 1038.98 695.358 1039.79 695.358C1040.55 695.358 1041.2 695.273 1041.75 695.103C1042.3 694.922 1042.78 694.729 1043.17 694.525C1043.57 694.321 1043.9 694.134 1044.16 693.964C1044.43 693.783 1044.66 693.692 1044.86 693.692C1045.11 693.692 1045.3 693.788 1045.44 693.981L1046.29 695.086ZM1053.4 683.73C1053.94 682.551 1054.61 681.633 1055.4 680.976C1056.2 680.307 1057.17 679.973 1058.31 679.973C1058.67 679.973 1059.02 680.013 1059.35 680.092C1059.69 680.171 1059.99 680.296 1060.25 680.466L1060.03 682.727C1059.96 683.01 1059.79 683.152 1059.52 683.152C1059.36 683.152 1059.13 683.118 1058.82 683.05C1058.51 682.982 1058.17 682.948 1057.78 682.948C1057.24 682.948 1056.75 683.027 1056.32 683.186C1055.9 683.345 1055.52 683.583 1055.18 683.9C1054.85 684.206 1054.55 684.591 1054.28 685.056C1054.02 685.509 1053.78 686.031 1053.57 686.62V697.5H1050.52V680.279H1052.26C1052.59 680.279 1052.81 680.341 1052.94 680.466C1053.06 680.591 1053.15 680.806 1053.19 681.112L1053.4 683.73ZM1080.71 689.748C1079.32 689.793 1078.13 689.907 1077.14 690.088C1076.17 690.258 1075.37 690.485 1074.74 690.768C1074.13 691.051 1073.68 691.386 1073.4 691.771C1073.13 692.156 1072.99 692.587 1072.99 693.063C1072.99 693.516 1073.07 693.907 1073.21 694.236C1073.36 694.565 1073.56 694.837 1073.81 695.052C1074.07 695.256 1074.37 695.409 1074.71 695.511C1075.06 695.602 1075.43 695.647 1075.83 695.647C1076.36 695.647 1076.85 695.596 1077.29 695.494C1077.74 695.381 1078.15 695.222 1078.53 695.018C1078.93 694.814 1079.31 694.57 1079.66 694.287C1080.02 694.004 1080.37 693.681 1080.71 693.318V689.748ZM1070.94 682.71C1071.89 681.792 1072.91 681.106 1074.01 680.653C1075.11 680.2 1076.33 679.973 1077.67 679.973C1078.63 679.973 1079.49 680.132 1080.23 680.449C1080.98 680.766 1081.61 681.208 1082.12 681.775C1082.63 682.342 1083.02 683.027 1083.28 683.832C1083.54 684.637 1083.67 685.521 1083.67 686.484V697.5H1082.33C1082.03 697.5 1081.8 697.455 1081.65 697.364C1081.49 697.262 1081.36 697.069 1081.27 696.786L1080.93 695.154C1080.48 695.573 1080.04 695.947 1079.61 696.276C1079.17 696.593 1078.72 696.865 1078.25 697.092C1077.77 697.307 1077.26 697.472 1076.72 697.585C1076.18 697.71 1075.59 697.772 1074.93 697.772C1074.26 697.772 1073.63 697.681 1073.04 697.5C1072.45 697.307 1071.94 697.024 1071.5 696.65C1071.07 696.276 1070.72 695.806 1070.46 695.239C1070.21 694.661 1070.09 693.981 1070.09 693.199C1070.09 692.519 1070.27 691.867 1070.65 691.244C1071.02 690.609 1071.63 690.048 1072.47 689.561C1073.3 689.074 1074.4 688.677 1075.75 688.371C1077.1 688.054 1078.75 687.872 1080.71 687.827V686.484C1080.71 685.147 1080.42 684.138 1079.84 683.458C1079.27 682.767 1078.42 682.421 1077.31 682.421C1076.56 682.421 1075.93 682.517 1075.42 682.71C1074.92 682.891 1074.49 683.101 1074.11 683.339C1073.75 683.566 1073.43 683.775 1073.16 683.968C1072.9 684.149 1072.64 684.24 1072.38 684.24C1072.18 684.24 1072 684.189 1071.85 684.087C1071.71 683.974 1071.58 683.838 1071.48 683.679L1070.94 682.71ZM1091.66 672.459V697.5H1088.63V672.459H1091.66ZM1105.76 697.5V680.279H1107.58C1108.01 680.279 1108.28 680.489 1108.38 680.908L1108.6 682.676C1109.24 681.894 1109.95 681.254 1110.74 680.755C1111.54 680.256 1112.45 680.007 1113.5 680.007C1114.65 680.007 1115.59 680.33 1116.3 680.976C1117.03 681.622 1117.55 682.495 1117.87 683.594C1118.12 682.971 1118.43 682.432 1118.82 681.979C1119.21 681.526 1119.66 681.152 1120.14 680.857C1120.63 680.562 1121.15 680.347 1121.69 680.211C1122.25 680.075 1122.81 680.007 1123.37 680.007C1124.28 680.007 1125.09 680.154 1125.79 680.449C1126.5 680.732 1127.1 681.152 1127.59 681.707C1128.09 682.262 1128.47 682.948 1128.73 683.764C1128.99 684.569 1129.12 685.492 1129.12 686.535V697.5H1126.08V686.535C1126.08 685.186 1125.78 684.166 1125.19 683.475C1124.6 682.772 1123.75 682.421 1122.64 682.421C1122.14 682.421 1121.67 682.512 1121.22 682.693C1120.77 682.863 1120.38 683.118 1120.04 683.458C1119.7 683.798 1119.43 684.229 1119.23 684.75C1119.03 685.26 1118.94 685.855 1118.94 686.535V697.5H1115.89V686.535C1115.89 685.152 1115.62 684.121 1115.06 683.441C1114.51 682.761 1113.7 682.421 1112.63 682.421C1111.88 682.421 1111.19 682.625 1110.56 683.033C1109.92 683.43 1109.34 683.974 1108.81 684.665V697.5H1105.76ZM1143.3 689.748C1141.91 689.793 1140.72 689.907 1139.73 690.088C1138.76 690.258 1137.96 690.485 1137.34 690.768C1136.72 691.051 1136.28 691.386 1135.99 691.771C1135.72 692.156 1135.58 692.587 1135.58 693.063C1135.58 693.516 1135.66 693.907 1135.81 694.236C1135.95 694.565 1136.15 694.837 1136.4 695.052C1136.66 695.256 1136.96 695.409 1137.3 695.511C1137.65 695.602 1138.03 695.647 1138.42 695.647C1138.96 695.647 1139.44 695.596 1139.89 695.494C1140.33 695.381 1140.74 695.222 1141.13 695.018C1141.52 694.814 1141.9 694.57 1142.25 694.287C1142.61 694.004 1142.96 693.681 1143.3 693.318V689.748ZM1133.53 682.71C1134.48 681.792 1135.5 681.106 1136.6 680.653C1137.7 680.2 1138.92 679.973 1140.26 679.973C1141.22 679.973 1142.08 680.132 1142.83 680.449C1143.57 680.766 1144.2 681.208 1144.71 681.775C1145.22 682.342 1145.61 683.027 1145.87 683.832C1146.13 684.637 1146.26 685.521 1146.26 686.484V697.5H1144.92C1144.62 697.5 1144.4 697.455 1144.24 697.364C1144.08 697.262 1143.95 697.069 1143.86 696.786L1143.52 695.154C1143.07 695.573 1142.63 695.947 1142.2 696.276C1141.77 696.593 1141.31 696.865 1140.84 697.092C1140.36 697.307 1139.85 697.472 1139.31 697.585C1138.77 697.71 1138.18 697.772 1137.52 697.772C1136.85 697.772 1136.22 697.681 1135.64 697.5C1135.05 697.307 1134.53 697.024 1134.09 696.65C1133.66 696.276 1133.31 695.806 1133.05 695.239C1132.8 694.661 1132.68 693.981 1132.68 693.199C1132.68 692.519 1132.86 691.867 1133.24 691.244C1133.61 690.609 1134.22 690.048 1135.06 689.561C1135.9 689.074 1136.99 688.677 1138.34 688.371C1139.69 688.054 1141.34 687.872 1143.3 687.827V686.484C1143.3 685.147 1143.01 684.138 1142.44 683.458C1141.86 682.767 1141.01 682.421 1139.9 682.421C1139.15 682.421 1138.53 682.517 1138.02 682.71C1137.52 682.891 1137.08 683.101 1136.71 683.339C1136.34 683.566 1136.03 683.775 1135.75 683.968C1135.49 684.149 1135.23 684.24 1134.97 684.24C1134.77 684.24 1134.59 684.189 1134.45 684.087C1134.3 683.974 1134.17 683.838 1134.07 683.679L1133.53 682.71ZM1154.16 693.352C1154.72 694.1 1155.32 694.627 1155.98 694.933C1156.64 695.239 1157.38 695.392 1158.19 695.392C1159.8 695.392 1161.04 694.82 1161.9 693.675C1162.76 692.53 1163.19 690.898 1163.19 688.779C1163.19 687.657 1163.09 686.694 1162.88 685.889C1162.69 685.084 1162.41 684.427 1162.03 683.917C1161.66 683.396 1161.2 683.016 1160.66 682.778C1160.11 682.54 1159.49 682.421 1158.8 682.421C1157.82 682.421 1156.95 682.648 1156.2 683.101C1155.47 683.554 1154.79 684.195 1154.16 685.022V693.352ZM1154.01 682.948C1154.73 682.053 1155.57 681.333 1156.53 680.789C1157.48 680.245 1158.57 679.973 1159.79 679.973C1160.79 679.973 1161.69 680.166 1162.49 680.551C1163.3 680.925 1163.98 681.486 1164.55 682.234C1165.12 682.971 1165.55 683.889 1165.86 684.988C1166.16 686.087 1166.32 687.351 1166.32 688.779C1166.32 690.048 1166.15 691.233 1165.81 692.332C1165.47 693.42 1164.97 694.366 1164.33 695.171C1163.69 695.964 1162.91 696.593 1161.98 697.058C1161.06 697.511 1160.03 697.738 1158.87 697.738C1157.82 697.738 1156.91 697.562 1156.15 697.211C1155.4 696.848 1154.74 696.35 1154.16 695.715V703.331H1151.12V680.279H1152.94C1153.37 680.279 1153.64 680.489 1153.74 680.908L1154.01 682.948ZM1179.76 689.748C1178.37 689.793 1177.18 689.907 1176.19 690.088C1175.22 690.258 1174.42 690.485 1173.79 690.768C1173.18 691.051 1172.73 691.386 1172.45 691.771C1172.18 692.156 1172.04 692.587 1172.04 693.063C1172.04 693.516 1172.12 693.907 1172.26 694.236C1172.41 694.565 1172.61 694.837 1172.86 695.052C1173.12 695.256 1173.42 695.409 1173.76 695.511C1174.11 695.602 1174.49 695.647 1174.88 695.647C1175.41 695.647 1175.9 695.596 1176.34 695.494C1176.79 695.381 1177.2 695.222 1177.59 695.018C1177.98 694.814 1178.36 694.57 1178.71 694.287C1179.07 694.004 1179.42 693.681 1179.76 693.318V689.748ZM1169.99 682.71C1170.94 681.792 1171.96 681.106 1173.06 680.653C1174.16 680.2 1175.38 679.973 1176.72 679.973C1177.68 679.973 1178.54 680.132 1179.29 680.449C1180.03 680.766 1180.66 681.208 1181.17 681.775C1181.68 682.342 1182.07 683.027 1182.33 683.832C1182.59 684.637 1182.72 685.521 1182.72 686.484V697.5H1181.38C1181.08 697.5 1180.85 697.455 1180.7 697.364C1180.54 697.262 1180.41 697.069 1180.32 696.786L1179.98 695.154C1179.53 695.573 1179.09 695.947 1178.66 696.276C1178.23 696.593 1177.77 696.865 1177.3 697.092C1176.82 697.307 1176.31 697.472 1175.77 697.585C1175.23 697.71 1174.64 697.772 1173.98 697.772C1173.31 697.772 1172.68 697.681 1172.09 697.5C1171.5 697.307 1170.99 697.024 1170.55 696.65C1170.12 696.276 1169.77 695.806 1169.51 695.239C1169.26 694.661 1169.14 693.981 1169.14 693.199C1169.14 692.519 1169.32 691.867 1169.7 691.244C1170.07 690.609 1170.68 690.048 1171.52 689.561C1172.35 689.074 1173.45 688.677 1174.8 688.371C1176.15 688.054 1177.8 687.872 1179.76 687.827V686.484C1179.76 685.147 1179.47 684.138 1178.89 683.458C1178.32 682.767 1177.47 682.421 1176.36 682.421C1175.61 682.421 1174.98 682.517 1174.47 682.71C1173.98 682.891 1173.54 683.101 1173.17 683.339C1172.8 683.566 1172.49 683.775 1172.21 683.968C1171.95 684.149 1171.69 684.24 1171.43 684.24C1171.23 684.24 1171.05 684.189 1170.9 684.087C1170.76 683.974 1170.63 683.838 1170.53 683.679L1169.99 682.71Z" fill="#FFF9F9"/>
<path d="M869.388 404.372C871.836 404.372 874.02 403.952 875.94 403.112C877.884 402.248 879.528 401.06 880.872 399.548C882.216 398.036 883.236 396.26 883.932 394.22C884.652 392.156 885.012 389.936 885.012 387.56V356.06H888.684V387.56C888.684 390.368 888.24 392.996 887.352 395.444C886.464 397.868 885.18 399.992 883.5 401.816C881.844 403.616 879.816 405.032 877.416 406.064C875.04 407.096 872.364 407.612 869.388 407.612C866.412 407.612 863.724 407.096 861.324 406.064C858.948 405.032 856.92 403.616 855.24 401.816C853.584 399.992 852.312 397.868 851.424 395.444C850.536 392.996 850.092 390.368 850.092 387.56V356.06H853.8V387.524C853.8 389.9 854.148 392.12 854.844 394.184C855.564 396.224 856.584 398 857.904 399.512C859.248 401.024 860.88 402.212 862.8 403.076C864.744 403.94 866.94 404.372 869.388 404.372ZM900.137 419.672V371.18H902.009C902.321 371.18 902.573 371.252 902.765 371.396C902.957 371.516 903.065 371.744 903.089 372.08L903.413 377.624C904.997 375.464 906.845 373.748 908.957 372.476C911.093 371.204 913.481 370.568 916.121 370.568C920.537 370.568 923.969 372.092 926.417 375.14C928.865 378.188 930.089 382.76 930.089 388.856C930.089 391.472 929.741 393.92 929.045 396.2C928.373 398.456 927.377 400.424 926.057 402.104C924.737 403.76 923.105 405.068 921.161 406.028C919.241 406.988 917.021 407.468 914.501 407.468C912.053 407.468 909.941 407.024 908.165 406.136C906.389 405.248 904.853 403.928 903.557 402.176V419.672H900.137ZM915.149 373.34C912.773 373.34 910.613 373.964 908.669 375.212C906.749 376.436 905.045 378.152 903.557 380.36V399.152C904.925 401.216 906.437 402.668 908.093 403.508C909.773 404.348 911.681 404.768 913.817 404.768C915.929 404.768 917.777 404.384 919.361 403.616C920.945 402.848 922.265 401.768 923.321 400.376C924.401 398.96 925.205 397.28 925.733 395.336C926.285 393.368 926.561 391.208 926.561 388.856C926.561 383.528 925.577 379.616 923.609 377.12C921.665 374.6 918.845 373.34 915.149 373.34ZM956.896 375.608C956.728 375.944 956.464 376.112 956.104 376.112C955.84 376.112 955.492 375.968 955.06 375.68C954.652 375.368 954.1 375.032 953.404 374.672C952.732 374.288 951.892 373.952 950.884 373.664C949.9 373.352 948.688 373.196 947.248 373.196C945.952 373.196 944.764 373.388 943.684 373.772C942.628 374.132 941.716 374.624 940.948 375.248C940.204 375.872 939.616 376.604 939.184 377.444C938.776 378.26 938.572 379.124 938.572 380.036C938.572 381.164 938.86 382.1 939.436 382.844C940.012 383.588 940.768 384.224 941.704 384.752C942.64 385.28 943.696 385.736 944.872 386.12C946.072 386.504 947.296 386.888 948.544 387.272C949.792 387.656 951.004 388.088 952.18 388.568C953.38 389.024 954.448 389.6 955.384 390.296C956.32 390.992 957.076 391.844 957.652 392.852C958.228 393.86 958.516 395.084 958.516 396.524C958.516 398.084 958.228 399.536 957.652 400.88C957.1 402.224 956.284 403.388 955.204 404.372C954.148 405.356 952.84 406.136 951.28 406.712C949.72 407.288 947.944 407.576 945.952 407.576C943.432 407.576 941.26 407.18 939.436 406.388C937.612 405.572 935.98 404.516 934.54 403.22L935.368 401.996C935.488 401.804 935.62 401.66 935.764 401.564C935.908 401.468 936.112 401.42 936.376 401.42C936.688 401.42 937.072 401.612 937.528 401.996C937.984 402.38 938.572 402.8 939.292 403.256C940.036 403.688 940.948 404.096 942.028 404.48C943.132 404.864 944.488 405.056 946.096 405.056C947.608 405.056 948.94 404.852 950.092 404.444C951.244 404.012 952.204 403.436 952.972 402.716C953.74 401.996 954.316 401.156 954.7 400.196C955.108 399.212 955.312 398.18 955.312 397.1C955.312 395.9 955.024 394.904 954.448 394.112C953.872 393.32 953.116 392.648 952.18 392.096C951.244 391.544 950.176 391.076 948.976 390.692C947.8 390.308 946.576 389.924 945.304 389.54C944.056 389.156 942.832 388.736 941.632 388.28C940.456 387.824 939.4 387.248 938.464 386.552C937.528 385.856 936.772 385.016 936.196 384.032C935.62 383.024 935.332 381.776 935.332 380.288C935.332 379.016 935.608 377.792 936.16 376.616C936.712 375.44 937.492 374.408 938.5 373.52C939.532 372.632 940.78 371.924 942.244 371.396C943.708 370.868 945.352 370.604 947.176 370.604C949.36 370.604 951.292 370.916 952.972 371.54C954.676 372.164 956.236 373.124 957.652 374.42L956.896 375.608ZM974.165 356.06V376.652C974.165 377.732 974.153 378.752 974.129 379.712C974.105 380.672 974.069 381.656 974.021 382.664C973.997 383.648 973.949 384.692 973.877 385.796C973.805 386.9 973.733 388.124 973.661 389.468H971.321C971.249 388.124 971.177 386.9 971.105 385.796C971.033 384.692 970.973 383.648 970.925 382.664C970.901 381.656 970.877 380.672 970.853 379.712C970.829 378.752 970.817 377.732 970.817 376.652V356.06H974.165ZM969.053 404.228C969.053 403.772 969.137 403.34 969.305 402.932C969.473 402.524 969.701 402.176 969.989 401.888C970.301 401.576 970.649 401.336 971.033 401.168C971.441 400.976 971.885 400.88 972.365 400.88C972.821 400.88 973.253 400.976 973.661 401.168C974.069 401.336 974.417 401.576 974.705 401.888C975.017 402.176 975.257 402.524 975.425 402.932C975.617 403.34 975.713 403.772 975.713 404.228C975.713 404.708 975.617 405.152 975.425 405.56C975.257 405.944 975.017 406.292 974.705 406.604C974.417 406.892 974.069 407.12 973.661 407.288C973.253 407.456 972.821 407.54 972.365 407.54C971.429 407.54 970.637 407.228 969.989 406.604C969.365 405.956 969.053 405.164 969.053 404.228ZM1032.99 356.06V359.12H1006.17V379.712H1028.49V382.7H1006.17V403.94H1032.99V407H1002.46V356.06H1032.99ZM1041.77 407V371.18H1043.57C1043.98 371.18 1044.27 371.264 1044.43 371.432C1044.63 371.6 1044.73 371.888 1044.76 372.296L1045.05 379.856C1046.2 376.952 1047.73 374.684 1049.65 373.052C1051.57 371.396 1053.94 370.568 1056.75 370.568C1057.83 370.568 1058.82 370.688 1059.73 370.928C1060.65 371.144 1061.51 371.468 1062.33 371.9L1061.86 374.276C1061.79 374.66 1061.55 374.852 1061.14 374.852C1060.99 374.852 1060.79 374.804 1060.53 374.708C1060.26 374.612 1059.93 374.504 1059.52 374.384C1059.13 374.264 1058.65 374.156 1058.08 374.06C1057.5 373.964 1056.84 373.916 1056.1 373.916C1053.39 373.916 1051.15 374.756 1049.4 376.436C1047.67 378.116 1046.27 380.54 1045.19 383.708V407H1041.77ZM1068.89 407V371.18H1070.69C1071.09 371.18 1071.38 371.264 1071.55 371.432C1071.74 371.6 1071.85 371.888 1071.87 372.296L1072.16 379.856C1073.31 376.952 1074.85 374.684 1076.77 373.052C1078.69 371.396 1081.05 370.568 1083.86 370.568C1084.94 370.568 1085.94 370.688 1086.85 370.928C1087.76 371.144 1088.63 371.468 1089.44 371.9L1088.97 374.276C1088.9 374.66 1088.66 374.852 1088.25 374.852C1088.11 374.852 1087.91 374.804 1087.64 374.708C1087.38 374.612 1087.04 374.504 1086.63 374.384C1086.25 374.264 1085.77 374.156 1085.19 374.06C1084.62 373.964 1083.96 373.916 1083.21 373.916C1080.5 373.916 1078.27 374.756 1076.52 376.436C1074.79 378.116 1073.39 380.54 1072.31 383.708V407H1068.89ZM1109.65 370.604C1112.22 370.604 1114.51 371.048 1116.52 371.936C1118.56 372.8 1120.28 374.036 1121.67 375.644C1123.06 377.252 1124.12 379.196 1124.84 381.476C1125.58 383.732 1125.96 386.264 1125.96 389.072C1125.96 391.88 1125.58 394.412 1124.84 396.668C1124.12 398.924 1123.06 400.856 1121.67 402.464C1120.28 404.072 1118.56 405.308 1116.52 406.172C1114.51 407.036 1112.22 407.468 1109.65 407.468C1107.08 407.468 1104.78 407.036 1102.74 406.172C1100.72 405.308 1099 404.072 1097.59 402.464C1096.2 400.856 1095.13 398.924 1094.38 396.668C1093.66 394.412 1093.3 391.88 1093.3 389.072C1093.3 386.264 1093.66 383.732 1094.38 381.476C1095.13 379.196 1096.2 377.252 1097.59 375.644C1099 374.036 1100.72 372.8 1102.74 371.936C1104.78 371.048 1107.08 370.604 1109.65 370.604ZM1109.65 404.768C1111.78 404.768 1113.64 404.408 1115.23 403.688C1116.84 402.944 1118.17 401.888 1119.22 400.52C1120.3 399.152 1121.11 397.508 1121.64 395.588C1122.16 393.644 1122.43 391.472 1122.43 389.072C1122.43 386.696 1122.16 384.536 1121.64 382.592C1121.11 380.648 1120.3 378.992 1119.22 377.624C1118.17 376.232 1116.84 375.164 1115.23 374.42C1113.64 373.676 1111.78 373.304 1109.65 373.304C1107.51 373.304 1105.64 373.676 1104.03 374.42C1102.45 375.164 1101.12 376.232 1100.04 377.624C1098.98 378.992 1098.18 380.648 1097.62 382.592C1097.1 384.536 1096.83 386.696 1096.83 389.072C1096.83 391.472 1097.1 393.644 1097.62 395.588C1098.18 397.508 1098.98 399.152 1100.04 400.52C1101.12 401.888 1102.45 402.944 1104.03 403.688C1105.64 404.408 1107.51 404.768 1109.65 404.768ZM1133.46 407V371.18H1135.26C1135.67 371.18 1135.95 371.264 1136.12 371.432C1136.31 371.6 1136.42 371.888 1136.45 372.296L1136.73 379.856C1137.89 376.952 1139.42 374.684 1141.34 373.052C1143.26 371.396 1145.63 370.568 1148.43 370.568C1149.51 370.568 1150.51 370.688 1151.42 370.928C1152.33 371.144 1153.2 371.468 1154.01 371.9L1153.55 374.276C1153.47 374.66 1153.23 374.852 1152.83 374.852C1152.68 374.852 1152.48 374.804 1152.21 374.708C1151.95 374.612 1151.61 374.504 1151.21 374.384C1150.82 374.264 1150.34 374.156 1149.77 374.06C1149.19 373.964 1148.53 373.916 1147.79 373.916C1145.07 373.916 1142.84 374.756 1141.09 376.436C1139.36 378.116 1137.96 380.54 1136.88 383.708V407H1133.46ZM1198.09 389.648H1207.41V391.52C1207.41 391.784 1207.33 392 1207.16 392.168C1207.02 392.312 1206.78 392.384 1206.44 392.384H1198.09V407H1194.99V392.384H1170.98C1170.62 392.384 1170.34 392.312 1170.15 392.168C1169.96 392 1169.83 391.784 1169.76 391.52L1169.43 389.828L1195.03 355.988H1198.09V389.648ZM1194.99 362.972C1194.99 362.564 1195 362.132 1195.03 361.676C1195.05 361.22 1195.1 360.752 1195.17 360.272L1173.18 389.648H1194.99V362.972ZM1246.56 381.512C1246.56 385.976 1246.08 389.84 1245.12 393.104C1244.16 396.368 1242.85 399.068 1241.2 401.204C1239.54 403.34 1237.6 404.936 1235.37 405.992C1233.16 407.024 1230.79 407.54 1228.27 407.54C1225.75 407.54 1223.39 407.024 1221.18 405.992C1218.97 404.936 1217.04 403.34 1215.39 401.204C1213.73 399.068 1212.42 396.368 1211.46 393.104C1210.53 389.84 1210.06 385.976 1210.06 381.512C1210.06 377.048 1210.53 373.184 1211.46 369.92C1212.42 366.656 1213.73 363.956 1215.39 361.82C1217.04 359.684 1218.97 358.1 1221.18 357.068C1223.39 356.012 1225.75 355.484 1228.27 355.484C1230.79 355.484 1233.16 356.012 1235.37 357.068C1237.6 358.1 1239.54 359.684 1241.2 361.82C1242.85 363.956 1244.16 366.656 1245.12 369.92C1246.08 373.184 1246.56 377.048 1246.56 381.512ZM1242.96 381.512C1242.96 377.384 1242.57 373.856 1241.77 370.928C1240.98 368 1239.91 365.612 1238.57 363.764C1237.25 361.892 1235.69 360.524 1233.89 359.66C1232.11 358.796 1230.24 358.364 1228.27 358.364C1226.31 358.364 1224.43 358.796 1222.66 359.66C1220.88 360.524 1219.32 361.892 1217.98 363.764C1216.63 365.612 1215.57 368 1214.77 370.928C1213.98 373.856 1213.59 377.384 1213.59 381.512C1213.59 385.664 1213.98 389.204 1214.77 392.132C1215.57 395.036 1216.63 397.424 1217.98 399.296C1219.32 401.144 1220.88 402.5 1222.66 403.364C1224.43 404.204 1226.31 404.624 1228.27 404.624C1230.24 404.624 1232.11 404.204 1233.89 403.364C1235.69 402.5 1237.25 401.144 1238.57 399.296C1239.91 397.424 1240.98 395.036 1241.77 392.132C1242.57 389.204 1242.96 385.664 1242.96 381.512ZM1278.62 389.648H1287.94V391.52C1287.94 391.784 1287.86 392 1287.69 392.168C1287.55 392.312 1287.31 392.384 1286.97 392.384H1278.62V407H1275.52V392.384H1251.51C1251.15 392.384 1250.88 392.312 1250.68 392.168C1250.49 392 1250.36 391.784 1250.29 391.52L1249.96 389.828L1275.56 355.988H1278.62V389.648ZM1275.52 362.972C1275.52 362.564 1275.54 362.132 1275.56 361.676C1275.58 361.22 1275.63 360.752 1275.7 360.272L1253.71 389.648H1275.52V362.972Z" fill="#333333"/>
<path d="M858.484 506.32H874.656V510H853.961V475.875H858.484V506.32ZM894.766 510C894.516 509.5 894.312 508.609 894.156 507.328C892.141 509.422 889.734 510.469 886.938 510.469C884.438 510.469 882.383 509.766 880.773 508.359C879.18 506.938 878.383 505.141 878.383 502.969C878.383 500.328 879.383 498.281 881.383 496.828C883.398 495.359 886.227 494.625 889.867 494.625H894.086V492.633C894.086 491.117 893.633 489.914 892.727 489.023C891.82 488.117 890.484 487.664 888.719 487.664C887.172 487.664 885.875 488.055 884.828 488.836C883.781 489.617 883.258 490.562 883.258 491.672H878.898C878.898 490.406 879.344 489.188 880.234 488.016C881.141 486.828 882.359 485.891 883.891 485.203C885.438 484.516 887.133 484.172 888.977 484.172C891.898 484.172 894.188 484.906 895.844 486.375C897.5 487.828 898.359 489.836 898.422 492.398V504.07C898.422 506.398 898.719 508.25 899.312 509.625V510H894.766ZM887.57 506.695C888.93 506.695 890.219 506.344 891.438 505.641C892.656 504.938 893.539 504.023 894.086 502.898V497.695H890.688C885.375 497.695 882.719 499.25 882.719 502.359C882.719 503.719 883.172 504.781 884.078 505.547C884.984 506.312 886.148 506.695 887.57 506.695ZM938.547 497.602C938.547 501.461 937.664 504.57 935.898 506.93C934.133 509.289 931.742 510.469 928.727 510.469C925.648 510.469 923.227 509.492 921.461 507.539V519.75H917.125V484.641H921.086L921.297 487.453C923.062 485.266 925.516 484.172 928.656 484.172C931.703 484.172 934.109 485.32 935.875 487.617C937.656 489.914 938.547 493.109 938.547 497.203V497.602ZM934.211 497.109C934.211 494.25 933.602 491.992 932.383 490.336C931.164 488.68 929.492 487.852 927.367 487.852C924.742 487.852 922.773 489.016 921.461 491.344V503.461C922.758 505.773 924.742 506.93 927.414 506.93C929.492 506.93 931.141 506.109 932.359 504.469C933.594 502.812 934.211 500.359 934.211 497.109ZM959.734 510C959.484 509.5 959.281 508.609 959.125 507.328C957.109 509.422 954.703 510.469 951.906 510.469C949.406 510.469 947.352 509.766 945.742 508.359C944.148 506.938 943.352 505.141 943.352 502.969C943.352 500.328 944.352 498.281 946.352 496.828C948.367 495.359 951.195 494.625 954.836 494.625H959.055V492.633C959.055 491.117 958.602 489.914 957.695 489.023C956.789 488.117 955.453 487.664 953.688 487.664C952.141 487.664 950.844 488.055 949.797 488.836C948.75 489.617 948.227 490.562 948.227 491.672H943.867C943.867 490.406 944.312 489.188 945.203 488.016C946.109 486.828 947.328 485.891 948.859 485.203C950.406 484.516 952.102 484.172 953.945 484.172C956.867 484.172 959.156 484.906 960.812 486.375C962.469 487.828 963.328 489.836 963.391 492.398V504.07C963.391 506.398 963.688 508.25 964.281 509.625V510H959.734ZM952.539 506.695C953.898 506.695 955.188 506.344 956.406 505.641C957.625 504.938 958.508 504.023 959.055 502.898V497.695H955.656C950.344 497.695 947.688 499.25 947.688 502.359C947.688 503.719 948.141 504.781 949.047 505.547C949.953 506.312 951.117 506.695 952.539 506.695ZM956.547 474H961.797L955.516 480.891H952.023L956.547 474ZM969.156 497.109C969.156 493.156 970.07 490.016 971.898 487.688C973.727 485.344 976.148 484.172 979.164 484.172C982.258 484.172 984.672 485.266 986.406 487.453L986.617 484.641H990.578V509.391C990.578 512.672 989.602 515.258 987.648 517.148C985.711 519.039 983.102 519.984 979.82 519.984C977.992 519.984 976.203 519.594 974.453 518.812C972.703 518.031 971.367 516.961 970.445 515.602L972.695 513C974.555 515.297 976.828 516.445 979.516 516.445C981.625 516.445 983.266 515.852 984.438 514.664C985.625 513.477 986.219 511.805 986.219 509.648V507.469C984.484 509.469 982.117 510.469 979.117 510.469C976.148 510.469 973.742 509.273 971.898 506.883C970.07 504.492 969.156 501.234 969.156 497.109ZM973.516 497.602C973.516 500.461 974.102 502.711 975.273 504.352C976.445 505.977 978.086 506.789 980.195 506.789C982.93 506.789 984.938 505.547 986.219 503.062V491.484C984.891 489.062 982.898 487.852 980.242 487.852C978.133 487.852 976.484 488.672 975.297 490.312C974.109 491.953 973.516 494.383 973.516 497.602ZM1001.85 510H997.516V484.641H1001.85V510ZM997.164 477.914C997.164 477.211 997.375 476.617 997.797 476.133C998.234 475.648 998.875 475.406 999.719 475.406C1000.56 475.406 1001.2 475.648 1001.64 476.133C1002.08 476.617 1002.3 477.211 1002.3 477.914C1002.3 478.617 1002.08 479.203 1001.64 479.672C1001.2 480.141 1000.56 480.375 999.719 480.375C998.875 480.375 998.234 480.141 997.797 479.672C997.375 479.203 997.164 478.617 997.164 477.914ZM1012.91 484.641L1013.05 487.828C1014.99 485.391 1017.52 484.172 1020.65 484.172C1026.01 484.172 1028.71 487.195 1028.76 493.242V510H1024.42V493.219C1024.41 491.391 1023.98 490.039 1023.16 489.164C1022.34 488.289 1021.07 487.852 1019.34 487.852C1017.93 487.852 1016.7 488.227 1015.63 488.977C1014.57 489.727 1013.74 490.711 1013.15 491.93V510H1008.81V484.641H1012.91ZM1050.95 510C1050.7 509.5 1050.5 508.609 1050.34 507.328C1048.33 509.422 1045.92 510.469 1043.12 510.469C1040.62 510.469 1038.57 509.766 1036.96 508.359C1035.37 506.938 1034.57 505.141 1034.57 502.969C1034.57 500.328 1035.57 498.281 1037.57 496.828C1039.59 495.359 1042.41 494.625 1046.05 494.625H1050.27V492.633C1050.27 491.117 1049.82 489.914 1048.91 489.023C1048.01 488.117 1046.67 487.664 1044.91 487.664C1043.36 487.664 1042.06 488.055 1041.02 488.836C1039.97 489.617 1039.45 490.562 1039.45 491.672H1035.09C1035.09 490.406 1035.53 489.188 1036.42 488.016C1037.33 486.828 1038.55 485.891 1040.08 485.203C1041.62 484.516 1043.32 484.172 1045.16 484.172C1048.09 484.172 1050.38 484.906 1052.03 486.375C1053.69 487.828 1054.55 489.836 1054.61 492.398V504.07C1054.61 506.398 1054.91 508.25 1055.5 509.625V510H1050.95ZM1043.76 506.695C1045.12 506.695 1046.41 506.344 1047.62 505.641C1048.84 504.938 1049.73 504.023 1050.27 502.898V497.695H1046.88C1041.56 497.695 1038.91 499.25 1038.91 502.359C1038.91 503.719 1039.36 504.781 1040.27 505.547C1041.17 506.312 1042.34 506.695 1043.76 506.695ZM1072.26 497.109C1072.26 493.125 1073.17 489.977 1075 487.664C1076.83 485.336 1079.28 484.172 1082.36 484.172C1085.36 484.172 1087.73 485.18 1089.46 487.195L1089.65 484.641H1093.63V519.75H1089.3V507.656C1087.55 509.531 1085.22 510.469 1082.31 510.469C1079.25 510.469 1076.8 509.281 1074.98 506.906C1073.16 504.516 1072.26 501.352 1072.26 497.414V497.109ZM1076.59 497.602C1076.59 500.508 1077.2 502.789 1078.42 504.445C1079.66 506.102 1081.31 506.93 1083.39 506.93C1085.97 506.93 1087.94 505.789 1089.3 503.508V491.086C1087.92 488.852 1085.97 487.734 1083.44 487.734C1081.34 487.734 1079.68 488.57 1078.45 490.242C1077.21 491.898 1076.59 494.352 1076.59 497.602ZM1116.25 507.492C1114.56 509.477 1112.09 510.469 1108.82 510.469C1106.12 510.469 1104.05 509.688 1102.63 508.125C1101.23 506.547 1100.52 504.219 1100.5 501.141V484.641H1104.84V501.023C1104.84 504.867 1106.4 506.789 1109.52 506.789C1112.84 506.789 1115.04 505.555 1116.13 503.086V484.641H1120.47V510H1116.34L1116.25 507.492ZM1137.6 510.469C1134.16 510.469 1131.37 509.344 1129.21 507.094C1127.05 504.828 1125.98 501.805 1125.98 498.023V497.227C1125.98 494.711 1126.45 492.469 1127.41 490.5C1128.38 488.516 1129.72 486.969 1131.44 485.859C1133.17 484.734 1135.05 484.172 1137.06 484.172C1140.36 484.172 1142.92 485.258 1144.75 487.43C1146.58 489.602 1147.49 492.711 1147.49 496.758V498.562H1130.31C1130.38 501.062 1131.1 503.086 1132.49 504.633C1133.9 506.164 1135.68 506.93 1137.84 506.93C1139.37 506.93 1140.66 506.617 1141.73 505.992C1142.79 505.367 1143.72 504.539 1144.52 503.508L1147.16 505.57C1145.04 508.836 1141.85 510.469 1137.6 510.469ZM1137.06 487.734C1135.31 487.734 1133.84 488.375 1132.66 489.656C1131.47 490.922 1130.73 492.703 1130.45 495H1143.16V494.672C1143.03 492.469 1142.44 490.766 1141.38 489.562C1140.31 488.344 1138.88 487.734 1137.06 487.734ZM1185.91 497.602C1185.91 501.477 1185.02 504.594 1183.23 506.953C1181.45 509.297 1179.06 510.469 1176.06 510.469C1172.86 510.469 1170.38 509.336 1168.63 507.07L1168.42 510H1164.44V474H1168.77V487.43C1170.52 485.258 1172.94 484.172 1176.02 484.172C1179.09 484.172 1181.51 485.336 1183.26 487.664C1185.02 489.992 1185.91 493.18 1185.91 497.227V497.602ZM1181.57 497.109C1181.57 494.156 1181 491.875 1179.86 490.266C1178.72 488.656 1177.08 487.852 1174.94 487.852C1172.08 487.852 1170.02 489.18 1168.77 491.836V502.805C1170.1 505.461 1172.17 506.789 1174.98 506.789C1177.06 506.789 1178.68 505.984 1179.84 504.375C1180.99 502.766 1181.57 500.344 1181.57 497.109ZM1207.05 507.492C1205.36 509.477 1202.88 510.469 1199.62 510.469C1196.91 510.469 1194.85 509.688 1193.43 508.125C1192.02 506.547 1191.31 504.219 1191.3 501.141V484.641H1195.63V501.023C1195.63 504.867 1197.2 506.789 1200.32 506.789C1203.63 506.789 1205.84 505.555 1206.93 503.086V484.641H1211.27V510H1207.14L1207.05 507.492ZM1232.64 503.273C1232.64 502.102 1232.2 501.195 1231.3 500.555C1230.43 499.898 1228.89 499.336 1226.69 498.867C1224.5 498.398 1222.76 497.836 1221.46 497.18C1220.18 496.523 1219.23 495.742 1218.6 494.836C1217.99 493.93 1217.69 492.852 1217.69 491.602C1217.69 489.523 1218.56 487.766 1220.31 486.328C1222.08 484.891 1224.33 484.172 1227.06 484.172C1229.94 484.172 1232.27 484.914 1234.05 486.398C1235.84 487.883 1236.74 489.781 1236.74 492.094H1232.38C1232.38 490.906 1231.88 489.883 1230.86 489.023C1229.86 488.164 1228.59 487.734 1227.06 487.734C1225.48 487.734 1224.25 488.078 1223.36 488.766C1222.47 489.453 1222.02 490.352 1222.02 491.461C1222.02 492.508 1222.44 493.297 1223.27 493.828C1224.09 494.359 1225.59 494.867 1227.74 495.352C1229.91 495.836 1231.67 496.414 1233.02 497.086C1234.36 497.758 1235.35 498.57 1235.99 499.523C1236.65 500.461 1236.98 501.609 1236.98 502.969C1236.98 505.234 1236.07 507.055 1234.26 508.43C1232.45 509.789 1230.09 510.469 1227.2 510.469C1225.17 510.469 1223.38 510.109 1221.81 509.391C1220.25 508.672 1219.02 507.672 1218.13 506.391C1217.26 505.094 1216.82 503.695 1216.82 502.195H1221.16C1221.23 503.648 1221.81 504.805 1222.89 505.664C1223.98 506.508 1225.42 506.93 1227.2 506.93C1228.84 506.93 1230.16 506.602 1231.14 505.945C1232.14 505.273 1232.64 504.383 1232.64 503.273ZM1252.8 506.93C1254.34 506.93 1255.7 506.461 1256.85 505.523C1258.01 504.586 1258.65 503.414 1258.77 502.008H1262.88C1262.8 503.461 1262.3 504.844 1261.38 506.156C1260.45 507.469 1259.22 508.516 1257.67 509.297C1256.14 510.078 1254.52 510.469 1252.8 510.469C1249.34 510.469 1246.59 509.32 1244.55 507.023C1242.52 504.711 1241.5 501.555 1241.5 497.555V496.828C1241.5 494.359 1241.95 492.164 1242.86 490.242C1243.77 488.32 1245.06 486.828 1246.75 485.766C1248.45 484.703 1250.46 484.172 1252.77 484.172C1255.62 484.172 1257.98 485.023 1259.85 486.727C1261.74 488.43 1262.75 490.641 1262.88 493.359H1258.77C1258.65 491.719 1258.02 490.375 1256.9 489.328C1255.79 488.266 1254.41 487.734 1252.77 487.734C1250.57 487.734 1248.86 488.531 1247.64 490.125C1246.44 491.703 1245.84 493.992 1245.84 496.992V497.812C1245.84 500.734 1246.44 502.984 1247.64 504.562C1248.84 506.141 1250.56 506.93 1252.8 506.93ZM1283.41 510C1283.16 509.5 1282.95 508.609 1282.8 507.328C1280.78 509.422 1278.38 510.469 1275.58 510.469C1273.08 510.469 1271.02 509.766 1269.41 508.359C1267.82 506.938 1267.02 505.141 1267.02 502.969C1267.02 500.328 1268.02 498.281 1270.02 496.828C1272.04 495.359 1274.87 494.625 1278.51 494.625H1282.73V492.633C1282.73 491.117 1282.27 489.914 1281.37 489.023C1280.46 488.117 1279.12 487.664 1277.36 487.664C1275.81 487.664 1274.52 488.055 1273.47 488.836C1272.42 489.617 1271.9 490.562 1271.9 491.672H1267.54C1267.54 490.406 1267.98 489.188 1268.88 488.016C1269.78 486.828 1271 485.891 1272.53 485.203C1274.08 484.516 1275.77 484.172 1277.62 484.172C1280.54 484.172 1282.83 484.906 1284.48 486.375C1286.14 487.828 1287 489.836 1287.06 492.398V504.07C1287.06 506.398 1287.36 508.25 1287.95 509.625V510H1283.41ZM1276.21 506.695C1277.57 506.695 1278.86 506.344 1280.08 505.641C1281.3 504.938 1282.18 504.023 1282.73 502.898V497.695H1279.33C1274.02 497.695 1271.36 499.25 1271.36 502.359C1271.36 503.719 1271.81 504.781 1272.72 505.547C1273.62 506.312 1274.79 506.695 1276.21 506.695ZM1308.62 503.273C1308.62 502.102 1308.18 501.195 1307.29 500.555C1306.41 499.898 1304.88 499.336 1302.67 498.867C1300.48 498.398 1298.74 497.836 1297.45 497.18C1296.16 496.523 1295.21 495.742 1294.59 494.836C1293.98 493.93 1293.67 492.852 1293.67 491.602C1293.67 489.523 1294.55 487.766 1296.3 486.328C1298.06 484.891 1300.31 484.172 1303.05 484.172C1305.92 484.172 1308.25 484.914 1310.03 486.398C1311.83 487.883 1312.73 489.781 1312.73 492.094H1308.37C1308.37 490.906 1307.86 489.883 1306.84 489.023C1305.84 488.164 1304.58 487.734 1303.05 487.734C1301.47 487.734 1300.23 488.078 1299.34 488.766C1298.45 489.453 1298.01 490.352 1298.01 491.461C1298.01 492.508 1298.42 493.297 1299.25 493.828C1300.08 494.359 1301.57 494.867 1303.73 495.352C1305.9 495.836 1307.66 496.414 1309 497.086C1310.34 497.758 1311.34 498.57 1311.98 499.523C1312.63 500.461 1312.96 501.609 1312.96 502.969C1312.96 505.234 1312.05 507.055 1310.24 508.43C1308.43 509.789 1306.08 510.469 1303.19 510.469C1301.16 510.469 1299.36 510.109 1297.8 509.391C1296.23 508.672 1295.01 507.672 1294.12 506.391C1293.24 505.094 1292.8 503.695 1292.8 502.195H1297.14C1297.22 503.648 1297.8 504.805 1298.88 505.664C1299.97 506.508 1301.41 506.93 1303.19 506.93C1304.83 506.93 1306.14 506.602 1307.12 505.945C1308.12 505.273 1308.62 504.383 1308.62 503.273ZM857.383 540.641L857.523 543.828C859.461 541.391 861.992 540.172 865.117 540.172C870.477 540.172 873.18 543.195 873.227 549.242V566H868.891V549.219C868.875 547.391 868.453 546.039 867.625 545.164C866.812 544.289 865.539 543.852 863.805 543.852C862.398 543.852 861.164 544.227 860.102 544.977C859.039 545.727 858.211 546.711 857.617 547.93V566H853.281V540.641H857.383ZM878.617 553.086C878.617 550.602 879.102 548.367 880.07 546.383C881.055 544.398 882.414 542.867 884.148 541.789C885.898 540.711 887.891 540.172 890.125 540.172C893.578 540.172 896.367 541.367 898.492 543.758C900.633 546.148 901.703 549.328 901.703 553.297V553.602C901.703 556.07 901.227 558.289 900.273 560.258C899.336 562.211 897.984 563.734 896.219 564.828C894.469 565.922 892.453 566.469 890.172 566.469C886.734 566.469 883.945 565.273 881.805 562.883C879.68 560.492 878.617 557.328 878.617 553.391V553.086ZM882.977 553.602C882.977 556.414 883.625 558.672 884.922 560.375C886.234 562.078 887.984 562.93 890.172 562.93C892.375 562.93 894.125 562.07 895.422 560.352C896.719 558.617 897.367 556.195 897.367 553.086C897.367 550.305 896.703 548.055 895.375 546.336C894.062 544.602 892.312 543.734 890.125 543.734C887.984 543.734 886.258 544.586 884.945 546.289C883.633 547.992 882.977 550.43 882.977 553.602ZM933.812 559.273C933.812 558.102 933.367 557.195 932.477 556.555C931.602 555.898 930.062 555.336 927.859 554.867C925.672 554.398 923.93 553.836 922.633 553.18C921.352 552.523 920.398 551.742 919.773 550.836C919.164 549.93 918.859 548.852 918.859 547.602C918.859 545.523 919.734 543.766 921.484 542.328C923.25 540.891 925.5 540.172 928.234 540.172C931.109 540.172 933.438 540.914 935.219 542.398C937.016 543.883 937.914 545.781 937.914 548.094H933.555C933.555 546.906 933.047 545.883 932.031 545.023C931.031 544.164 929.766 543.734 928.234 543.734C926.656 543.734 925.422 544.078 924.531 544.766C923.641 545.453 923.195 546.352 923.195 547.461C923.195 548.508 923.609 549.297 924.438 549.828C925.266 550.359 926.758 550.867 928.914 551.352C931.086 551.836 932.844 552.414 934.188 553.086C935.531 553.758 936.523 554.57 937.164 555.523C937.82 556.461 938.148 557.609 938.148 558.969C938.148 561.234 937.242 563.055 935.43 564.43C933.617 565.789 931.266 566.469 928.375 566.469C926.344 566.469 924.547 566.109 922.984 565.391C921.422 564.672 920.195 563.672 919.305 562.391C918.43 561.094 917.992 559.695 917.992 558.195H922.328C922.406 559.648 922.984 560.805 924.062 561.664C925.156 562.508 926.594 562.93 928.375 562.93C930.016 562.93 931.328 562.602 932.312 561.945C933.312 561.273 933.812 560.383 933.812 559.273ZM954.32 566.469C950.883 566.469 948.086 565.344 945.93 563.094C943.773 560.828 942.695 557.805 942.695 554.023V553.227C942.695 550.711 943.172 548.469 944.125 546.5C945.094 544.516 946.438 542.969 948.156 541.859C949.891 540.734 951.766 540.172 953.781 540.172C957.078 540.172 959.641 541.258 961.469 543.43C963.297 545.602 964.211 548.711 964.211 552.758V554.562H947.031C947.094 557.062 947.82 559.086 949.211 560.633C950.617 562.164 952.398 562.93 954.555 562.93C956.086 562.93 957.383 562.617 958.445 561.992C959.508 561.367 960.438 560.539 961.234 559.508L963.883 561.57C961.758 564.836 958.57 566.469 954.32 566.469ZM953.781 543.734C952.031 543.734 950.562 544.375 949.375 545.656C948.188 546.922 947.453 548.703 947.172 551H959.875V550.672C959.75 548.469 959.156 546.766 958.094 545.562C957.031 544.344 955.594 543.734 953.781 543.734ZM991.68 566.469C988.242 566.469 985.445 565.344 983.289 563.094C981.133 560.828 980.055 557.805 980.055 554.023V553.227C980.055 550.711 980.531 548.469 981.484 546.5C982.453 544.516 983.797 542.969 985.516 541.859C987.25 540.734 989.125 540.172 991.141 540.172C994.438 540.172 997 541.258 998.828 543.43C1000.66 545.602 1001.57 548.711 1001.57 552.758V554.562H984.391C984.453 557.062 985.18 559.086 986.57 560.633C987.977 562.164 989.758 562.93 991.914 562.93C993.445 562.93 994.742 562.617 995.805 561.992C996.867 561.367 997.797 560.539 998.594 559.508L1001.24 561.57C999.117 564.836 995.93 566.469 991.68 566.469ZM991.141 543.734C989.391 543.734 987.922 544.375 986.734 545.656C985.547 546.922 984.812 548.703 984.531 551H997.234V550.672C997.109 548.469 996.516 546.766 995.453 545.562C994.391 544.344 992.953 543.734 991.141 543.734ZM1010.71 540.641L1010.85 543.828C1012.79 541.391 1015.32 540.172 1018.45 540.172C1023.8 540.172 1026.51 543.195 1026.55 549.242V566H1022.22V549.219C1022.2 547.391 1021.78 546.039 1020.95 545.164C1020.14 544.289 1018.87 543.852 1017.13 543.852C1015.73 543.852 1014.49 544.227 1013.43 544.977C1012.37 545.727 1011.54 546.711 1010.95 547.93V566H1006.61V540.641H1010.71ZM1043.27 562.93C1044.81 562.93 1046.16 562.461 1047.32 561.523C1048.48 560.586 1049.12 559.414 1049.24 558.008H1053.34C1053.27 559.461 1052.77 560.844 1051.84 562.156C1050.92 563.469 1049.69 564.516 1048.14 565.297C1046.61 566.078 1044.98 566.469 1043.27 566.469C1039.81 566.469 1037.06 565.32 1035.02 563.023C1032.98 560.711 1031.97 557.555 1031.97 553.555V552.828C1031.97 550.359 1032.42 548.164 1033.33 546.242C1034.23 544.32 1035.53 542.828 1037.22 541.766C1038.92 540.703 1040.93 540.172 1043.24 540.172C1046.09 540.172 1048.45 541.023 1050.32 542.727C1052.21 544.43 1053.22 546.641 1053.34 549.359H1049.24C1049.12 547.719 1048.49 546.375 1047.37 545.328C1046.26 544.266 1044.88 543.734 1043.24 543.734C1041.04 543.734 1039.33 544.531 1038.11 546.125C1036.91 547.703 1036.3 549.992 1036.3 552.992V553.812C1036.3 556.734 1036.91 558.984 1038.11 560.562C1039.31 562.141 1041.03 562.93 1043.27 562.93ZM1073.88 563.492C1072.19 565.477 1069.71 566.469 1066.45 566.469C1063.74 566.469 1061.68 565.688 1060.26 564.125C1058.85 562.547 1058.14 560.219 1058.12 557.141V540.641H1062.46V557.023C1062.46 560.867 1064.02 562.789 1067.15 562.789C1070.46 562.789 1072.66 561.555 1073.76 559.086V540.641H1078.09V566H1073.97L1073.88 563.492ZM1095.23 566.469C1091.79 566.469 1088.99 565.344 1086.84 563.094C1084.68 560.828 1083.6 557.805 1083.6 554.023V553.227C1083.6 550.711 1084.08 548.469 1085.03 546.5C1086 544.516 1087.34 542.969 1089.06 541.859C1090.8 540.734 1092.67 540.172 1094.69 540.172C1097.98 540.172 1100.55 541.258 1102.38 543.43C1104.2 545.602 1105.12 548.711 1105.12 552.758V554.562H1087.94C1088 557.062 1088.73 559.086 1090.12 560.633C1091.52 562.164 1093.3 562.93 1095.46 562.93C1096.99 562.93 1098.29 562.617 1099.35 561.992C1100.41 561.367 1101.34 560.539 1102.14 559.508L1104.79 561.57C1102.66 564.836 1099.48 566.469 1095.23 566.469ZM1094.69 543.734C1092.94 543.734 1091.47 544.375 1090.28 545.656C1089.09 546.922 1088.36 548.703 1088.08 551H1100.78V550.672C1100.66 548.469 1100.06 546.766 1099 545.562C1097.94 544.344 1096.5 543.734 1094.69 543.734ZM1114.26 540.641L1114.4 543.828C1116.34 541.391 1118.87 540.172 1121.99 540.172C1127.35 540.172 1130.05 543.195 1130.1 549.242V566H1125.77V549.219C1125.75 547.391 1125.33 546.039 1124.5 545.164C1123.69 544.289 1122.41 543.852 1120.68 543.852C1119.27 543.852 1118.04 544.227 1116.98 544.977C1115.91 545.727 1115.09 546.711 1114.49 547.93V566H1110.16V540.641H1114.26ZM1142.52 534.5V540.641H1147.26V543.992H1142.52V559.719C1142.52 560.734 1142.73 561.5 1143.16 562.016C1143.58 562.516 1144.3 562.766 1145.31 562.766C1145.81 562.766 1146.5 562.672 1147.38 562.484V566C1146.23 566.312 1145.12 566.469 1144.05 566.469C1142.11 566.469 1140.65 565.883 1139.66 564.711C1138.68 563.539 1138.19 561.875 1138.19 559.719V543.992H1133.57V540.641H1138.19V534.5H1142.52ZM1164.6 544.531C1163.95 544.422 1163.23 544.367 1162.47 544.367C1159.62 544.367 1157.7 545.578 1156.68 548V566H1152.34V540.641H1156.56L1156.63 543.57C1158.05 541.305 1160.07 540.172 1162.68 540.172C1163.52 540.172 1164.16 540.281 1164.6 540.5V544.531ZM1183.33 566C1183.08 565.5 1182.88 564.609 1182.72 563.328C1180.7 565.422 1178.3 566.469 1175.5 566.469C1173 566.469 1170.95 565.766 1169.34 564.359C1167.74 562.938 1166.95 561.141 1166.95 558.969C1166.95 556.328 1167.95 554.281 1169.95 552.828C1171.96 551.359 1174.79 550.625 1178.43 550.625H1182.65V548.633C1182.65 547.117 1182.2 545.914 1181.29 545.023C1180.38 544.117 1179.05 543.664 1177.28 543.664C1175.73 543.664 1174.44 544.055 1173.39 544.836C1172.34 545.617 1171.82 546.562 1171.82 547.672H1167.46C1167.46 546.406 1167.91 545.188 1168.8 544.016C1169.7 542.828 1170.92 541.891 1172.45 541.203C1174 540.516 1175.7 540.172 1177.54 540.172C1180.46 540.172 1182.75 540.906 1184.41 542.375C1186.06 543.828 1186.92 545.836 1186.98 548.398V560.07C1186.98 562.398 1187.28 564.25 1187.88 565.625V566H1183.33ZM1176.13 562.695C1177.49 562.695 1178.78 562.344 1180 561.641C1181.22 560.938 1182.1 560.023 1182.65 558.898V553.695H1179.25C1173.94 553.695 1171.28 555.25 1171.28 558.359C1171.28 559.719 1171.73 560.781 1172.64 561.547C1173.55 562.312 1174.71 562.695 1176.13 562.695Z" fill="#333333"/>
<path d="M420.197 746.528C573.574 746.528 697.911 635.592 697.911 498.746C697.911 361.9 573.574 250.964 420.197 250.964C266.82 250.964 142.484 361.9 142.484 498.746C142.484 635.592 266.82 746.528 420.197 746.528Z" fill="#CED4DE"/>
<path opacity="0.1" d="M425.73 718.953C447.727 718.953 465.559 715.27 465.559 710.727C465.559 706.185 447.727 702.502 425.73 702.502C403.734 702.502 385.902 706.185 385.902 710.727C385.902 715.27 403.734 718.953 425.73 718.953Z" fill="#F50057"/>
<path opacity="0.1" d="M567.745 729.27C589.742 729.27 607.573 725.587 607.573 721.044C607.573 716.502 589.742 712.819 567.745 712.819C545.749 712.819 527.917 716.502 527.917 721.044C527.917 725.587 545.749 729.27 567.745 729.27Z" fill="#F50057"/>
<path opacity="0.1" d="M424.731 680.403C460.501 680.403 489.498 675.492 489.498 669.434C489.498 663.376 460.501 658.465 424.731 658.465C388.961 658.465 359.964 663.376 359.964 669.434C359.964 675.492 388.961 680.403 424.731 680.403Z" fill="#F50057"/>
<path opacity="0.1" d="M425.22 680.25C499.827 680.25 560.308 670.78 560.308 659.098C560.308 647.415 499.827 637.945 425.22 637.945C350.612 637.945 290.131 647.415 290.131 659.098C290.131 670.78 350.612 680.25 425.22 680.25Z" fill="#F50057"/>
<path d="M431.824 601.104C431.824 601.104 418.012 619.274 406.552 619.423C395.092 619.572 388.364 627.077 393.806 631.767C399.247 636.457 458.543 629.089 458.543 629.089C458.543 629.089 459.102 606.758 453.965 603.496C448.827 600.235 431.824 601.104 431.824 601.104Z" fill="#444176"/>
<path d="M296.117 650.099C296.117 650.099 295.635 603.55 341.708 584.63L352.406 564.281L357.538 551.782C359.396 547.255 362.32 543.243 366.06 540.087C369.801 536.931 374.248 534.724 379.024 533.653L387.323 531.79L389.889 520.982C391.256 515.204 394.285 509.954 398.602 505.878C402.92 501.801 408.337 499.078 414.184 498.044C419.231 497.107 424.352 496.629 429.485 496.615C431.756 496.65 433.979 497.271 435.939 498.418C437.899 499.565 439.529 501.199 440.671 503.162V503.162C440.671 503.162 484.321 502.68 486.256 526.44C486.256 526.44 490.626 548.253 496.93 552.133C496.93 552.133 507.599 549.711 518.267 565.227L529.906 604.985C529.906 604.985 560.459 633.589 551.243 659.74C551.243 659.74 538.634 677.679 474.617 665.555C474.617 665.555 406.237 686.386 369.838 657.818C369.832 657.854 309.214 669.489 296.117 650.099Z" fill="#A8A8A8"/>
<path opacity="0.1" d="M419.822 642.826C419.822 642.826 429.526 629.25 429.037 619.549C428.549 609.847 431.324 586.219 431.324 586.219" stroke="black" stroke-miterlimit="10"/>
<path opacity="0.1" d="M411.84 606.461C411.84 606.461 421.538 588.522 420.568 578.827C420.568 578.827 430.754 560.376 438.511 561.852" stroke="black" stroke-miterlimit="10"/>
<path opacity="0.1" d="M409.845 555.549C409.845 555.549 436.516 545.854 437.975 538.099" stroke="black" stroke-miterlimit="10"/>
<path opacity="0.1" d="M393.884 577.857C393.884 577.857 422.013 565.251 422.013 561.852H436.069C436.069 561.852 456.442 588.522 454.019 600.158" stroke="black" stroke-miterlimit="10"/>
<path opacity="0.1" d="M468.194 597.247C468.194 597.247 441.034 595.307 431.33 603.068C421.626 610.829 404.171 614.704 404.171 614.704C404.171 614.704 393.985 636.523 390.103 640.397C386.221 644.272 379.917 657.854 379.917 657.854" stroke="black" stroke-miterlimit="10"/>
<path opacity="0.1" d="M429.68 500.96C429.68 500.96 428.067 539.485 419.822 549.461" stroke="black" stroke-miterlimit="10"/>
<g opacity="0.05">
<path opacity="0.05" d="M513.862 604.52L502.224 564.762C491.555 549.246 480.887 551.668 480.887 551.668C474.582 547.788 470.218 525.969 470.218 525.969C468.277 502.21 424.627 502.698 424.627 502.698C423.484 500.731 421.85 499.094 419.885 497.947C417.921 496.8 415.692 496.181 413.417 496.151C411.357 496.151 409.25 496.216 407.142 496.389C408.333 496.508 409.474 496.676 410.565 496.895L413.959 502.715C413.959 502.715 457.603 502.227 459.544 525.987C459.544 525.987 463.914 547.806 470.218 551.686C470.218 551.686 480.887 549.258 491.555 564.78L503.194 604.538C503.194 604.538 533.747 633.142 524.531 659.294C524.531 659.294 518.31 668.144 492.43 669.215C527.323 670.495 535.199 659.294 535.199 659.294C544.415 633.124 513.862 604.52 513.862 604.52Z" fill="black"/>
<path opacity="0.05" d="M343.149 657.365C332.883 659.212 322.501 660.348 312.079 660.764C324.229 661.228 336.869 659.912 345.013 658.794C344.382 658.311 343.763 657.847 343.149 657.365Z" fill="black"/>
<path opacity="0.05" d="M447.905 665.126C432.975 669.313 417.606 671.741 402.112 672.364C424.467 673.173 445.643 668.513 454.371 666.275C452.263 665.924 450.126 665.525 447.905 665.126Z" fill="black"/>
</g>
<path d="M399.869 696.788C399.869 696.788 413.21 696.378 417.229 693.515C421.247 690.652 437.744 687.236 438.744 691.825C439.745 696.413 458.79 714.649 443.727 714.774C428.665 714.899 408.739 712.429 404.727 709.983C400.714 707.537 399.869 696.788 399.869 696.788Z" fill="#A8A8A8"/>
<path opacity="0.2" d="M444.001 713.174C428.939 713.299 409.007 710.829 404.995 708.412C401.941 706.549 400.72 699.872 400.315 696.795H399.869C399.869 696.795 400.714 707.549 404.727 709.99C408.739 712.43 428.671 714.9 443.727 714.781C448.079 714.745 449.58 713.198 449.496 710.906C448.895 712.287 447.234 713.15 444.001 713.174Z" fill="black"/>
<path d="M455.555 707.301C455.555 707.301 439.844 704.158 435.659 699.968C431.474 695.778 412.619 688.458 410.524 693.689C408.428 698.921 382.251 716.722 400.052 719.877C417.852 723.031 441.94 724.043 447.179 721.972C452.418 719.901 455.555 707.301 455.555 707.301Z" fill="#A8A8A8"/>
<path opacity="0.2" d="M400.048 717.9C417.854 721.037 441.936 722.066 447.175 719.989C451.158 718.394 453.932 710.734 455.027 707.169L455.551 707.282C455.551 707.282 452.408 719.84 447.175 721.935C441.942 724.03 417.854 722.983 400.048 719.84C394.91 718.936 393.44 716.805 393.993 714.115C394.434 715.888 396.226 717.239 400.048 717.9Z" fill="black"/>
<rect x="534.179" y="674.556" width="42.5553" height="82.3969" fill="white"/>
<path opacity="0.1" d="M442.003 367.277H438.264C438.959 367.277 439.625 367.001 440.116 366.51C440.607 366.019 440.883 365.353 440.883 364.658C440.883 363.964 440.607 363.298 440.116 362.806C439.625 362.315 438.959 362.039 438.264 362.039H407.973C407.278 362.039 406.612 362.315 406.121 362.806C405.63 363.298 405.354 363.964 405.354 364.658C405.354 365.353 405.63 366.019 406.121 366.51C406.612 367.001 407.278 367.277 407.973 367.277H411.712C411.04 367.309 410.405 367.599 409.941 368.086C409.476 368.573 409.217 369.22 409.217 369.893C409.217 370.566 409.476 371.213 409.941 371.7C410.405 372.187 411.04 372.476 411.712 372.509H406.479C405.784 372.509 405.118 372.784 404.627 373.276C404.135 373.767 403.859 374.433 403.859 375.127C403.859 375.822 404.135 376.488 404.627 376.979C405.118 377.47 405.784 377.746 406.479 377.746H436.77C437.464 377.746 438.131 377.47 438.622 376.979C439.113 376.488 439.389 375.822 439.389 375.127C439.389 374.433 439.113 373.767 438.622 373.276C438.131 372.784 437.464 372.509 436.77 372.509H442.003C442.357 372.525 442.711 372.47 443.043 372.346C443.375 372.223 443.679 372.033 443.935 371.788C444.192 371.544 444.396 371.249 444.535 370.924C444.675 370.598 444.747 370.247 444.747 369.893C444.747 369.538 444.675 369.188 444.535 368.862C444.396 368.536 444.192 368.242 443.935 367.997C443.679 367.753 443.375 367.563 443.043 367.439C442.711 367.315 442.357 367.26 442.003 367.277V367.277Z" fill="#F50057"/>
<path opacity="0.1" d="M442.032 457.417H438.294C438.966 457.385 439.6 457.095 440.065 456.608C440.529 456.121 440.788 455.474 440.788 454.801C440.788 454.128 440.529 453.481 440.065 452.994C439.6 452.507 438.966 452.218 438.294 452.185H407.973C407.619 452.169 407.265 452.224 406.933 452.348C406.601 452.471 406.297 452.661 406.041 452.906C405.784 453.15 405.58 453.445 405.44 453.77C405.301 454.096 405.229 454.447 405.229 454.801C405.229 455.156 405.301 455.506 405.44 455.832C405.58 456.158 405.784 456.452 406.041 456.697C406.297 456.941 406.601 457.131 406.933 457.255C407.265 457.379 407.619 457.434 407.973 457.417H411.712C411.04 457.449 410.405 457.739 409.941 458.226C409.476 458.713 409.217 459.36 409.217 460.033C409.217 460.706 409.476 461.353 409.941 461.84C410.405 462.327 411.04 462.617 411.712 462.649H406.479C405.784 462.649 405.118 462.925 404.627 463.416C404.135 463.907 403.859 464.573 403.859 465.267C403.859 465.962 404.135 466.628 404.627 467.119C405.118 467.61 405.784 467.886 406.479 467.886H436.764C437.458 467.886 438.125 467.61 438.616 467.119C439.107 466.628 439.383 465.962 439.383 465.267C439.383 464.573 439.107 463.907 438.616 463.416C438.125 462.925 437.458 462.649 436.764 462.649H442.032C442.387 462.666 442.74 462.61 443.073 462.487C443.405 462.363 443.708 462.173 443.965 461.928C444.221 461.684 444.426 461.39 444.565 461.064C444.705 460.738 444.777 460.387 444.777 460.033C444.777 459.678 444.705 459.328 444.565 459.002C444.426 458.676 444.221 458.382 443.965 458.137C443.708 457.893 443.405 457.703 443.073 457.579C442.74 457.455 442.387 457.4 442.032 457.417V457.417Z" fill="#F50057"/>
<path opacity="0.1" d="M442.015 396.411H438.276C438.63 396.428 438.984 396.373 439.316 396.249C439.648 396.125 439.952 395.935 440.208 395.69C440.465 395.446 440.669 395.152 440.809 394.826C440.948 394.5 441.02 394.149 441.02 393.795C441.02 393.441 440.948 393.09 440.809 392.764C440.669 392.438 440.465 392.144 440.208 391.9C439.952 391.655 439.648 391.465 439.316 391.341C438.984 391.218 438.63 391.162 438.276 391.179H407.979C407.625 391.162 407.271 391.218 406.939 391.341C406.607 391.465 406.303 391.655 406.047 391.9C405.79 392.144 405.586 392.438 405.446 392.764C405.307 393.09 405.235 393.441 405.235 393.795C405.235 394.149 405.307 394.5 405.446 394.826C405.586 395.152 405.79 395.446 406.047 395.69C406.303 395.935 406.607 396.125 406.939 396.249C407.271 396.373 407.625 396.428 407.979 396.411H411.718C411.364 396.394 411.01 396.449 410.678 396.573C410.346 396.697 410.042 396.887 409.785 397.131C409.529 397.376 409.325 397.67 409.185 397.996C409.045 398.322 408.974 398.672 408.974 399.027C408.974 399.381 409.045 399.732 409.185 400.058C409.325 400.383 409.529 400.677 409.785 400.922C410.042 401.167 410.346 401.357 410.678 401.48C411.01 401.604 411.364 401.659 411.718 401.642H406.479C405.784 401.642 405.118 401.918 404.627 402.409C404.135 402.901 403.859 403.567 403.859 404.261C403.859 404.956 404.135 405.622 404.627 406.113C405.118 406.604 405.784 406.88 406.479 406.88H436.77C437.464 406.88 438.131 406.604 438.622 406.113C439.113 405.622 439.389 404.956 439.389 404.261C439.389 403.567 439.113 402.901 438.622 402.409C438.131 401.918 437.464 401.642 436.77 401.642H442.003C442.357 401.659 442.711 401.604 443.043 401.48C443.375 401.357 443.679 401.167 443.935 400.922C444.192 400.677 444.396 400.383 444.536 400.058C444.675 399.732 444.747 399.381 444.747 399.027C444.747 398.672 444.675 398.322 444.536 397.996C444.396 397.67 444.192 397.376 443.935 397.131C443.679 396.887 443.375 396.697 443.043 396.573C442.711 396.449 442.357 396.394 442.003 396.411H442.015Z" fill="#F50057"/>
<path d="M312.721 570.244H275.84V617.836H207.397V570.244H76.1843V524.429L187.537 369.224H260.236L159.167 514.484H209.524V472.221H275.84V514.484H312.721V570.244Z" fill="#333333"/>
<path d="M425.207 622.808C403.93 622.808 385.016 617.717 368.467 607.536C351.918 597.355 338.915 582.557 329.458 563.141C320.237 543.489 315.627 520.285 315.627 493.53C315.627 466.775 320.237 443.689 329.458 424.274C338.915 404.622 351.918 389.705 368.467 379.524C385.016 369.343 403.93 364.252 425.207 364.252C446.249 364.252 465.044 369.343 481.593 379.524C498.142 389.705 511.027 404.622 520.248 424.274C529.704 443.689 534.433 466.775 534.433 493.53C534.433 520.285 529.704 543.489 520.248 563.141C511.027 582.557 498.142 597.355 481.593 607.536C465.044 617.717 446.249 622.808 425.207 622.808ZM425.207 565.272C437.028 565.272 446.367 559.59 453.223 548.225C460.315 536.623 463.862 518.391 463.862 493.53C463.862 468.669 460.315 450.556 453.223 439.191C446.367 427.589 437.028 421.788 425.207 421.788C413.15 421.788 403.575 427.589 396.482 439.191C389.626 450.556 386.198 468.669 386.198 493.53C386.198 518.391 389.626 536.623 396.482 548.225C403.575 559.59 413.15 565.272 425.207 565.272Z" fill="#333333"/>
<path d="M781.101 570.244H744.22V617.836H675.777V570.244H544.564V524.429L655.918 369.224H728.616L627.547 514.484H677.904V472.221H744.22V514.484H781.101V570.244Z" fill="#333333"/>
<path d="M478.057 774.498H627.332C628.775 774.49 630.192 774.109 631.444 773.392C632.696 772.675 633.741 771.647 634.478 770.407C635.215 769.166 635.618 767.757 635.649 766.314C635.679 764.872 635.336 763.447 634.652 762.176L560.051 623.608C559.336 622.28 558.275 621.17 556.98 620.396C555.684 619.622 554.204 619.214 552.695 619.214C551.186 619.214 549.705 619.622 548.41 620.396C547.114 621.17 546.053 622.28 545.338 623.608L470.7 762.176C470.015 763.449 469.672 764.878 469.704 766.323C469.736 767.769 470.143 769.181 470.884 770.422C471.625 771.664 472.676 772.692 473.933 773.406C475.19 774.12 476.611 774.496 478.057 774.498V774.498ZM562.192 749.177H543.197V730.196H562.192V749.177ZM562.192 717.536H543.197V679.564H562.192V717.536Z" fill="#FF1833"/>
<path opacity="0.1" d="M252.863 362.539C309.416 362.539 355.261 355.435 355.261 346.672C355.261 337.908 309.416 330.804 252.863 330.804C196.31 330.804 150.465 337.908 150.465 346.672C150.465 355.435 196.31 362.539 252.863 362.539Z" fill="#F50057"/>
<path d="M230.34 297.547C227.305 303.449 225.888 310.048 226.232 316.675C226.576 323.302 228.669 329.719 232.299 335.275C233.489 337.061 234.585 338.346 235.46 338.686C239.657 340.334 248.063 344.387 248.063 344.387L268.305 336.436C268.305 336.436 271.591 319.057 274.699 304.136C276.818 293.958 278.866 284.93 279.705 283.346C281.801 279.448 279.705 237.006 279.705 237.006C279.705 237.006 259.464 235.649 253.897 251.249L251.462 256.01L230.34 297.547Z" fill="#A8A8A8"/>
<path opacity="0.1" d="M205.337 302.087C217.643 316.187 222.834 303.992 222.834 303.992C224.953 293.814 227.001 284.785 227.841 283.202C229.936 279.304 227.841 236.862 227.841 236.862C227.841 236.862 207.599 235.505 202.033 251.104L199.598 255.866C198.038 268.347 196.496 291.939 205.337 302.087Z" fill="white"/>
<path opacity="0.1" d="M255.602 248.385L240.718 284.988C248.517 279.286 260.072 248.236 260.072 248.236L270.425 283.637L262.174 246.325C263.382 238.223 263.733 230.016 263.222 221.84C262.567 212.472 253.774 197.438 248.999 189.867C248.156 189.528 247.296 189.234 246.421 188.986C245.416 188.681 244.353 188.617 243.319 188.801C242.284 188.984 241.307 189.408 240.468 190.04C244.219 197.569 253.595 216.394 256.453 221.989C260.078 229.036 255.602 248.385 255.602 248.385Z" fill="white"/>
<path d="M267.752 344.238H306.515C308.109 344.238 309.687 343.914 311.153 343.286C312.618 342.658 313.94 341.738 315.039 340.583C316.138 339.427 316.99 338.061 317.544 336.566C318.098 335.071 318.342 333.48 318.261 331.888C317.404 315.27 315.231 285.643 310.063 266.835C307.271 256.688 304.026 251.361 301.05 248.736C299.654 247.389 297.852 246.542 295.924 246.326C294.462 246.199 292.998 246.555 291.756 247.337C284.559 254.236 276.153 290.535 276.153 290.535L267.752 344.238Z" fill="#A8A8A8"/>
<path opacity="0.1" d="M303.538 312.045C305.134 316.467 305.765 321.567 303.538 326.537L294.9 330.804C294.9 330.804 271.682 320.966 274.504 300.802C274.504 300.802 275.266 296.636 283.261 296.957C287.758 297.174 292.088 298.725 295.699 301.412C299.31 304.099 302.039 307.801 303.538 312.045V312.045Z" fill="white"/>
<path opacity="0.1" d="M294.311 259.039C294.043 251.968 297.883 249.516 301.056 248.736C299.66 247.389 297.858 246.542 295.93 246.326C293.721 248.173 292.156 250.674 291.459 253.468L283.362 292.922C283.362 292.922 294.763 270.888 294.311 259.039Z" fill="white"/>
<path d="M257.554 290.238L276.748 316.485L280.076 338.149L267.74 344.238L249.957 348.166C248.245 348.546 246.484 348.661 244.736 348.505L196.21 344.238L202.813 328.936L225.614 296.933L257.554 290.238Z" fill="#A8A8A8"/>
<path opacity="0.1" d="M250.125 281.226C250.125 281.226 263.222 282.125 258.305 304.623C253.387 327.12 202.789 328.923 202.789 328.923C202.789 328.923 213.541 309.878 230.08 296.231C231.937 294.701 233.729 293.106 235.438 291.404C239.242 287.601 246.517 280.917 250.125 281.226Z" fill="white"/>
<path opacity="0.1" d="M261.906 298.189C261.906 298.189 279.653 314.336 277.98 339.184Z" fill="black"/>
<path opacity="0.1" d="M291.762 247.337C291.762 247.337 273.14 272.096 271.05 310.193Z" fill="black"/>
<path d="M419.547 334.833C419.482 336.077 420.101 337.214 420.464 338.404C421.065 340.703 421.005 343.125 420.291 345.392C419.625 347.772 418.505 350.29 419.357 352.617C419.553 353.165 419.851 353.665 420.029 354.212C420.768 356.474 419.398 358.854 417.898 360.705L423.786 364.83C424.646 365.542 425.668 366.031 426.763 366.252C427.864 366.383 429.144 365.794 429.37 364.711C429.448 364.342 429.37 363.955 429.442 363.58C429.514 363.095 429.702 362.635 429.989 362.237C430.276 361.84 430.653 361.516 431.091 361.295C431.975 360.861 432.961 360.678 433.943 360.765C437.556 360.961 440.628 363.336 443.914 364.86C446.081 365.798 448.326 366.543 450.624 367.086C451.928 367.425 453.374 367.734 454.553 367.086C455.732 366.437 456.274 364.931 456.184 363.568C456.001 362.213 455.578 360.901 454.934 359.694C454.284 358.488 453.893 357.16 453.785 355.795C453.785 353.795 454.881 351.974 455.25 350.01C455.768 347.219 454.714 344.38 453.428 341.844C452.142 339.309 450.582 336.869 449.957 334.107C449.833 333.27 449.615 332.45 449.308 331.661C449.01 331.062 448.607 330.522 448.118 330.066C445.909 327.882 442.76 326.846 439.676 326.62C436.592 326.394 433.478 326.9 430.418 327.429C429.251 327.596 428.101 327.869 426.983 328.245C425.386 328.879 423.869 329.7 422.464 330.691C421.071 331.655 419.637 333.066 419.547 334.833Z" fill="#464353"/>
<g opacity="0.1">
<path opacity="0.1" d="M453.767 354.575C453.767 354.754 453.767 354.932 453.803 355.105C453.987 353.361 454.904 351.724 455.232 349.98C455.358 349.282 455.396 348.57 455.345 347.862C455.345 348.171 455.285 348.457 455.232 348.79C454.857 350.754 453.743 352.575 453.767 354.575Z" fill="black"/>
<path opacity="0.1" d="M420.863 340.785C420.933 339.581 420.798 338.373 420.464 337.214C420.112 336.311 419.823 335.384 419.601 334.44C419.601 334.565 419.553 334.684 419.547 334.809C419.482 336.053 420.101 337.19 420.464 338.38C420.694 339.163 420.828 339.97 420.863 340.785V340.785Z" fill="black"/>
<path opacity="0.1" d="M456.131 363.241C456.089 363.773 455.923 364.288 455.646 364.743C455.369 365.199 454.988 365.584 454.535 365.866C453.345 366.514 451.91 366.205 450.606 365.866C448.308 365.323 446.062 364.576 443.897 363.634C440.61 362.116 437.538 359.741 433.925 359.545C432.944 359.458 431.957 359.641 431.073 360.075C430.636 360.296 430.258 360.62 429.971 361.017C429.684 361.415 429.496 361.875 429.424 362.36C429.382 362.735 429.424 363.122 429.353 363.491C429.12 364.574 427.846 365.163 426.745 365.033C425.651 364.811 424.628 364.322 423.768 363.61L418.476 359.896C418.279 360.164 418.083 360.426 417.88 360.67L423.768 364.8C424.628 365.513 425.651 366.001 426.745 366.223C427.846 366.354 429.126 365.765 429.353 364.681C429.43 364.312 429.353 363.925 429.424 363.551C429.496 363.066 429.684 362.605 429.971 362.208C430.258 361.81 430.636 361.487 431.073 361.265C431.957 360.832 432.944 360.648 433.925 360.735C437.538 360.932 440.61 363.307 443.897 364.824C446.062 365.767 448.308 366.514 450.606 367.056C451.91 367.395 453.357 367.705 454.535 367.056C455.714 366.407 456.256 364.902 456.167 363.539C456.161 363.437 456.143 363.342 456.131 363.241Z" fill="black"/>
<path opacity="0.1" d="M420.029 354.182C420.103 354.421 420.157 354.666 420.19 354.914C420.282 354.27 420.227 353.612 420.029 352.992C419.851 352.444 419.553 351.944 419.357 351.397C419.213 350.999 419.121 350.585 419.083 350.165C418.995 350.982 419.088 351.81 419.357 352.587C419.553 353.135 419.851 353.641 420.029 354.182Z" fill="black"/>
</g>
<path opacity="0.06" d="M427.019 580.02C426.978 580.189 426.882 580.34 426.745 580.449C426.6 580.524 426.438 580.559 426.275 580.55C424.155 580.597 422.036 580.55 419.923 580.699C417.922 580.871 415.916 581.294 413.922 581.068C413.284 581.09 412.654 580.914 412.121 580.563C411.588 580.212 411.177 579.704 410.945 579.109C410.819 578.85 410.708 578.584 410.612 578.312H411.374C413.88 578.312 416.392 578.223 418.899 578.223C419.655 578.223 420.417 578.187 421.167 578.098C421.917 578.008 422.53 577.883 423.215 577.8C424.24 577.702 425.269 577.66 426.299 577.675H427.144C427.299 578.455 427.256 579.261 427.019 580.02Z" fill="black"/>
<path d="M470.866 568.968C470.202 569.742 469.355 570.338 468.401 570.7C464.162 572.485 459.263 571.682 454.887 570.23C453.908 569.866 452.903 569.578 451.88 569.367C450.948 569.236 450.007 569.17 449.064 569.17C448.392 569.17 447.719 569.117 447.046 569.075C445.344 568.968 443.647 568.801 441.956 568.635C440.777 568.548 439.607 568.371 438.456 568.105C438.128 568.021 437.814 567.893 437.521 567.724V567.724C437.271 567.614 437.058 567.436 436.906 567.209C436.754 566.982 436.67 566.717 436.664 566.444C436.711 565.689 437.497 565.254 438.188 564.927C444.314 562.278 450.97 561.13 457.578 560.207C458.25 560.095 458.905 559.895 459.525 559.612C460.269 559.314 460.346 559.802 460.715 560.35C460.89 560.603 461.089 560.839 461.311 561.052C462.028 561.7 462.871 562.194 463.787 562.504C465.395 563.1 467.115 563.26 468.723 563.826C469.209 563.994 469.674 564.218 470.11 564.492C470.494 564.702 470.826 564.996 471.079 565.353C471.332 565.71 471.5 566.12 471.57 566.552C471.64 566.984 471.61 567.426 471.483 567.845C471.356 568.264 471.135 568.648 470.836 568.968H470.866Z" fill="#464353"/>
<path opacity="0.06" d="M470.865 568.968C470.202 569.743 469.354 570.338 468.4 570.7C464.162 572.486 459.262 571.682 454.886 570.23C453.907 569.866 452.902 569.578 451.88 569.367C450.947 569.236 450.006 569.17 449.064 569.17C448.391 569.17 447.718 569.117 447.046 569.075C447.593 568.557 448.153 568.052 448.725 567.564C449.139 567.176 449.616 566.862 450.135 566.635C450.782 566.423 451.472 566.376 452.142 566.498C455.547 566.968 458.607 569.355 462.042 569.147C463.643 568.963 465.191 568.463 466.597 567.677C467.74 567.211 468.759 566.486 469.573 565.558C469.819 565.238 470.006 564.877 470.127 564.492C470.511 564.702 470.843 564.996 471.096 565.353C471.349 565.71 471.517 566.12 471.587 566.552C471.657 566.984 471.627 567.427 471.5 567.845C471.373 568.264 471.152 568.648 470.853 568.968H470.865Z" fill="black"/>
<path d="M469.669 465.533C469.073 466.724 468.311 468.015 467.025 468.384C465.156 468.92 463.358 467.241 462.543 465.48C461.431 462.894 461.221 460.009 461.947 457.29C462.287 455.915 462.805 454.594 463.096 453.213C463.307 452.051 463.434 450.876 463.477 449.696C463.653 447.936 463.611 446.16 463.352 444.411C462.394 439.298 457.994 435.483 456.53 430.46C455.791 427.954 455.827 425.288 455.869 422.675C455.855 422.014 455.923 421.355 456.071 420.711C456.116 420.535 456.175 420.364 456.25 420.199C457.232 418.021 460.143 417.723 462.168 416.455C463.287 415.759 465.829 413.515 466.769 415.563C466.973 416.018 467.124 416.496 467.222 416.985C467.609 418.806 467.454 420.943 467.549 422.663C467.913 429.162 469.532 435.65 468.782 442.113C468.603 443.215 468.515 444.33 468.52 445.446C468.681 448.243 470.431 450.666 471.235 453.344C472.473 457.373 471.479 461.76 469.669 465.533Z" fill="#FFA756"/>
<path opacity="0.1" d="M467.252 416.996C466.809 416.836 466.325 416.836 465.882 416.996L461.852 418.187C460.439 418.563 459.063 419.063 457.738 419.681C457.16 419.964 456.611 420.305 456.101 420.698C456.145 420.523 456.205 420.351 456.279 420.186C457.262 418.008 460.173 417.711 462.197 416.443C463.316 415.746 465.858 413.503 466.799 415.55C467.004 416.014 467.156 416.499 467.252 416.996V416.996Z" fill="black"/>
<path d="M467.514 416.544C467.271 416.397 466.997 416.308 466.713 416.285C466.43 416.263 466.146 416.307 465.882 416.413L461.852 417.604C460.439 417.98 459.063 418.48 457.738 419.098C457.035 419.44 456.377 419.867 455.779 420.371C453.898 417.104 453.398 413.229 453.053 409.48C452.862 407.295 452.719 405.105 452.636 402.933C452.543 401.369 452.574 399.801 452.731 398.243C452.957 396.457 453.475 394.713 453.797 392.94C453.988 391.901 454.112 390.852 454.166 389.797C454.32 387.493 454.215 385.179 453.85 382.899C453.504 380.476 452.951 378.086 452.195 375.757C451.814 374.692 451.356 373.662 450.939 372.615L450.796 372.246C450.044 370.326 449.429 368.355 448.957 366.348C448.766 365.526 448.754 364.663 448.123 364.104C448.716 364.032 449.313 364.008 449.909 364.032C450.028 364.032 450.147 364.032 450.267 364.032C452.712 364.186 455.068 365.01 457.077 366.413C459.664 368.279 461.631 370.879 462.721 373.876C463.977 377.227 464.186 380.87 464.346 384.447C464.668 391.478 464.866 398.513 464.942 405.552C464.942 406.903 465.001 408.343 465.775 409.456C465.992 409.73 466.191 410.018 466.37 410.319C466.65 410.914 466.609 411.575 466.835 412.176C467.001 412.537 467.19 412.886 467.4 413.223C467.667 413.733 467.815 414.296 467.835 414.871C467.855 415.446 467.745 416.018 467.514 416.544Z" fill="#464353"/>
<path d="M427.889 346.683C427.293 346.487 426.698 346.278 426.103 346.088L427.341 346.183C427.547 346.322 427.732 346.49 427.889 346.683Z" fill="#FFA756"/>
<path d="M452.267 368.163C452.148 368.567 452.029 368.972 451.898 369.353C451.596 370.331 451.228 371.287 450.797 372.216C450.122 373.741 449.167 375.126 447.981 376.299C447.589 376.711 447.109 377.029 446.576 377.227C446.125 377.343 445.659 377.387 445.195 377.358C443.607 377.358 442.019 377.334 440.432 377.287C439.196 377.3 437.962 377.179 436.753 376.924C435.421 376.561 434.156 375.99 433.002 375.233C428.555 372.484 424.899 368.294 423.334 363.33C423.137 362.699 423 361.943 423.435 361.449C423.863 361.1 424.401 360.917 424.953 360.931H425.024C426.304 360.765 427.538 360.342 428.65 359.687C429.371 359.319 429.952 358.725 430.305 357.997C430.546 357.134 430.528 356.219 430.252 355.366L428.93 349.367C428.792 348.406 428.431 347.491 427.876 346.695C428.263 346.832 428.65 346.957 429.067 347.064C432.746 348.058 436.77 347.457 440.378 348.76C441.759 349.266 443.141 350.177 443.557 351.593C444.254 353.974 441.926 356.444 442.593 358.824C443.039 360.443 444.688 361.378 446.165 362.134L447.159 362.64L449.916 364.038L450.297 364.229L450.356 364.258C451.225 364.699 452.142 365.246 452.446 366.181C452.575 366.845 452.513 367.532 452.267 368.163V368.163Z" fill="#FFA756"/>
<path opacity="0.1" d="M459.53 382.138C459.429 383.659 459.059 385.15 458.435 386.542C457.24 388.949 456.599 391.592 456.56 394.279C456.101 402.314 453.047 411.878 457.423 418.628C457.53 418.794 457.637 418.961 457.738 419.134C457.035 419.476 456.377 419.903 455.78 420.407C453.898 417.14 453.398 413.265 453.053 409.516C452.863 407.331 452.72 405.141 452.636 402.969C452.543 401.405 452.575 399.837 452.732 398.279C452.958 396.493 453.476 394.749 453.797 392.976C453.989 391.937 454.112 390.888 454.166 389.833C454.321 387.529 454.215 385.215 453.851 382.935C453.505 380.511 452.951 378.122 452.196 375.793C451.815 374.728 451.356 373.698 450.94 372.651L450.797 372.282C450.122 373.807 449.167 375.192 447.981 376.364C447.589 376.777 447.109 377.094 446.576 377.293C446.125 377.408 445.659 377.452 445.195 377.424C443.607 377.424 442.019 377.4 440.432 377.352C439.196 377.366 437.962 377.244 436.753 376.989C435.421 376.626 434.156 376.056 433.002 375.299C428.555 372.549 424.899 368.359 423.334 363.396C423.137 362.765 423 362.009 423.435 361.515C423.863 361.166 424.401 360.982 424.953 360.997H425.024L430.383 367.621C430.997 368.322 431.517 369.101 431.93 369.937C432.01 370.217 432.177 370.465 432.407 370.645C432.593 370.73 432.798 370.767 433.002 370.752C438.033 370.752 444.736 370.752 449.767 370.752C449.783 369.861 449.526 368.986 449.029 368.246C448.874 368.282 448.665 368.294 448.987 368.199C448.696 366.267 448.071 364.4 447.141 362.681C447.086 362.563 447.024 362.448 446.957 362.336C446.557 361.747 446.259 361.095 446.076 360.408C446.711 360.205 447.393 360.205 448.028 360.408C448.761 360.723 449.142 361.515 449.463 362.247C449.737 362.842 450.011 363.479 450.255 364.104C450.255 364.169 450.314 364.241 450.338 364.306C450.857 365.538 451.191 366.839 451.327 368.169C451.362 368.657 451.481 369.276 451.886 369.437C451.95 369.466 452.019 369.482 452.089 369.484C452.508 369.331 452.963 369.306 453.397 369.412C453.83 369.517 454.222 369.75 454.524 370.079C455.109 370.75 455.518 371.556 455.714 372.424C455.908 373.293 456.191 374.138 456.56 374.948C457.328 376.412 456.155 377.067 457.542 377.965C458.191 378.322 458.749 378.823 459.173 379.43C459.565 380.275 459.69 381.22 459.53 382.138V382.138Z" fill="black"/>
<path opacity="0.1" d="M424.954 568.766C425.233 570.135 425.549 571.492 425.882 572.849L425.847 572.932C423.126 571.742 420.34 570.498 417.369 570.236C414.612 569.998 411.618 570.742 409.743 572.742C409.717 572.306 409.659 571.872 409.57 571.444C409.389 570.954 409.411 570.413 409.63 569.938C410.475 568.397 412.517 568.087 414.089 567.968C417.73 567.694 421.391 567.963 424.954 568.766Z" fill="black"/>
<path opacity="0.1" d="M448.404 369.335C448.686 369.335 448.584 369.335 448.446 369.383C448.309 369.431 448.081 369.431 448.404 369.335Z" fill="black"/>
<path opacity="0.1" d="M331.454 339.25C328.799 340.942 326.304 342.872 324 345.017C323.331 345.733 322.534 346.317 321.649 346.737C320.735 347.031 319.769 347.131 318.815 347.029C315.07 346.877 311.337 346.508 307.634 345.922V345.922C307.385 345.812 307.171 345.633 307.019 345.407C306.868 345.18 306.783 344.915 306.777 344.642C306.825 343.886 307.611 343.452 308.301 343.125C314.427 340.476 321.083 339.327 327.691 338.405C328.364 338.293 329.018 338.093 329.638 337.81C330.382 337.512 330.46 338 330.829 338.548C331.013 338.803 331.222 339.038 331.454 339.25V339.25Z" fill="black"/>
<path d="M417.66 362.431C418.535 363.211 419.535 363.842 420.422 364.598C422.804 366.615 424.304 369.436 425.78 372.186C424.905 372.503 423.958 372.566 423.048 372.371C422.58 375.011 422.659 377.719 423.28 380.328C422.089 381.145 421.164 382.294 420.619 383.631C420.196 384.989 419.905 386.384 419.75 387.798C418.892 393.991 418.031 400.185 417.166 406.379C417.149 406.985 416.94 407.57 416.571 408.051C416.405 408.185 416.254 408.334 416.118 408.498C415.936 408.898 415.864 409.34 415.91 409.777C415.874 410.212 415.588 410.73 415.154 410.67C414.943 410.62 414.755 410.498 414.624 410.325C414.189 409.865 413.791 409.371 413.433 408.849C409.921 415.586 408.23 422.847 406.372 430.216C405.045 435.465 403.717 440.774 403.652 446.19C403.67 448.752 403.831 451.311 404.134 453.856L404.658 459.081C405.081 463.283 405.503 467.491 405.962 471.693C406.259 474.36 406.557 477.05 407.516 479.561C408.944 483.376 407.361 487.679 407.968 491.715C408.444 494.875 409.391 498.143 408.438 501.19C408.057 502.41 407.39 503.523 406.89 504.701C405.664 507.63 405.539 510.885 405.432 514.058C405.239 516.838 405.343 519.631 405.741 522.39C406.253 525.241 407.402 528.032 407.176 530.913C406.861 535.014 403.836 538.519 403.467 542.614C403.175 545.881 404.61 549.036 406.152 551.934C407.289 554.071 405.706 556.833 405.104 559.184C403.914 563.79 405.896 568.611 408.325 572.7C408.387 572.84 408.497 572.954 408.635 573.021C408.915 573.123 409.165 572.849 409.349 572.617C411.177 570.272 414.415 569.385 417.386 569.641C420.357 569.897 423.137 571.123 425.864 572.337L429.728 563.737C430.382 562.278 431.049 560.701 430.722 559.136C430.49 558.017 429.769 557.071 429.257 556.047C428.067 553.631 428.007 550.815 427.995 548.107L427.924 532.811C430.936 529.026 432.776 524.527 433.937 519.825C435.718 526.438 435.84 533.389 434.294 540.061C434.008 541.069 433.809 542.101 433.698 543.144C433.466 547.387 436.794 550.976 437.681 555.13C437.767 555.448 437.792 555.78 437.753 556.107C437.653 556.509 437.486 556.891 437.259 557.237C435.663 560.13 435.836 563.635 436.068 566.933C440.243 567.659 444.461 568.111 448.695 568.284C449.65 568.379 450.614 568.28 451.529 567.992C452.414 567.569 453.212 566.984 453.88 566.266C456.584 563.724 459.551 561.48 462.733 559.57C460.956 556.623 458.47 554.168 455.5 552.428C456.458 551.018 458.643 551.131 459.917 550C460.557 549.367 460.975 548.545 461.108 547.655C461.584 545.322 460.995 542.894 460.405 540.602C459.262 536.091 458.113 531.562 456.238 527.3C455.39 525.549 454.643 523.75 454 521.914C452.44 516.783 453.529 511.201 452.35 505.957C451.969 504.279 451.356 502.547 451.785 500.874C452.44 498.297 455.357 496.768 456 494.185C458.304 484.989 458.715 475.461 460.024 466.075C460.317 464.282 460.475 462.469 460.495 460.653C460.495 458.754 460.155 456.873 460.018 454.981C459.483 447.404 461.906 439.845 461.286 432.275C460.89 427.609 459.353 423.113 456.81 419.181C452.434 412.426 455.488 402.867 455.946 394.832C455.981 392.146 456.62 389.501 457.816 387.095C458.445 385.705 458.818 384.213 458.917 382.691C459.101 381.752 458.984 380.78 458.584 379.911C458.165 379.302 457.608 378.801 456.958 378.447C455.571 377.543 456.744 376.888 455.976 375.424C455.607 374.615 455.323 373.769 455.131 372.9C454.936 372.033 454.526 371.229 453.94 370.561C453.639 370.232 453.247 369.999 452.813 369.893C452.38 369.787 451.924 369.813 451.505 369.966C450.939 369.966 450.785 369.216 450.737 368.651C450.576 366.58 449.719 364.633 448.88 362.729C448.558 361.997 448.177 361.205 447.445 360.89C446.807 360.69 446.124 360.69 445.486 360.89C445.671 361.58 445.97 362.234 446.373 362.824C447.405 364.634 448.092 366.62 448.397 368.681C447.802 368.859 448.993 368.681 448.397 368.681C448.93 369.423 449.205 370.32 449.177 371.234C444.153 371.234 437.449 371.234 432.419 371.234C432.214 371.25 432.009 371.213 431.823 371.127C431.594 370.946 431.425 370.698 431.341 370.418C430.932 369.582 430.411 368.806 429.793 368.109L423.899 360.842C423.768 360.652 423.595 360.495 423.393 360.384C423.15 360.315 422.892 360.315 422.649 360.384C420.738 360.664 419.327 361.461 417.66 362.431Z" fill="#F50057"/>
<path d="M413.969 363.705C412.786 364.294 411.678 365.026 410.671 365.883C409.619 366.928 408.739 368.133 408.064 369.454C407.241 370.951 406.504 372.493 405.855 374.072C405.015 376.12 404.319 378.387 404.896 380.524C405.42 382.458 406.903 383.964 407.927 385.684C408.951 387.404 409.552 389.422 410.338 391.309C411.386 393.826 412.82 396.171 413.856 398.695C414.892 401.218 415.517 404.051 414.862 406.676C414.672 407.45 413.416 408.051 413.416 408.842C413.416 410.152 415.309 411.574 416.565 411.955C418.012 412.402 419.589 411.735 420.774 410.765C422.947 409.045 424.269 406.468 425.245 403.873C426.817 399.707 427.656 395.284 428.412 390.892C428.96 387.666 429.472 384.434 429.764 381.185C430.032 378.257 430.115 375.233 429.341 372.424C428.619 369.845 427.214 367.51 425.275 365.663C423.727 364.175 421.191 362.175 418.94 362.121C417.16 362.115 415.493 362.865 413.969 363.705Z" fill="#464353"/>
<path d="M430.894 435.453C430.83 435.86 430.678 436.248 430.448 436.59C430.219 436.932 429.918 437.22 429.567 437.435C428.864 437.862 428.099 438.175 427.298 438.363C425.703 438.828 424.012 439.256 422.399 438.846C421.131 438.433 419.96 437.767 418.958 436.887L400.931 423.091C399.483 422.065 398.151 420.884 396.96 419.568C396.276 418.718 395.648 417.826 395.079 416.896C394.325 415.831 393.735 414.659 393.328 413.42C393.183 412.874 393.111 412.312 393.114 411.747C393.109 411.213 393.24 410.687 393.495 410.218C393.93 409.492 394.858 409.343 395.621 409.14C398.178 408.479 400.833 408.278 403.461 408.545C403.692 408.534 403.92 408.598 404.111 408.728C404.302 408.858 404.446 409.047 404.521 409.265C404.92 409.997 405.265 410.759 405.622 411.521C406.17 412.82 406.885 414.042 407.748 415.158C408.579 416.061 409.463 416.914 410.397 417.711C412.302 419.496 413.862 421.639 415.892 423.282C418.243 425.18 421.101 426.317 423.78 427.716C426.459 429.114 429.102 430.93 430.448 433.638C430.76 434.191 430.914 434.818 430.894 435.453Z" fill="#FFA756"/>
<path opacity="0.1" d="M451.761 339.201C451.762 342.959 450.326 346.575 447.749 349.31C445.171 352.045 441.646 353.692 437.894 353.915C434.142 354.137 430.446 352.919 427.563 350.508C424.68 348.097 422.827 344.676 422.383 340.945C421.939 337.214 422.938 333.454 425.174 330.434C427.411 327.414 430.718 325.363 434.417 324.699C438.117 324.036 441.93 324.81 445.078 326.864C448.225 328.918 450.469 332.096 451.35 335.749C451.623 336.88 451.761 338.038 451.761 339.201V339.201Z" fill="black"/>
<path d="M451.761 338.606C451.762 342.364 450.326 345.98 447.749 348.715C445.171 351.45 441.646 353.097 437.894 353.319C434.142 353.542 430.446 352.324 427.563 349.913C424.68 347.502 422.827 344.081 422.383 340.35C421.939 336.618 422.938 332.858 425.174 329.839C427.411 326.819 430.718 324.768 434.417 324.104C438.117 323.44 441.93 324.215 445.078 326.269C448.225 328.323 450.469 331.501 451.35 335.154C451.623 336.285 451.761 337.443 451.761 338.606V338.606Z" fill="#FFA756"/>
<path opacity="0.1" d="M405.622 411.497C404.944 411.932 403.937 411.789 403.098 411.599C399.788 410.861 396.133 410.331 393.114 411.747C393.109 411.213 393.24 410.687 393.495 410.218C393.93 409.492 394.858 409.343 395.621 409.14C398.178 408.479 400.833 408.278 403.461 408.545C403.692 408.534 403.92 408.598 404.111 408.728C404.302 408.858 404.446 409.047 404.521 409.265C404.92 409.974 405.265 410.736 405.622 411.497Z" fill="black"/>
<path d="M399.401 391.458C398.669 393.839 398.068 396.285 396.633 398.302C396.159 398.833 395.802 399.458 395.585 400.136C395.569 400.636 395.487 401.132 395.341 401.612C395.139 402.016 394.71 402.284 394.538 402.701C394.282 403.296 394.615 404.064 394.276 404.623C394.117 404.848 393.926 405.048 393.71 405.218C392.9 405.968 392.698 407.165 392.68 408.272C392.662 409.379 392.769 410.509 392.406 411.551C395.55 409.676 399.55 410.236 403.122 411.033C404.117 411.253 405.349 411.42 405.992 410.623C406.635 409.825 406.266 408.778 406.355 407.819C406.474 406.569 407.331 405.534 407.861 404.397C408.457 403.117 408.659 401.689 409.117 400.356C410.064 397.553 412.094 395.267 413.398 392.619C413.881 391.708 414.168 390.706 414.243 389.678C414.198 388.346 413.85 387.041 413.225 385.863C411.986 383.121 410.512 380.49 408.82 378.001C408.064 376.888 406.76 374.829 405.587 376.608C404.635 378.043 404.039 379.87 403.337 381.441C401.823 384.697 400.509 388.042 399.401 391.458Z" fill="#464353"/>
<path d="M453.118 368.353C451.331 368.476 449.538 368.199 447.872 367.541C446.205 366.883 444.707 365.861 443.486 364.55C443.28 364.363 443.131 364.122 443.057 363.854C443.023 363.506 443.121 363.157 443.331 362.878C444.045 361.777 445.278 361.05 445.849 359.866C446.421 358.682 446.224 357.319 446.278 356.021C446.373 353.694 447.29 351.391 447.367 349.099C447.395 348.513 447.351 347.925 447.236 347.35C446.962 346.494 446.794 345.609 446.736 344.713C446.814 342.969 448.385 341.612 448.647 339.892C448.987 337.702 447.171 335.797 445.343 334.535C443.949 333.569 442.437 332.787 440.842 332.208C439.863 331.858 438.849 331.612 437.818 331.476C435.895 331.217 433.938 331.435 432.121 332.113C431.368 332.397 430.656 332.777 430.001 333.244C429.611 333.49 429.287 333.827 429.055 334.226C428.864 334.675 428.778 335.161 428.805 335.648C428.769 338.083 429.043 340.672 427.882 342.791C427.286 343.927 426.274 344.85 425.78 346.052C425.578 346.552 425.452 347.08 425.405 347.617C425.346 348.175 425.316 348.735 425.316 349.296C425.28 352.432 425.316 355.741 426.911 358.461C427.474 359.284 427.985 360.141 428.441 361.027C428.663 361.475 428.765 361.972 428.739 362.471C428.713 362.971 428.559 363.455 428.293 363.878C427.97 364.263 427.563 364.569 427.102 364.77C425.92 365.337 424.634 365.654 423.323 365.701C422.013 365.749 420.707 365.525 419.488 365.044C420.914 363.693 421.894 361.938 422.296 360.015C422.698 358.093 422.503 356.093 421.738 354.283C421.308 353.553 421.028 352.743 420.916 351.903C420.976 351.146 421.178 350.407 421.512 349.724C422.328 347.488 422.454 345.058 421.875 342.749C421.512 341.332 420.881 339.963 420.768 338.505C420.673 337.405 420.721 336.296 420.91 335.208C421.237 333.261 422.095 331.442 423.39 329.951C424.686 328.461 426.368 327.357 428.251 326.763C428.555 326.661 428.846 326.566 429.18 326.483C430.624 326.162 432.1 326.005 433.579 326.013C436.883 325.905 440.235 325.81 443.42 326.673C445.29 327.163 447.03 328.057 448.516 329.292C449.571 330.179 450.414 331.291 450.981 332.548C451.291 333.271 451.524 334.025 451.678 334.797C451.814 335.434 451.916 336.077 452.017 336.72C452.737 341.297 453.458 345.963 452.69 350.534C452.386 352.319 451.856 354.105 451.618 355.926C451.041 360.122 452.082 364.294 453.118 368.353Z" fill="#464353"/>
<path d="M431.966 374.234C432.578 374.234 433.074 373.738 433.074 373.127C433.074 372.516 432.578 372.02 431.966 372.02C431.355 372.02 430.859 372.516 430.859 373.127C430.859 373.738 431.355 374.234 431.966 374.234Z" fill="white"/>
<path d="M450.654 373.71C451.265 373.71 451.761 373.214 451.761 372.603C451.761 371.991 451.265 371.496 450.654 371.496C450.042 371.496 449.547 371.991 449.547 372.603C449.547 373.214 450.042 373.71 450.654 373.71Z" fill="white"/>
<g opacity="0.1">
<path opacity="0.1" d="M428.293 362.699C427.97 363.085 427.563 363.39 427.102 363.592C424.991 364.601 422.583 364.803 420.333 364.157C420.071 364.475 419.789 364.775 419.488 365.056C420.707 365.536 422.013 365.76 423.323 365.713C424.634 365.666 425.92 365.349 427.102 364.782C427.563 364.581 427.97 364.275 428.293 363.889C428.497 363.592 428.637 363.255 428.703 362.9C428.769 362.545 428.759 362.181 428.674 361.83C428.614 362.145 428.484 362.442 428.293 362.699Z" fill="black"/>
<path opacity="0.1" d="M421.833 342.767C422.027 343.546 422.141 344.344 422.172 345.147C422.241 343.947 422.126 342.743 421.833 341.576C421.47 340.16 420.839 338.791 420.726 337.333C420.726 337.148 420.726 336.964 420.696 336.773C420.667 337.356 420.677 337.941 420.726 338.523C420.839 339.981 421.47 341.35 421.833 342.767Z" fill="black"/>
<path opacity="0.1" d="M452.647 350.551C452.9 348.977 453.008 347.384 452.969 345.79C452.948 346.987 452.841 348.18 452.647 349.361C452.344 351.147 451.814 352.932 451.576 354.753C451.453 355.73 451.407 356.715 451.439 357.699C451.455 357.112 451.501 356.526 451.576 355.944C451.814 354.122 452.344 352.355 452.647 350.551Z" fill="black"/>
<path opacity="0.1" d="M421.714 353.105C421.402 352.519 421.151 351.902 420.964 351.266C420.913 351.48 420.89 351.7 420.893 351.92C421.005 352.761 421.284 353.57 421.714 354.301C422.151 355.299 422.403 356.367 422.458 357.455C422.566 355.966 422.311 354.473 421.714 353.105V353.105Z" fill="black"/>
<path opacity="0.1" d="M447.236 347.326C447.288 347.597 447.326 347.871 447.349 348.147C447.349 348.058 447.349 347.974 447.349 347.885C447.377 347.299 447.333 346.711 447.218 346.135C447.087 345.51 446.873 344.891 446.772 344.26C446.742 344.402 446.724 344.545 446.718 344.689C446.782 345.586 446.956 346.471 447.236 347.326V347.326Z" fill="black"/>
<path opacity="0.1" d="M443.486 363.336C443.394 363.24 443.309 363.139 443.23 363.032C443.083 363.271 443.022 363.552 443.057 363.83C443.132 364.097 443.28 364.339 443.486 364.526C444.707 365.837 446.205 366.859 447.872 367.517C449.538 368.175 451.331 368.452 453.118 368.329C453.017 367.936 452.916 367.549 452.821 367.139C451.082 367.219 449.347 366.92 447.735 366.263C446.123 365.607 444.673 364.608 443.486 363.336V363.336Z" fill="black"/>
<path opacity="0.1" d="M448.635 338.761C448.633 338.739 448.633 338.717 448.635 338.696C448.975 336.505 447.159 334.601 445.331 333.339C443.938 332.373 442.425 331.59 440.83 331.012C439.851 330.661 438.837 330.416 437.806 330.28C435.884 330.02 433.927 330.239 432.109 330.917C431.356 331.2 430.644 331.58 429.989 332.047C429.599 332.294 429.275 332.631 429.043 333.029C428.852 333.478 428.766 333.965 428.793 334.452C428.793 334.863 428.793 335.273 428.793 335.69V335.642C428.766 335.155 428.852 334.669 429.043 334.22C429.275 333.821 429.599 333.484 429.989 333.238C430.644 332.771 431.356 332.391 432.109 332.107C433.927 331.429 435.884 331.21 437.806 331.47C438.837 331.606 439.851 331.852 440.83 332.202C442.425 332.781 443.938 333.563 445.331 334.529C446.849 335.553 448.344 337.029 448.635 338.761Z" fill="black"/>
<path opacity="0.1" d="M427.882 341.612C427.286 342.749 426.274 343.671 425.78 344.873C425.578 345.374 425.452 345.901 425.405 346.439C425.346 346.996 425.316 347.556 425.316 348.117C425.316 348.623 425.316 349.135 425.316 349.647C425.316 349.534 425.316 349.42 425.316 349.307C425.316 348.747 425.346 348.187 425.405 347.629C425.452 347.092 425.578 346.564 425.78 346.064C426.274 344.873 427.263 343.939 427.882 342.802C428.84 341.017 428.822 338.963 428.805 336.922C428.884 338.537 428.567 340.147 427.882 341.612V341.612Z" fill="black"/>
</g>
<path opacity="0.1" d="M451.636 334.839C451.554 334.955 451.458 335.061 451.35 335.154C451.14 335.327 450.905 335.468 450.654 335.571C448.921 336.321 448.993 333.875 448.088 333.036C447.507 332.608 446.795 332.397 446.076 332.44C444.333 332.353 442.589 332.276 440.842 332.208C437.931 332.101 435.026 332.048 432.121 332.113C430.728 332.137 429.339 332.194 427.953 332.286C426.346 332.393 424.62 332.601 423.25 333.363C422.782 333.621 422.357 333.952 421.994 334.345C421.667 334.702 421.321 335.154 420.869 335.238C421.195 333.29 422.053 331.471 423.349 329.981C424.644 328.49 426.326 327.387 428.209 326.792C431.258 324.522 435.067 323.518 438.839 323.989C442.611 324.46 446.055 326.371 448.451 329.322C449.506 330.208 450.348 331.321 450.916 332.577C451.234 333.304 451.476 334.062 451.636 334.839V334.839Z" fill="black"/>
<path d="M450.654 334.381C448.921 335.131 448.993 332.684 448.088 331.845C447.507 331.417 446.795 331.207 446.075 331.25C440.043 330.853 433.992 330.802 427.953 331.095C425.804 331.238 423.447 331.559 422 333.155C421.631 333.559 421.244 334.083 420.69 334.065C420.506 332.875 420.375 331.637 420.285 330.417C420.231 329.96 420.256 329.497 420.357 329.048C420.506 328.536 420.845 328.102 421.018 327.602C421.188 326.966 421.248 326.306 421.196 325.649C421.222 323.221 421.875 320.841 423.091 318.739C424.307 316.637 426.046 314.884 428.138 313.651C428.663 313.394 429.15 313.065 429.585 312.675C429.735 312.495 429.901 312.328 430.079 312.175C430.422 311.963 430.825 311.867 431.228 311.901C431.513 311.901 431.823 311.901 432.073 311.901C432.843 311.816 433.596 311.615 434.306 311.306C434.961 311.024 435.67 310.89 436.383 310.913C437.14 311.051 437.868 311.315 438.538 311.693C438.86 311.848 439.198 311.969 439.545 312.056C440.086 312.181 440.646 312.175 441.188 312.282C442.065 312.505 442.899 312.875 443.652 313.377C444.552 313.862 445.385 314.462 446.129 315.162C446.938 316.087 447.586 317.142 448.046 318.281C448.834 319.856 449.434 321.518 449.832 323.233C450.314 325.697 450.076 328.363 451.219 330.601C451.916 332.006 452.553 333.565 450.654 334.381Z" fill="#FED253"/>
<path opacity="0.1" d="M420.476 332.512C420.476 332.512 432.817 321.287 451.195 330.596C451.195 330.596 430.448 325.876 420.476 332.512Z" fill="black"/>
<path d="M286.001 389.869C284.322 387.119 281.798 384.602 282.191 381.483C286.811 382.013 291.193 380.888 295.425 378.93C299.658 376.971 303.588 374.43 307.552 371.936C309.112 370.954 310.666 369.99 312.214 369.097C314.667 367.693 317.102 366.121 319.596 364.747C323.168 362.782 326.812 361.176 330.824 360.866C331.551 360.809 332.28 360.791 333.009 360.812C337.95 360.908 343.07 362.235 347.416 360.021L347.684 359.878C350.149 358.527 351.941 356.23 354.054 354.367C355.574 353.053 357.228 351.904 358.99 350.939C362.199 349.153 365.675 347.725 368.956 346.04C369.795 345.608 370.593 345.098 371.337 344.517L371.897 344.07L372.022 343.963C372.159 343.85 372.296 343.737 372.426 343.618L372.682 343.392L372.944 343.154L373.147 342.963L373.474 342.654L373.51 342.612L374.028 342.1L374.236 341.892L374.599 341.517L374.814 341.303C375.177 340.928 375.54 340.547 375.909 340.178C376.278 339.809 376.778 339.309 377.225 338.898L377.654 338.517L377.779 338.41L378.124 338.124L378.285 337.988L378.624 337.726L378.791 337.595C378.957 337.47 379.13 337.351 379.303 337.232C379.462 337.122 379.629 337.024 379.803 336.94L378.689 334.244L381.892 332.923L426.066 440.084L422.858 441.405L397.591 380.102L397.413 380.281C391.56 386.055 384.391 390.319 376.522 392.708H376.475C372.075 394.035 367.152 394.975 363.449 397.439C362.136 398.293 360.995 399.385 360.085 400.659C359.216 401.897 358.609 403.308 357.704 404.498C357.531 404.718 357.341 404.933 357.15 405.135C356.067 406.208 354.869 407.158 353.578 407.968L353.013 408.355C349.177 411.053 345.181 413.516 341.046 415.729C338.66 416.971 336.173 418.006 333.61 418.824C331.747 419.419 329.824 419.854 327.961 420.443C326.707 420.822 325.49 421.312 324.323 421.907C321.168 423.556 318.745 426.139 316.453 428.894C314.447 431.311 312.541 433.87 310.339 436.072C308.957 437.441 306.856 438.738 305.189 437.935L304.85 437.739C304.903 437.649 304.945 437.56 304.993 437.465C306.308 434.709 304.689 431.305 302.51 429.097C302.284 428.865 302.052 428.638 301.813 428.424C301.575 428.21 301.147 427.829 300.807 427.531C298.944 425.93 296.961 424.442 295.67 422.377C294.683 420.642 294.014 418.746 293.693 416.777C293.098 413.973 292.699 411.087 291.175 408.7C290.175 407.123 288.686 405.778 287.603 404.266C286.918 403.371 286.468 402.32 286.293 401.207C286.049 399.273 286.948 397.38 287.287 395.452C287.388 394.926 287.43 394.391 287.412 393.856C287.288 392.429 286.802 391.057 286.001 389.869V389.869Z" fill="url(#paint0_linear)"/>
<path d="M421.734 440.485L424.888 439.185L381.45 333.826L378.296 335.126L421.734 440.485Z" fill="#D6D8E1"/>
<path d="M292.24 408.325C293.735 410.676 294.134 413.509 294.711 416.265C295.031 418.202 295.69 420.067 296.658 421.776C297.932 423.806 299.879 425.27 301.706 426.841C302.04 427.133 302.373 427.436 302.695 427.722C302.927 427.93 303.159 428.156 303.379 428.377C305.522 430.549 307.112 433.9 305.82 436.608C305.78 436.7 305.735 436.789 305.683 436.876C305.788 436.947 305.897 437.01 306.011 437.066C307.654 437.864 309.72 436.59 311.077 435.239C313.244 433.072 315.119 430.561 317.09 428.186C319.34 425.472 321.728 422.931 324.829 421.312C325.974 420.726 327.17 420.243 328.401 419.871C330.229 419.276 332.122 418.854 333.956 418.282C336.474 417.477 338.92 416.46 341.267 415.241C345.338 413.062 349.275 410.639 353.054 407.986L353.614 407.605C354.883 406.81 356.061 405.878 357.126 404.826C357.317 404.623 357.501 404.415 357.674 404.195C358.591 403.004 359.192 401.641 360.055 400.421C360.951 399.168 362.074 398.094 363.366 397.255C367.009 394.833 371.843 393.904 376.171 392.601H376.219C383.953 390.249 391.001 386.056 396.758 380.382C397.235 379.983 397.592 379.46 397.788 378.87C397.973 378.031 397.52 377.198 397.086 376.46C396.579 375.591 396.085 374.722 395.597 373.841C393.402 369.846 391.442 365.726 389.727 361.503C389.352 360.574 388.989 359.652 388.638 358.718C387.737 356.337 386.915 353.922 386.173 351.474C385.929 350.665 385.691 349.849 385.465 349.034C385.423 348.879 385.375 348.713 385.334 348.534C384.345 344.564 383.024 335.274 378.952 338.053C377.74 338.919 376.614 339.897 375.588 340.975C374.796 341.779 374.022 342.606 373.206 343.404C372.542 344.057 371.84 344.671 371.105 345.243C370.359 345.814 369.561 346.316 368.724 346.743C365.491 348.397 362.074 349.784 358.924 351.558C357.19 352.505 355.562 353.634 354.066 354.926C351.989 356.759 350.226 359.021 347.803 360.348L347.541 360.491C343.267 362.664 338.236 361.36 333.372 361.265C332.658 361.247 331.942 361.265 331.229 361.318C327.282 361.616 323.674 363.199 320.186 365.133C317.733 366.49 315.34 368.026 312.928 369.413C311.404 370.288 309.88 371.234 308.344 372.204C304.451 374.656 300.504 377.227 296.438 379.084C292.27 380.977 287.966 382.108 283.423 381.59C283.037 384.655 285.513 387.131 287.168 389.833C287.963 390.995 288.445 392.341 288.567 393.743C288.589 394.268 288.551 394.793 288.454 395.309C288.121 397.207 287.263 399.064 287.478 400.975C287.647 402.064 288.087 403.094 288.758 403.968C289.794 405.45 291.252 406.778 292.24 408.325Z" fill="#FF1833"/>
<path d="M413.279 420.723C413.279 420.723 418.494 425.27 423.781 427.692C429.067 430.114 425.567 438.804 425.567 438.804C425.567 438.804 419.965 440.089 416.041 434.638C412.118 429.186 413.279 420.723 413.279 420.723Z" fill="#FFA756"/>
<path d="M458.206 537.169C426.471 581.528 402.456 556.996 391.734 537.169L376.724 576.487L415.321 600.683L483.937 564.389C488.583 536.833 464.639 508.94 458.206 537.169Z" fill="#333333"/>
<defs>
<linearGradient id="paint0_linear" x1="-431493" y1="39199.9" x2="-466294" y2="39199.9" gradientUnits="userSpaceOnUse">
<stop stop-color="#808080" stop-opacity="0.25"/>
<stop offset="0.54" stop-color="#808080" stop-opacity="0.12"/>
<stop offset="1" stop-color="#808080" stop-opacity="0.1"/>
</linearGradient>
</defs>
</svg>
