<svg xmlns="http://www.w3.org/2000/svg" width="451" height="340" fill="none" viewBox="0 0 451 340">
    <path fill="url(#prefix__paint0_linear)" fill-opacity=".5" fill-rule="evenodd" d="M187.786-418.966c-37.697-11.543-80.577-17.26-128.64-17.152-49.362.112-92.865 6.025-130.51 17.738-36.348 10.419-68.141 24.704-95.379 42.854s-50.573 38.876-70.005 62.176c-18.133 23.298-33.018 47.234-44.653 71.81-28.449 56.914-44.272 116.439-44.096 193.905.175 77.467 16.267 136.92 44.974 193.704 11.746 24.522 26.739 48.391 44.977 71.606 19.538 23.213 42.967 43.832 70.287 61.859 27.319 18.027 59.178 32.813 95.577 44.359 37.694 10.251 81.222 15.321 130.584 15.209l389.698-.883-.878-387.61c-4.061-72.344-20.444-136.909-49.151-193.694-11.747-24.522-27.389-48.389-46.926-71.602-18.239-23.215-41.018-43.836-68.338-61.863-27.32-18.027-59.827-32.165-97.521-42.416zM65.136 150.771c113.876-.258 205.983-92.557 205.726-206.156-.258-113.599-92.782-205.48-206.658-205.222-113.877.258-205.984 92.557-205.727 206.156.258 113.6 92.781 205.48 206.658 205.222z" clip-rule="evenodd"/>
    <defs>
        <linearGradient id="prefix__paint0_linear" x1="113.37" x2="-19.844" y1="-243.916" y2="248.547" gradientUnits="userSpaceOnUse">
            <stop offset=".333" stop-color="#FF1833" stop-opacity="0"/>
            <stop offset=".974" stop-color="#FF1732"/>
        </linearGradient>
    </defs>
</svg>
