<svg xmlns="http://www.w3.org/2000/svg" width="522" height="263" fill="none" viewBox="0 0 522 263">
    <path fill="url(#prefix__paint0_linear)" fill-opacity=".5" fill-rule="evenodd" d="M291.064-402.179c-33.071-10.127-70.689-15.142-112.854-15.047-43.304.098-81.468 5.285-114.493 15.561-31.888 9.141-59.78 21.672-83.675 37.595-23.895 15.923-44.367 34.105-61.414 54.546-15.908 20.439-28.966 41.438-39.173 62.997-24.958 49.93-38.839 102.15-38.685 170.11.154 67.96 14.271 120.117 39.455 169.933 10.305 21.512 23.458 42.452 39.458 62.818 17.14 20.364 37.693 38.453 61.66 54.268 23.968 15.814 51.917 28.786 83.849 38.915 33.068 8.993 71.254 13.44 114.558 13.342l341.875-.774-.77-340.042c-3.562-63.467-17.935-120.109-43.119-169.925-10.305-21.513-24.028-42.451-41.168-62.815-16-20.366-35.984-38.457-59.951-54.271-23.967-15.815-52.485-28.218-85.553-37.211zM183.465 97.641c99.901-.227 180.705-81.199 180.479-180.857-.225-99.658-81.395-180.264-181.297-180.038-99.902.227-180.705 81.199-180.48 180.857.226 99.658 81.396 180.264 181.298 180.038z" clip-rule="evenodd"/>
    <defs>
        <linearGradient id="prefix__paint0_linear" x1="225.78" x2="108.913" y1="-248.611" y2="183.417" gradientUnits="userSpaceOnUse">
            <stop offset=".333" stop-color="#FF1833" stop-opacity="0"/>
            <stop offset=".974" stop-color="#FF1732"/>
        </linearGradient>
    </defs>
</svg>
