<svg xmlns="http://www.w3.org/2000/svg" width="84" height="84" fill="none" viewBox="0 0 84 84">
    <path fill="#D4B5F7" d="M22.628 56.77v9.425h-2.003l-8.12 3.918 3.207-15.087c2.27.668 4.576 1.25 6.916 1.743z"/>
    <path fill="#FF8985" d="M42.063 58.794l1.38 4.828-1.38 4.827-7.128 5.52V58.527c2.353.178 4.731.267 7.128.267z"/>
    <path fill="#FFAD85" d="M42.063 37.686l1.38 4.827-1.38 4.827-7.128 5.521V37.418c2.353.178 4.731.268 7.128.268z"/>
    <path fill="#FFD085" d="M22.628 35.661v9.425h-2.003l-8.12 3.919 3.207-15.088c2.27.668 4.576 1.25 6.916 1.744z"/>
    <path fill="#FF3B33" d="M49.192 58.527v15.442l-7.129-5.52v-9.655c2.398 0 4.776-.09 7.13-.267z"/>
    <path fill="#9345EB" d="M68.415 55.026l3.208 15.087-8.121-3.918h-2.003V56.77c2.34-.493 4.646-1.076 6.916-1.744zM29.66 57.979l-3.21 15.099-5.825-6.883 2.003-9.425c2.314.49 4.66.894 7.032 1.209z"/>
    <path fill="#D4B5F7" d="M61.499 56.77l2.002 9.425-5.824 6.883-3.21-15.1c2.372-.314 4.717-.718 7.032-1.209z"/>
    <path fill="#FF7633" d="M49.192 37.418v15.443l-7.129-5.52v-9.655c2.398 0 4.776-.09 7.13-.268z"/>
    <path fill="#FFB033" d="M68.415 33.916l3.208 15.089-8.121-3.919h-2.003v-9.425c2.34-.494 4.646-1.076 6.916-1.745zM29.66 36.87l-3.21 15.098-5.825-6.882 2.003-9.425c2.314.49 4.66.894 7.032 1.209z"/>
    <path fill="#FFD085" d="M61.499 35.661l2.002 9.426-5.824 6.881-3.21-15.098c2.372-.314 4.717-.719 7.032-1.209z"/>
    <path fill="#3DE2F3" d="M42.063 16.576l1.38 4.827-1.38 4.827-7.128 5.521V16.308c2.353.178 4.731.268 7.128.268z"/>
    <path fill="#2EAAB6" d="M49.192 16.308v15.443l-7.129-5.52v-9.655c2.398 0 4.776-.09 7.13-.268z"/>
    <path fill="#FF3B33" d="M68.415 12.808l3.208 15.087-8.121-3.917h-2.003v-9.427c2.34-.492 4.646-1.075 6.916-1.743z"/>
    <path fill="#FF8985" d="M61.499 14.552l2.002 9.426-5.824 6.882-3.21-15.1c2.373-.314 4.718-.717 7.032-1.208zM22.628 14.551v9.427h-2.003l-8.12 3.917 3.207-15.087c2.27.668 4.576 1.25 6.916 1.743z"/>
    <path fill="#FF3B33" d="M29.66 15.76l-3.21 15.1-5.825-6.882 2.003-9.427c2.314.492 4.66.895 7.032 1.21z"/>
    <path fill="#D7DBDB" d="M42.063 38.72c-10.896 0-21.577-1.838-31.746-5.465-.539-.192-.82-.784-.628-1.322.192-.539.784-.82 1.323-.628 9.946 3.547 20.393 5.346 31.051 5.346 10.659 0 21.106-1.799 31.052-5.346.538-.192 1.13.09 1.322.628.192.538-.089 1.13-.627 1.322-10.17 3.627-20.85 5.466-31.747 5.466zM42.063 59.83c-10.896 0-21.577-1.84-31.746-5.466-.539-.192-.82-.784-.628-1.323.192-.538.784-.819 1.323-.627 9.946 3.547 20.393 5.345 31.051 5.345 10.659 0 21.106-1.798 31.052-5.345.538-.192 1.13.089 1.322.627.192.539-.089 1.131-.627 1.323-10.17 3.627-20.85 5.466-31.747 5.466zM42.063 17.612c-10.896 0-21.577-1.839-31.746-5.466-.539-.192-.82-.784-.628-1.322.192-.539.784-.82 1.323-.628 9.946 3.547 20.393 5.346 31.051 5.346 10.659 0 21.106-1.799 31.052-5.346.538-.192 1.13.09 1.322.628.192.538-.089 1.13-.627 1.322-10.17 3.627-20.85 5.466-31.747 5.466z"/>
</svg>
