<svg xmlns="http://www.w3.org/2000/svg" width="202" height="68" fill="none" viewBox="0 0 202 68">
    <path fill="#fff" d="M192.341 45.243c0 1.209.424 2.266 1.273 3.173.909.846 2 1.27 3.273 1.27 1.213 0 2.243-.424 3.092-1.27.909-.846 1.394-1.874 1.455-3.083v-27.2c0-1.269-.455-2.327-1.364-3.173-.849-.907-1.91-1.36-3.183-1.36s-2.364.453-3.273 1.36c-.849.846-1.273 1.904-1.273 3.173v27.11zM201.434 4.533c0-1.269-.455-2.327-1.364-3.173-.849-.907-1.91-1.36-3.183-1.36s-2.334.453-3.182 1.36c-.91.846-1.364 1.904-1.364 3.173 0 1.27.454 2.327 1.364 3.174l3.182 3.264 3.183-3.264c.909-.847 1.364-1.904 1.364-3.174zM27.28 31.733v13.691c0 1.27.424 2.357 1.273 3.264.91.907 2 1.36 3.273 1.36 1.273 0 2.334-.453 3.183-1.36.91-.907 1.364-1.995 1.364-3.264V31.371c0-.423.091-1.119.273-2.086.242-.967.667-1.934 1.273-2.901.667-.967 1.576-1.813 2.728-2.539 1.212-.785 2.819-1.178 4.82-1.178 2.242 0 3.97.453 5.183 1.36 1.273.906 2.182 1.934 2.728 3.082.606 1.088.94 2.116 1 3.083.121.967.182 1.48.182 1.541v13.6c0 1.27.424 2.358 1.273 3.264.91.847 2 1.27 3.273 1.27 1.273 0 2.334-.423 3.183-1.27.91-.906 1.364-1.994 1.364-3.264v-13.6c-.182-3.385-.94-6.407-2.273-9.066-.546-1.149-1.273-2.267-2.183-3.355-.848-1.088-1.91-2.055-3.182-2.901-1.273-.847-2.789-1.511-4.547-1.995-1.758-.544-3.759-.816-6.002-.816-3.394 0-6.183.574-8.365 1.723-2.183 1.088-3.94 2.417-5.274 3.989-1.395-1.572-3.183-2.901-5.366-3.99-2.121-1.148-4.88-1.722-8.274-1.722-2.304 0-4.335.272-6.093.816-1.697.484-3.183 1.148-4.456 1.995-1.273.846-2.364 1.813-3.273 2.901-.849 1.088-1.546 2.206-2.092 3.355C.94 25.327.182 28.348 0 31.733v13.6c0 1.27.424 2.358 1.273 3.264.91.847 2 1.27 3.274 1.27 1.273 0 2.334-.423 3.182-1.27.91-.906 1.364-1.994 1.364-3.264v-13.6c.06-1.692.425-3.203 1.091-4.533.546-1.148 1.425-2.176 2.638-3.083 1.273-.967 3.06-1.45 5.365-1.45 2.243 0 3.97.453 5.183 1.36 1.273.906 2.182 1.934 2.728 3.082.606 1.088.94 2.116 1 3.083.121.967.182 1.48.182 1.541z"/>
    <path fill="#fff" fill-rule="evenodd" d="M109.137 63.467c0 1.269.424 2.327 1.273 3.173.91.907 2.001 1.36 3.274 1.36 1.273 0 2.334-.453 3.182-1.36.91-.846 1.364-1.904 1.364-3.173v-13.6h9.094c2.243 0 4.243-.242 6.001-.726 1.758-.544 3.274-1.239 4.547-2.085 1.273-.846 2.334-1.813 3.183-2.901.909-1.088 1.636-2.207 2.182-3.355 1.334-2.66 2.273-5.416 2.273-9.067 0-3.65-.939-6.407-2.273-9.066-.546-1.149-1.273-2.267-2.182-3.355-.849-1.088-1.91-2.055-3.183-2.901-1.273-.847-2.789-1.511-4.547-1.995-1.758-.544-3.758-.816-6.001-.816-2.304 0-4.335.272-6.093.816-1.697.484-3.182 1.148-4.456 1.995-1.273.846-2.364 1.813-3.273 2.901-.849 1.088-1.546 2.206-2.092 3.355-1.333 2.66-2.091 5.681-2.273 9.066v31.734zm12.822-39.35c1.273-.967 3.061-1.45 5.365-1.45 2.303 0 4.031.483 5.183 1.45 1.212.907 2.122 1.935 2.728 3.083.667 1.33 1.061 2.84 1.182 4.533-.121 1.693-.515 3.204-1.182 4.534-.606 1.148-1.516 2.206-2.728 3.173-1.152.907-2.88 1.36-5.183 1.36h-9.094v-9.067c.061-1.692.425-3.203 1.092-4.533.545-1.148 1.424-2.176 2.637-3.083zM150.075 63.467V31.733c.182-3.385.939-6.407 2.273-9.066.546-1.149 1.243-2.267 2.091-3.355.91-1.088 2.001-2.055 3.274-2.901 1.273-.847 2.758-1.511 4.456-1.995 1.758-.544 3.789-.816 6.092-.816 2.243 0 4.244.272 6.002.816 1.758.484 3.273 1.148 4.546 1.995 1.273.846 2.334 1.813 3.183 2.901.909 1.088 1.637 2.206 2.182 3.355 1.334 2.66 2.274 5.416 2.274 9.066 0 3.65-.94 6.407-2.274 9.067-.545 1.148-1.273 2.267-2.182 3.355-.849 1.088-1.91 2.055-3.183 2.901-1.273.846-2.788 1.541-4.546 2.085-1.758.484-3.759.726-6.002.726h-9.093v13.6c0 1.269-.455 2.327-1.364 3.173-.849.907-1.91 1.36-3.183 1.36s-2.364-.453-3.273-1.36c-.849-.846-1.273-1.904-1.273-3.173zm18.186-40.8c-2.303 0-4.092.483-5.365 1.45-1.212.907-2.091 1.935-2.637 3.083-.667 1.33-1.03 2.84-1.091 4.533V40.8h9.093c2.304 0 4.032-.453 5.183-1.36 1.213-.967 2.122-2.025 2.728-3.173.667-1.33 1.061-2.841 1.182-4.534-.121-1.692-.515-3.203-1.182-4.533-.606-1.148-1.515-2.176-2.728-3.083-1.151-.967-2.879-1.45-5.183-1.45z" clip-rule="evenodd"/>
    <path fill="#FF1833" fill-rule="evenodd" d="M92.388 14.416c-1.758-.544-3.759-.816-6.002-.816-2.303 0-4.334.272-6.092.816-1.698.483-3.183 1.148-4.456 1.995-1.273.846-2.364 1.813-3.273 2.901-.85 1.088-1.546 2.206-2.092 3.355-1.334 2.66-2.078 5.442-2.078 9.066 0 3.624.744 6.407 2.078 9.067.546 1.148 1.243 2.267 2.091 3.355.91 1.088 2.001 2.055 3.274 2.901 1.273.846 2.758 1.541 4.456 2.085 1.758.484 3.789.726 6.092.726h18.187V31.733c-.182-3.385-.94-6.407-2.273-9.066-.546-1.149-1.274-2.267-2.183-3.355-.849-1.088-1.91-2.055-3.183-2.901-1.273-.847-2.788-1.512-4.546-1.995zm-5.784 26.64c5.314 0 9.622-4.308 9.622-9.622 0-5.315-4.308-9.623-9.622-9.623-5.315 0-9.623 4.308-9.623 9.623 0 5.314 4.308 9.623 9.623 9.623z" clip-rule="evenodd"/>
</svg>
