<svg xmlns="http://www.w3.org/2000/svg" width="24" height="24" fill="none" viewBox="0 0 24 24">
    <path stroke="#000" stroke-linecap="round" stroke-linejoin="round" stroke-width="2" d="M12 12c1.105 0 2-.895 2-2s-.895-2-2-2-2 .895-2 2 .895 2 2 2z"/>
    <path stroke="#000" stroke-linecap="round" stroke-linejoin="round" stroke-width="2" d="M12 21c4.637-4.294 7-7.95 7-10.69 0-1.939-.738-3.798-2.05-5.17-1.313-1.37-3.093-2.14-4.95-2.14-1.857 0-3.637.77-4.95 2.141C5.737 6.511 5 8.371 5 10.31c0 2.74 2.362 6.304 7 10.69z"/>
</svg>
