<svg xmlns="http://www.w3.org/2000/svg" width="486" height="306" fill="none" viewBox="0 0 486 306">
    <path fill="url(#prefix__paint0_linear)" fill-opacity=".8" fill-rule="evenodd" d="M451.636 16.02C418.543 5.807 380.887.699 338.665.699c-43.362 0-81.59 5.108-114.682 15.323-31.951 9.08-59.909 21.565-83.872 37.455-23.963 15.89-44.503 34.05-61.62 54.48-15.976 20.43-29.099 41.427-39.369 62.992C14.018 220.888 0 273.147 0 341.198c0 68.052 14.018 120.31 39.122 170.25 10.27 21.565 23.393 42.563 39.369 62.993 17.117 20.43 37.657 38.59 61.62 54.48 23.963 15.89 51.921 28.942 83.872 39.157 33.092 9.08 71.32 13.62 114.682 13.62H681v-340.5c-3.423-63.56-17.687-120.31-42.792-170.25-10.27-21.565-23.963-42.562-41.08-62.992-15.976-20.43-35.945-38.59-59.909-54.48-23.963-15.89-52.491-28.375-85.583-37.455zM342.759 516.268c100.036 0 181.132-80.898 181.132-180.69s-81.096-180.69-181.132-180.69-181.132 80.898-181.132 180.69 81.096 180.69 181.132 180.69z" clip-rule="evenodd"/>
    <defs>
        <linearGradient id="prefix__paint0_linear" x1="385.916" x2="267.913" y1="169.647" y2="601.989" gradientUnits="userSpaceOnUse">
            <stop offset=".145" stop-color="#FF1833"/>
            <stop offset="1" stop-color="#FF1833" stop-opacity="0"/>
        </linearGradient>
    </defs>
</svg>
