<svg xmlns="http://www.w3.org/2000/svg" width="76" height="76" fill="none" viewBox="0 0 76 76">
    <path fill="#D78878" d="M56.873 61.55c1.415 0 2.563-1.148 2.563-2.563 0-1.415-1.148-2.562-2.563-2.562-1.415 0-2.562 1.147-2.562 2.562 0 1.415 1.147 2.563 2.562 2.563zM42.7 61.55c1.415 0 2.562-1.148 2.562-2.563 0-1.415-1.147-2.562-2.562-2.562-1.415 0-2.562 1.147-2.562 2.562 0 1.415 1.147 2.563 2.562 2.563z"/>
    <path fill="#EB9C8D" d="M56.516 55.23v4.861c0 3.712-2.968 6.786-6.68 6.814-3.74.027-6.78-2.996-6.78-6.73V55.23c0-1.538.515-2.955 1.383-4.088 1.187 1.07 3.14 1.77 5.348 1.77 2.207 0 4.16-.699 5.347-1.768.867 1.132 1.382 2.548 1.382 4.086z"/>
    <path fill="#FEE265" d="M55.384 51.493c-1.151 1.206-3.227 2.01-5.597 2.01-2.37 0-4.448-.805-5.598-2.011 1.208-1.803 3.264-2.991 5.598-2.991 1.858 0 3.54.753 4.759 1.97.312.312.593.655.838 1.022z"/>
    <path fill="#FDD330" d="M55.384 51.493c-.582.61-1.4 1.116-2.373 1.469-.075-.166-.156-.328-.245-.488-.837-1.505-2.247-2.692-4.034-3.203-.511-.147-1.026-.23-1.535-.253.797-.334 1.672-.517 2.59-.517 1.858 0 3.54.753 4.759 1.97.312.312.593.655.838 1.022z"/>
    <path fill="#694B44" d="M52.868 59.538c-.489 0-.89-.397-.89-.886s.392-.885.881-.885h.01c.489 0 .885.396.885.885 0 .49-.396.886-.886.886zM46.714 59.538c-.489 0-.89-.397-.89-.886s.392-.885.88-.885h.01c.49 0 .886.396.886.885 0 .49-.397.886-.886.886z"/>
    <path fill="#A34F41" d="M21.845 23.45c2.662 0 4.82-2.446 4.82-5.462 0-3.016-2.158-5.46-4.82-5.46-2.662 0-4.82 2.444-4.82 5.46s2.158 5.461 4.82 5.461zM32.055 23.45c2.662 0 4.82-2.446 4.82-5.462 0-3.016-2.158-5.46-4.82-5.46-2.662 0-4.82 2.444-4.82 5.46s2.158 5.461 4.82 5.461z"/>
    <path fill="#D78878" d="M34.045 26.858c1.415 0 2.563-1.148 2.563-2.563 0-1.415-1.148-2.562-2.563-2.562-1.415 0-2.562 1.147-2.562 2.562 0 1.415 1.147 2.563 2.562 2.563zM19.872 26.858c1.415 0 2.562-1.148 2.562-2.563 0-1.415-1.147-2.562-2.562-2.562-1.415 0-2.563 1.147-2.563 2.562 0 1.415 1.148 2.563 2.563 2.563z"/>
    <path fill="#EB9C8D" d="M33.688 20.538V25.4c0 3.711-2.968 6.786-6.68 6.814-3.74.027-6.78-2.996-6.78-6.73v-4.945c0-3.717 3.014-6.73 6.73-6.73 1.86 0 3.542.754 4.76 1.972 1.217 1.218 1.97 2.9 1.97 4.758z"/>
    <path fill="#694B44" d="M30.04 24.846c-.489 0-.89-.396-.89-.886 0-.489.392-.885.881-.885h.01c.488 0 .885.396.885.885 0 .49-.397.886-.886.886zM23.886 24.846c-.49 0-.89-.396-.89-.886 0-.489.392-.885.88-.885h.01c.49 0 .886.396.886.885 0 .49-.397.886-.886.886z"/>
    <path fill="#BA5D4F" d="M26.959 18.811c3.015 0 5.46-2.158 5.46-4.82 0-2.662-2.444-4.82-5.46-4.82-3.017 0-5.462 2.158-5.462 4.82 0 2.662 2.445 4.82 5.462 4.82z"/>
    <path fill="#A34F41" d="M32.42 13.991c0 2.662-2.446 4.82-5.462 4.82-1.266 0-2.43-.38-3.356-1.017.094.003.189.006.285.006 3.015 0 5.46-2.159 5.46-4.82 0-1.545-.823-2.921-2.104-3.803 2.883.13 5.177 2.235 5.177 4.814z"/>
    <path fill="#D78878" d="M55.888 27.043c1.415 0 2.562-1.147 2.562-2.562 0-1.416-1.147-2.563-2.562-2.563-1.416 0-2.563 1.148-2.563 2.563 0 1.415 1.147 2.562 2.563 2.562zM41.714 27.043c1.416 0 2.563-1.147 2.563-2.562 0-1.416-1.148-2.563-2.563-2.563-1.415 0-2.562 1.148-2.562 2.563 0 1.415 1.147 2.562 2.562 2.562z"/>
    <path fill="#EB9C8D" d="M55.531 20.723v4.86c0 3.713-2.969 6.788-6.68 6.816-3.74.026-6.78-2.996-6.78-6.73v-4.946c0-1.537.515-2.953 1.383-4.085 1.187 1.07 3.14 1.768 5.347 1.768 2.207 0 4.16-.697 5.347-1.767.868 1.132 1.383 2.548 1.383 4.084z"/>
    <path fill="#557983" d="M54.399 16.987c-1.152 1.205-3.228 2.01-5.598 2.01-2.37 0-4.447-.806-5.598-2.012 1.209-1.803 3.264-2.99 5.598-2.99 1.859 0 3.54.753 4.759 1.97.312.312.593.654.839 1.022z"/>
    <path fill="#3F5959" d="M54.399 16.987c-.583.609-1.401 1.116-2.374 1.469-.075-.167-.156-.329-.245-.488-.837-1.506-2.247-2.693-4.034-3.204-.51-.146-1.026-.229-1.535-.253.797-.334 1.672-.517 2.59-.517 1.859 0 3.54.754 4.759 1.971.312.312.593.654.839 1.022z"/>
    <path fill="#694B44" d="M51.883 25.031c-.49 0-.89-.396-.89-.885 0-.49.391-.886.88-.886h.01c.489 0 .885.396.885.886 0 .489-.396.885-.885.885zM45.729 25.031c-.49 0-.89-.396-.89-.885 0-.49.391-.886.88-.886h.01c.489 0 .885.396.885.886 0 .489-.396.885-.885.885z"/>
    <path fill="#D78878" d="M25.548 45.57c1.415 0 2.562-1.147 2.562-2.562 0-1.415-1.147-2.562-2.562-2.562-1.415 0-2.563 1.147-2.563 2.562 0 1.415 1.148 2.563 2.563 2.563zM11.374 45.57c1.416 0 2.563-1.147 2.563-2.562 0-1.415-1.147-2.562-2.563-2.562-1.415 0-2.562 1.147-2.562 2.562 0 1.415 1.147 2.563 2.562 2.563z"/>
    <path fill="#EB9C8D" d="M25.19 39.251v4.861c0 3.712-2.967 6.786-6.679 6.814-3.74.027-6.78-2.995-6.78-6.73v-4.945c0-3.716 3.013-6.73 6.73-6.73 1.86 0 3.541.754 4.759 1.972 1.217 1.218 1.97 2.9 1.97 4.758z"/>
    <path fill="#694B44" d="M21.543 43.559c-.49 0-.89-.396-.89-.886 0-.489.391-.885.88-.885h.01c.489 0 .886.396.886.885 0 .49-.397.886-.886.886zM15.389 43.559c-.49 0-.89-.396-.89-.886 0-.489.391-.885.88-.885h.01c.489 0 .885.396.885.885 0 .49-.396.886-.885.886z"/>
    <path fill="#FF6D3F" d="M28.123 35.195c-.527-3.106-2.265-4.63-4.01-5.368-.82-.347-1.708-.505-2.598-.505h-6.108c-.89 0-1.778.158-2.598.505-1.745.738-3.483 2.262-4.01 5.368-1.055 6.21 7.781 3.589 9.479 3.032.12-.04.247-.04.366 0 1.698.557 10.534 3.178 9.48-3.032z"/>
    <path fill="#C85733" d="M22.527 39.131c1.722-.325 2.957-1.386 2.524-3.936-.528-3.106-2.266-4.63-4.01-5.368-.82-.347-1.709-.505-2.599-.505h3.073c.89 0 1.777.158 2.598.505 1.744.738 3.482 2.262 4.01 5.368.67 3.944-2.65 4.325-5.596 3.936z"/>
    <path fill="#CF562F" d="M21.78 33.149c0 .489-.396.886-.885.886-.854 0-1.548.694-1.548 1.548v2.862c-.294-.087-.534-.163-.703-.218-.119-.04-.246-.04-.366 0-.169.055-.408.13-.702.217v-2.861c0-.854-.696-1.548-1.55-1.548-.489 0-.885-.397-.885-.886s.396-.886.885-.886c.56 0 1.087.14 1.55.385v-3.326h1.771v3.326c.463-.245.99-.385 1.548-.385.49 0 .886.397.886.886z"/>
    <path fill="#FF1833" d="M46.89 30.578c-5.197-5.195-13.65-5.195-18.846 0-5.195 5.195-5.195 13.649 0 18.844 2.598 2.598 6.01 3.897 9.423 3.897 3.412 0 6.824-1.299 9.422-3.897 5.195-5.195 5.195-13.649 0-18.844zm-15.06 3.784c1.553-1.554 3.595-2.331 5.637-2.331.865 0 1.73.144 2.557.426.413.141.533.668.224.977l-9.346 9.347c-.31.31-.839.185-.979-.23-.936-2.781-.305-5.977 1.906-8.189zm11.274 11.276c-2.21 2.212-5.407 2.842-8.187 1.906-.416-.14-.54-.669-.23-.979l9.345-9.345c.31-.31.838-.186.978.23.937 2.78.306 5.976-1.906 8.188z"/>
    <path fill="#C3000C" d="M46.89 49.422c-2.599 2.598-6.01 3.897-9.423 3.897-.698 0-1.396-.055-2.086-.164 2.687-.421 5.27-1.666 7.337-3.733 5.194-5.195 5.194-13.65 0-18.844-2.067-2.067-4.65-3.312-7.337-3.733 4.069-.641 8.379.604 11.508 3.733 5.195 5.195 5.195 13.65 0 18.844z"/>
    <path fill="#3F5959" d="M22.69 57.112c2.663 0 4.821-2.445 4.821-5.46 0-3.017-2.158-5.462-4.82-5.462-2.662 0-4.82 2.445-4.82 5.461 0 3.016 2.158 5.461 4.82 5.461z"/>
    <path fill="#D78878" d="M34.606 60.52c1.415 0 2.563-1.147 2.563-2.562 0-1.415-1.148-2.562-2.563-2.562-1.415 0-2.562 1.147-2.562 2.562 0 1.415 1.147 2.563 2.562 2.563zM20.433 60.52c1.415 0 2.562-1.147 2.562-2.562 0-1.415-1.147-2.562-2.562-2.562-1.415 0-2.562 1.147-2.562 2.562 0 1.415 1.147 2.563 2.562 2.563z"/>
    <path fill="#EB9C8D" d="M34.25 54.201v4.861c0 3.712-2.969 6.786-6.68 6.814-3.74.027-6.78-2.996-6.78-6.73v-4.945c0-3.717 3.013-6.73 6.73-6.73 1.859 0 3.54.754 4.758 1.972s1.971 2.9 1.971 4.758z"/>
    <path fill="#694B44" d="M30.601 58.51c-.489 0-.89-.397-.89-.887 0-.489.392-.885.881-.885h.01c.489 0 .885.396.885.885 0 .49-.396.886-.886.886zM24.447 58.51c-.489 0-.89-.397-.89-.887 0-.489.392-.885.881-.885h.01c.488 0 .885.396.885.885 0 .49-.397.886-.886.886z"/>
    <path fill="#557983" d="M35.716 47.767c-.176-.221-.17-.54.018-.752.55-.624.787-1.269.599-1.839-.464-1.407-11.135-3.412-13.7 1.393-1.308 2.448 1.954 6.827 5.665 7.947 3.711 1.12 7.447-.083 8.343-2.688.465-1.35.075-2.81-.925-4.061z"/>
    <path fill="#3F5959" d="M36.641 51.828c-.897 2.605-4.632 3.808-8.343 2.689-.255-.077-.508-.17-.759-.276 2.843.149 5.326-1.035 6.035-3.095.43-1.25.127-2.596-.714-3.781-.272-.384-.277-.896.004-1.273.407-.547.565-1.1.401-1.597-.09-.272-.559-.565-1.277-.828 2.309.276 4.157.942 4.345 1.51.188.57-.048 1.214-.599 1.838-.187.212-.194.53-.017.752.999 1.25 1.389 2.712.924 4.061z"/>
    <path fill="#A34F41" d="M52.925 39.21c2.662 0 4.82-2.445 4.82-5.461 0-3.016-2.158-5.461-4.82-5.461-2.662 0-4.82 2.445-4.82 5.461 0 3.016 2.158 5.461 4.82 5.461z"/>
    <path fill="#D78878" d="M64.84 42.618c1.415 0 2.563-1.147 2.563-2.562 0-1.415-1.148-2.562-2.563-2.562-1.415 0-2.562 1.147-2.562 2.562 0 1.415 1.147 2.562 2.562 2.562zM50.667 42.618c1.415 0 2.562-1.147 2.562-2.562 0-1.415-1.147-2.562-2.562-2.562-1.415 0-2.562 1.147-2.562 2.562 0 1.415 1.147 2.562 2.562 2.562z"/>
    <path fill="#EB9C8D" d="M64.483 36.299v4.86c0 3.712-2.968 6.787-6.679 6.815-3.74.027-6.78-2.996-6.78-6.73V36.3c0-3.717 3.013-6.73 6.73-6.73 1.859 0 3.54.754 4.758 1.971 1.218 1.219 1.971 2.901 1.971 4.759z"/>
    <path fill="#694B44" d="M60.835 40.607c-.489 0-.89-.397-.89-.886s.392-.886.881-.886h.01c.489 0 .885.397.885.886 0 .49-.396.886-.886.886zM54.681 40.607c-.489 0-.89-.397-.89-.886s.392-.886.88-.886h.01c.49 0 .886.397.886.886 0 .49-.397.886-.886.886z"/>
    <path fill="#BA5D4F" d="M65.95 29.865c-.176-.222-.17-.54.018-.752.55-.624.787-1.269.599-1.84-.464-1.407-11.135-3.411-13.7 1.393-1.308 2.448 1.954 6.828 5.665 7.948 3.711 1.12 7.447-.083 8.343-2.688.465-1.35.075-2.81-.925-4.061z"/>
    <path fill="#A34F41" d="M66.876 33.926c-.898 2.604-4.633 3.808-8.344 2.689-.255-.077-.508-.17-.759-.277 2.843.15 5.326-1.035 6.035-3.094.43-1.25.127-2.596-.714-3.781-.272-.384-.277-.897.004-1.274.407-.547.565-1.1.401-1.596-.089-.272-.558-.566-1.277-.829 2.309.276 4.157.943 4.345 1.51.188.57-.048 1.215-.599 1.839-.187.212-.194.53-.017.751.999 1.252 1.389 2.712.925 4.062z"/>
</svg>
